SplineFontDB: 3.2
FontName: IBMCourier-Bold
FullName: IBM Courier Bold
FamilyName: IBM Courier
Weight: Bold
Copyright: Copyright (c) IBM Corporation 1990,1991.
Version: 001.003
ItalicAngle: 0
UnderlinePosition: -100
UnderlineWidth: 50
Ascent: 800
Descent: 200
InvalidEm: 0
LayerCount: 2
Layer: 0 0 "Back" 1
Layer: 1 0 "Fore" 0
UniqueID: 263788
OS2Version: 0
OS2_WeightWidthSlopeOnly: 0
OS2_UseTypoMetrics: 0
CreationTime: 1634085839
ModificationTime: 1634085839
OS2TypoAscent: 0
OS2TypoAOffset: 1
OS2TypoDescent: 0
OS2TypoDOffset: 1
OS2TypoLinegap: 0
OS2WinAscent: 0
OS2WinAOffset: 1
OS2WinDescent: 0
OS2WinDOffset: 1
HheadAscent: 0
HheadAOffset: 1
HheadDescent: 0
HheadDOffset: 1
OS2Vendor: 'PfEd'
Lookup: 4 0 1 "'liga' Standard Ligatures in Latin lookup 0" { "'liga' Standard Ligatures in Latin lookup 0 subtable"  } ['liga' ('latn' <'dflt' > ) ]
DEI: 91125
Encoding: AdobeStandard
UnicodeInterp: none
NameList: AGL For New Fonts
DisplaySize: -48
AntiAlias: 1
FitToEm: 0
BeginPrivate: 6
BlueValues 33 [ -25 0 583 608 453 478 625 650 ]
OtherBlues 27 [ 238 246 330 330 123 148 ]
StdHW 6 [ 86 ]
StdVW 6 [ 87 ]
ForceBold 4 true
Erode 146 {
10.5 dup 3 -1 roll 0.1 mul exch 0.5 sub mul cvi sub dup mul
87 0 dtransform dup mul exch dup mul add
le{pop pop 1.0 1.0}{pop pop 0.0 1.5}ifelse}
EndPrivate
BeginChars: 586 479

StartChar: exclam
Encoding: 33 33 1
Width: 600
Flags: W
HStem: -16 157<276 324 276 325> 187 404<259 341 259 259> 571 20G<240 361 361 361>
VStem: 213 174<41.5 84.5> 240 121<591 591>
LayerCount: 2
Fore
SplineSet
361 591 m 1xf8
 341 187 l 1
 259 187 l 1
 240 591 l 1
 361 591 l 1xf8
300 141 m 0x90
 348 141 387 106 387 63 c 0
 387 20 350 -16 300 -16 c 0
 250 -16 213 20 213 63 c 0
 213 106 252 141 300 141 c 0x90
EndSplineSet
EndChar

StartChar: quotedbl
Encoding: 34 34 2
Width: 600
Flags: W
HStem: 272 311<154 263 154 154 338 338 338 447> 563 20G<142 274 274 274 326 458 458 458>
VStem: 142 132<583 583> 148 120.5 326 132<583 583> 332 120.5
LayerCount: 2
Fore
SplineSet
142 583 m 1xf4
 274 583 l 1
 263 272 l 1
 154 272 l 1
 142 583 l 1xf4
326 583 m 1x88
 458 583 l 1
 447 272 l 1
 338 272 l 1
 326 583 l 1x88
EndSplineSet
EndChar

StartChar: numbersign
Encoding: 35 35 3
Width: 600
Flags: W
HStem: 121 98<50 141 50 144 230 378 50 226 469 569> 375 98<53 153 53 159 53 240 246 391 483 574>
VStem: 134 85 148.5 86.5 164.5 87 372.5 85 387 85.5 403.5 85
LayerCount: 2
Fore
SplineSet
170 658 m 1xca
 257 658 l 1
 246 473 l 1
 398 473 l 1
 409 658 l 1
 494 658 l 1
 483 473 l 1
 574 473 l 1
 574 375 l 1xc9
 476 375 l 1
 469 219 l 1
 569 219 l 1
 569 121 l 1xca
 463 121 l 1
 452 -73 l 1
 367 -73 l 1
 378 121 l 1
 226 121 l 1
 212 -73 l 1
 127 -73 l 1
 141 121 l 1
 50 121 l 1
 50 219 l 1xe4
 144 219 l 1
 153 375 l 1
 53 375 l 1
 53 473 l 1xd2
 159 473 l 1
 170 658 l 1xca
391 375 m 1xd2
 240 375 l 1
 230 219 l 1
 383 219 l 1
 391 375 l 1xd2
EndSplineSet
EndChar

StartChar: dollar
Encoding: 36 36 4
Width: 600
Flags: W
HStem: 8 227<98 173 93 179 98 98> 239 21G<334 334> 344.5 223.5
VStem: 105 78.5 109 82<393.5 432 393.5 459> 263 71<-131 15 -131 15 102 239 345 479 568 672> 408.5 71.5 415 82<145.5 191>
LayerCount: 2
Fore
SplineSet
405 522 m 1xcf
 412 568 l 1
 486 568 l 1
 484 542 480 507 480 472 c 0
 480 427 486 379 490 349 c 1
 412 340 l 1x6e
 405 400 391 462 334 479 c 1
 334 323 l 1
 404 305 497 280 497 169 c 0
 497 122 473 36 334 15 c 1
 334 -131 l 1
 263 -131 l 1
 263 15 l 1
 227 25 210 36 188 62 c 1
 179 8 l 1
 98 8 l 1
 101 34 105 59 105 100 c 0
 105 149 98 198 93 235 c 1
 173 235 l 1xd5
 179 191 190 107 263 102 c 1
 263 257 l 1
 208 272 109 302 109 411 c 0
 109 507 189 559 263 568 c 1
 263 672 l 1
 334 672 l 1
 334 568 l 1
 359 563 384 552 405 522 c 1xcf
263 345 m 1
 263 483 l 1
 212 476 191 449 191 415 c 0
 191 372 225 357 263 345 c 1
334 239 m 1
 334 101 l 1
 355 104 415 112 415 170 c 0x4d
 415 212 380 229 334 239 c 1
EndSplineSet
EndChar

StartChar: percent
Encoding: 37 37 5
Width: 600
Flags: W
HStem: -14 68<400 453 400 475> 206 68<401 452> 346 68<149 196 149 222> 566 68<148.5 197>
VStem: 21 75<470 509 470 526.5> 250 75<469.5 509> 275 75<113.5 147.5 113.5 164.5> 504 75<112.5 148.5>
LayerCount: 2
Fore
SplineSet
427 274 m 0xff
 525 274 579 197 579 130 c 0
 579 61 523 -14 427 -14 c 0
 332 -14 275 59 275 130 c 0
 275 199 330 274 427 274 c 0xff
427 206 m 0xfb
 375 206 350 165 350 130 c 0
 350 97 373 54 427 54 c 0
 479 54 504 95 504 130 c 0
 504 167 477 206 427 206 c 0xfb
173 634 m 0xfd
 265 634 325 562 325 490 c 0
 325 422 271 346 173 346 c 0
 74 346 21 422 21 490 c 0
 21 563 81 634 173 634 c 0xfd
173 566 m 0xfd
 124 566 96 528 96 490 c 0
 96 450 125 414 173 414 c 0
 219 414 250 449 250 490 c 0
 250 528 221 566 173 566 c 0xfd
507 438 m 1xfd
 535 383 l 1
 110 195 l 1
 82 250 l 1
 507 438 l 1xfd
EndSplineSet
EndChar

StartChar: ampersand
Encoding: 38 38 6
Width: 600
Flags: W
HStem: -7 89<239.5 277.5 239.5 281> 0 82<474 553> 135 21G<439 439> 224 85<477 540 477 477> 476 85<268 297.5>
VStem: 86 105<147.5 161> 145 99<433.5 449 433.5 466> 413 127
LayerCount: 2
Fore
SplineSet
415 309 m 1x7d
 540 309 l 1
 540 224 l 1
 477 224 l 1
 463 181 460 172 439 135 c 1
 474 82 l 1
 553 82 l 1
 553 0 l 1
 409 0 l 1x7d
 376 47 l 1
 354 26 317 -7 245 -7 c 0
 137 -7 86 81 86 152 c 0xbd
 86 170 86 262 192 318 c 1
 164 359 145 391 145 433 c 0
 145 499 201 561 290 561 c 0
 317 561 339 556 364 546 c 0
 367 544 386 537 389 535 c 0
 401 530 416 525 431 525 c 0
 440 525 450 527 465 530 c 1
 398 427 l 1
 340 470 309 476 286 476 c 0
 250 476 244 454 244 444 c 0
 244 423 262 397 264 394 c 0
 268 387 291 354 295 348 c 2x7b
 383 216 l 1
 399 255 400 259 411 295 c 0
 411 297 415 307 415 309 c 1x7d
327 118 m 1
 240 248 l 1
 202 225 191 194 191 168 c 0
 191 127 218 82 261 82 c 0
 294 82 314 103 327 118 c 1
EndSplineSet
EndChar

StartChar: quoteright
Encoding: 39 8217 7
Width: 600
Flags: W
HStem: 309 274<241 262 154 385> 563 20G<241 385 385 385>
VStem: 154 231
LayerCount: 2
Fore
SplineSet
241 583 m 1xe0
 385 583 l 1
 262 309 l 1
 154 309 l 1
 241 583 l 1xe0
EndSplineSet
EndChar

StartChar: parenleft
Encoding: 40 40 8
Width: 600
Flags: MW
HStem: -93 759<398 490 398 490>
VStem: 268 97<230 354>
LayerCount: 2
Fore
SplineSet
398 666 m 1
 490 666 l 1
 432 556 365 430 365 287 c 0
 365 144 428 25 490 -93 c 1
 398 -93 l 1
 395 -89 395 -88 391 -83 c 0
 319 24 268 173 268 287 c 0
 268 421 337 575 383 645 c 0
 385 647 393 659 395 662 c 2
 398 666 l 1
EndSplineSet
EndChar

StartChar: parenright
Encoding: 41 41 9
Width: 600
Flags: MW
HStem: -93 759<110 203 110 203>
VStem: 235 97<246 319.5 246 357.5>
LayerCount: 2
Fore
SplineSet
203 -93 m 1
 110 -93 l 1
 111 -90 116 -81 117 -79 c 0
 167 15 235 143 235 287 c 0
 235 428 175 542 110 666 c 1
 203 666 l 1
 203 665 205 662 206 662 c 0
 313 497 332 352 332 287 c 0
 332 205 307 114 274 37 c 0
 247 -25 228 -53 203 -93 c 1
EndSplineSet
EndChar

StartChar: asterisk
Encoding: 42 42 10
Width: 600
Flags: W
HStem: 188 395<224 354 246 376> 563 20G<246 354 354 354>
VStem: 93 414<392 392> 249 102
LayerCount: 2
Fore
SplineSet
246 583 m 1xf0
 354 583 l 1
 348 447 l 1
 475 493 l 1
 507 392 l 1
 376 357 l 1
 461 251 l 1
 376 188 l 1
 300 301 l 1
 224 188 l 1
 139 251 l 1
 224 357 l 1
 93 392 l 1
 126 493 l 1
 252 447 l 1
 246 583 l 1xf0
EndSplineSet
EndChar

StartChar: plus
Encoding: 43 43 11
Width: 600
Flags: MW
HStem: 268 88<54 256 54 256 344 546>
VStem: 256 88<71 268 71 268 356 553>
LayerCount: 2
Fore
SplineSet
256 553 m 1
 344 553 l 1
 344 356 l 1
 546 356 l 1
 546 268 l 1
 344 268 l 1
 344 71 l 1
 256 71 l 1
 256 268 l 1
 54 268 l 1
 54 356 l 1
 256 356 l 1
 256 553 l 1
EndSplineSet
EndChar

StartChar: comma
Encoding: 44 44 12
Width: 600
Flags: MW
HStem: -106 274<241 262 154 385>
VStem: 154 231
LayerCount: 2
Fore
SplineSet
241 168 m 1
 385 168 l 1
 262 -106 l 1
 154 -106 l 1
 241 168 l 1
EndSplineSet
EndChar

StartChar: hyphen
Encoding: 45 45 13
Width: 600
Flags: MW
HStem: 253 92<189 411 189 411>
VStem: 189 222<253 345 253 345>
LayerCount: 2
Fore
SplineSet
189 345 m 1
 411 345 l 1
 411 253 l 1
 189 253 l 1
 189 345 l 1
EndSplineSet
EndChar

StartChar: period
Encoding: 46 46 14
Width: 600
Flags: W
HStem: -16 21G<277.5 323> -16 170<277.5 321.5 277.5 323>
VStem: 206 188<42.5 95.5>
LayerCount: 2
Fore
SplineSet
300 154 m 0xe0
 343 154 394 123 394 69 c 0
 394 16 346 -16 300 -16 c 0
 255 -16 206 15 206 69 c 0
 206 122 255 154 300 154 c 0xe0
EndSplineSet
EndChar

StartChar: slash
Encoding: 47 47 15
Width: 600
Flags: MW
HStem: -133 857<149 450>
VStem: 72 456
LayerCount: 2
Fore
SplineSet
450 724 m 1
 528 691 l 1
 149 -133 l 1
 72 -98 l 1
 450 724 l 1
EndSplineSet
EndChar

StartChar: zero
Encoding: 48 48 16
Width: 600
Flags: MW
HStem: -14 83<250 352 250 390> 556 83<293 351>
VStem: 97 91<270.5 356 270.5 374> 412 91<275.5 354>
LayerCount: 2
Fore
SplineSet
300 639 m 0
 479 639 503 434 503 313 c 0
 503 193 480 -14 300 -14 c 0
 121 -14 97 193 97 313 c 0
 97 435 122 639 300 639 c 0
300 556 m 0
 286 556 254 552 228 517 c 0
 204 483 188 399 188 313 c 0
 188 228 200 69 300 69 c 0
 404 69 412 238 412 313 c 0
 412 395 402 556 300 556 c 0
EndSplineSet
EndChar

StartChar: one
Encoding: 49 49 17
Width: 600
Flags: MW
HStem: 0 82<97 265 352 518 97 265> 619 20G<298 352 352 352>
VStem: 265 87<82 531 531 531>
LayerCount: 2
Fore
SplineSet
85 544 m 1
 298 639 l 1
 352 639 l 1
 352 82 l 1
 518 82 l 1
 518 0 l 1
 97 0 l 1
 97 82 l 1
 265 82 l 1
 265 531 l 1
 120 466 l 1
 85 544 l 1
EndSplineSet
EndChar

StartChar: two
Encoding: 50 50 18
Width: 600
Flags: W
HStem: 0 82<204 402 70 70> 551 88<269.5 318>
VStem: 89 88<471 506 471 540 471 540> 396 91<423.5 472.5> 402 84<82 180 0 180>
LayerCount: 2
Fore
SplineSet
402 180 m 1xe8
 486 180 l 1
 486 0 l 1xe8
 70 0 l 1
 70 82 l 1
 121 125 262 250 344 332 c 0
 386 374 396 404 396 443 c 0
 396 502 354 551 282 551 c 0
 251 551 177 538 177 474 c 0
 177 468 178 458 179 453 c 1
 89 453 l 1
 89 540 l 1
 166 634 254 639 285 639 c 0
 397 639 487 550 487 440 c 0xf0
 487 345 437 294 301 170 c 2
 204 82 l 1
 402 82 l 1
 402 180 l 1xe8
EndSplineSet
EndChar

StartChar: three
Encoding: 51 51 19
Width: 600
Flags: W
HStem: -14 85<239 299 239 325.5> 290 81<218 307.5> 552 87<243.5 287>
VStem: 362 89<434 498> 392 89<145 216.5 124 217.5>
LayerCount: 2
Fore
SplineSet
106 27 m 2xe8
 66 43 l 1
 100 123 l 1
 144 101 208 71 270 71 c 0
 328 71 392 106 392 184 c 0xe8
 392 251 345 290 270 290 c 0
 266 290 248 290 218 288 c 1
 218 371 l 1
 268 372 362 373 362 467 c 0
 362 529 308 552 266 552 c 0
 221 552 194 536 120 490 c 1
 76 562 l 1
 139 604 194 639 267 639 c 0
 359 639 451 575 451 471 c 0xf0
 451 397 415 362 394 341 c 1
 450 309 481 248 481 185 c 0
 481 63 384 -14 267 -14 c 0
 204 -14 157 6 106 27 c 2xe8
EndSplineSet
EndChar

StartChar: four
Encoding: 52 52 20
Width: 600
Flags: MW
HStem: 0 82<190 320 407 503 190 320> 165 85<132 320 132 320 407 503> 560 79<318 320 318 318>
VStem: 320 87<82 165 82 165 250 560 560 560>
LayerCount: 2
Fore
SplineSet
407 639 m 1
 407 250 l 1
 503 250 l 1
 503 165 l 1
 407 165 l 1
 407 82 l 1
 503 82 l 1
 503 0 l 1
 190 0 l 1
 190 82 l 1
 320 82 l 1
 320 165 l 1
 44 165 l 1
 44 245 l 1
 286 639 l 1
 407 639 l 1
132 250 m 1
 320 250 l 1
 320 560 l 1
 318 560 l 1
 132 250 l 1
EndSplineSet
EndChar

StartChar: five
Encoding: 53 53 21
Width: 600
Flags: MW
HStem: -14 87<243 330 241.5 363> 327 83<268 323.5> 539 86<195 474 195 195>
VStem: 112 83<392 539 392 625> 411 92<173 235>
LayerCount: 2
Fore
SplineSet
112 625 m 1
 474 625 l 1
 474 539 l 1
 195 539 l 1
 195 392 l 1
 208 397 244 410 292 410 c 0
 418 410 503 318 503 202 c 0
 503 113 446 -14 280 -14 c 0
 206 -14 156 6 73 38 c 1
 104 119 l 1
 106 118 112 116 113 115 c 0
 148 100 208 73 275 73 c 0
 385 73 411 147 411 199 c 0
 411 271 362 327 285 327 c 0
 224 327 185 297 158 275 c 1
 112 301 l 1
 112 625 l 1
EndSplineSet
EndChar

StartChar: six
Encoding: 54 54 22
Width: 600
Flags: W
HStem: -15 87<278 329 278 357.5> 308 87<298 334> 552 87<406.5 426.5> 616 20G<501 501>
VStem: 89 93 401 92<152 219>
LayerCount: 2
Fore
SplineSet
501 636 m 1xfc
 501 550 l 1
 458 552 430 552 423 552 c 0
 362 552 219 552 189 357 c 1
 241 395 292 395 304 395 c 0
 412 395 493 300 493 188 c 0
 493 78 412 -15 303 -15 c 0
 216 -15 89 51 89 269 c 0
 89 335 103 472 193 562 c 0
 270 639 388 639 425 639 c 0xec
 451 639 480 637 501 636 c 1xfc
182 219 m 1
 189 112 254 72 302 72 c 0
 356 72 401 116 401 188 c 0
 401 250 363 308 305 308 c 0
 282 308 214 299 182 219 c 1
EndSplineSet
EndChar

StartChar: seven
Encoding: 55 55 23
Width: 600
Flags: MW
HStem: 0 21G<218 315 218 218> 540 85<176 412 176 176>
VStem: 90 86<453 540 453 625 453 625>
LayerCount: 2
Fore
SplineSet
90 625 m 1
 508 625 l 1
 508 557 l 1
 315 0 l 1
 218 0 l 1
 412 540 l 1
 176 540 l 1
 176 453 l 1
 90 453 l 1
 90 625 l 1
EndSplineSet
EndChar

StartChar: eight
Encoding: 56 56 24
Width: 600
Flags: W
HStem: -14 83<267 333 267 368.5> 272 87<272.5 327 272.5 337> 554 85<271.5 328>
VStem: 94 90<143.5 194 143.5 199.5> 105 90<446.5 488.5 432 511> 405 90<440 489.5> 416 90<143 195>
LayerCount: 2
Fore
SplineSet
174 320 m 1xec
 111 371 105 432 105 461 c 0
 105 561 192 639 300 639 c 0
 407 639 495 562 495 461 c 0xec
 495 419 480 363 426 320 c 1
 484 280 506 219 506 173 c 0
 506 88 437 -14 300 -14 c 0
 164 -14 94 88 94 172 c 0xf2
 94 227 124 286 174 320 c 1xec
300 554 m 0
 243 554 195 517 195 460 c 0
 195 404 245 359 300 359 c 0
 354 359 405 402 405 460 c 0
 405 519 356 554 300 554 c 0
300 272 m 0xf2
 223 272 184 218 184 170 c 0
 184 117 234 69 300 69 c 0
 366 69 416 116 416 170 c 0
 416 220 374 272 300 272 c 0xf2
EndSplineSet
EndChar

StartChar: nine
Encoding: 57 57 25
Width: 600
Flags: MW
HStem: -15 87<141.5 161.5> 229 87<234 270> 552 87<239 290>
VStem: 75 92<405 472 405 491> 386 93
LayerCount: 2
Fore
SplineSet
67 -12 m 1
 73 74 l 1
 116 72 138 72 145 72 c 0
 206 72 349 72 379 267 c 1
 327 229 276 229 264 229 c 0
 156 229 75 324 75 436 c 0
 75 546 156 639 265 639 c 0
 352 639 479 573 479 355 c 0
 479 289 465 152 375 62 c 0
 298 -15 180 -15 143 -15 c 0
 117 -15 88 -13 67 -12 c 1
386 405 m 1
 379 512 314 552 266 552 c 0
 212 552 167 508 167 436 c 0
 167 374 205 316 263 316 c 0
 286 316 354 325 386 405 c 1
EndSplineSet
EndChar

StartChar: colon
Encoding: 58 58 26
Width: 600
Flags: W
HStem: -16 21G<278 322.5> -16 170<279 321.5 279 322.5> 246 170<277.5 322>
VStem: 206 188<42 96.5 304.5 356>
LayerCount: 2
Fore
SplineSet
300 416 m 0xb0
 348 416 394 382 394 331 c 0
 394 278 344 246 300 246 c 0
 255 246 206 278 206 331 c 0
 206 381 251 416 300 416 c 0xb0
300 154 m 0x50
 343 154 394 124 394 69 c 0
 394 15 345 -16 300 -16 c 0
 256 -16 206 15 206 69 c 0
 206 124 258 154 300 154 c 0x50
EndSplineSet
EndChar

StartChar: semicolon
Encoding: 59 59 27
Width: 600
Flags: W
HStem: -105 274<245 267 159 389> 249 170<277 322.5>
VStem: 207 187<308 359>
LayerCount: 2
Fore
SplineSet
245 169 m 1
 389 169 l 1
 267 -105 l 1
 159 -105 l 1
 245 169 l 1
300 419 m 0x60
 347 419 394 387 394 334 c 0
 394 281 345 249 300 249 c 0
 254 249 207 282 207 334 c 0
 207 384 251 419 300 419 c 0x60
EndSplineSet
EndChar

StartChar: less
Encoding: 60 60 28
Width: 600
Flags: MW
HStem: 75 481<516 516>
VStem: 5 548<319 477>
LayerCount: 2
Fore
SplineSet
516 556 m 1
 553 477 l 1
 204 318 l 1
 552 155 l 1
 516 75 l 1
 5 319 l 1
 516 556 l 1
EndSplineSet
EndChar

StartChar: equal
Encoding: 61 61 29
Width: 600
Flags: MW
HStem: 181 88<54 546 54 546> 356 88<54 546 54 546>
VStem: 54 492<181 269 181 269 356 444 181 444>
LayerCount: 2
Fore
SplineSet
54 444 m 1
 546 444 l 1
 546 356 l 1
 54 356 l 1
 54 444 l 1
54 269 m 1
 546 269 l 1
 546 181 l 1
 54 181 l 1
 54 269 l 1
EndSplineSet
EndChar

StartChar: greater
Encoding: 62 62 30
Width: 600
Flags: MW
HStem: 457 20G<32 32>
VStem: 32 548<319 477>
LayerCount: 2
Fore
SplineSet
69 556 m 1
 580 319 l 1
 68 75 l 1
 33 155 l 1
 380 318 l 1
 32 477 l 1
 69 556 l 1
EndSplineSet
EndChar

StartChar: question
Encoding: 63 63 31
Width: 600
Flags: W
HStem: -16 158<242.5 291> 179 124<233 234 233 312 226 234> 505 87<283 318.5>
VStem: 107 87<420 488 420 553 420 553> 181 173<41.5 84> 226 86<179 235 179 301 179 301> 399 89<379 445.5>
LayerCount: 2
Fore
SplineSet
107 420 m 1xf6
 107 553 l 1
 114 555 116 556 136 563 c 0
 199 584 234 592 282 592 c 0
 416 592 488 507 488 414 c 0
 488 287 369 252 312 235 c 1
 312 179 l 1
 226 179 l 1
 226 301 l 1
 227 301 232 303 234 303 c 0
 242 305 253 308 261 309 c 0
 322 324 399 342 399 416 c 0
 399 475 344 505 293 505 c 0
 273 505 232 502 214 495 c 2
 194 488 l 1
 194 420 l 1
 107 420 l 1xf6
267 142 m 0x88
 315 142 354 107 354 63 c 0
 354 19 315 -16 267 -16 c 0
 218 -16 181 20 181 63 c 0
 181 105 217 142 267 142 c 0x88
EndSplineSet
EndChar

StartChar: at
Encoding: 64 64 32
Width: 600
Flags: MW
HStem: -12 68<210.5 334> 132 68<420.5 449 416 463> 380 70<293.5 317> 526 66<243.5 359.5>
VStem: 22 70<250 329.5 250 399.5> 160 71<233.5 267.5 233.5 288> 508 69<300 403.5>
LayerCount: 2
Fore
SplineSet
516 126 m 1
 547 66 l 1
 468 19 380 -12 288 -12 c 0
 133 -12 22 94 22 281 c 0
 22 518 178 592 309 592 c 0
 463 592 577 494 577 333 c 0
 577 201 501 132 425 132 c 0
 416 132 372 132 341 175 c 1
 298 130 258 129 248 129 c 0
 217 129 160 155 160 241 c 0
 160 335 228 450 316 450 c 0
 344 450 357 437 370 424 c 1
 375 445 l 1
 448 445 l 1
 402 276 l 2
 400 271 392 242 392 230 c 0
 392 218 405 200 427 200 c 0
 471 200 508 262 508 338 c 0
 508 469 412 526 307 526 c 0
 131 526 92 374 92 285 c 0
 92 215 116 56 292 56 c 0
 383 56 449 91 516 126 c 1
253 199 m 0
 294 199 336 284 336 340 c 0
 336 365 323 380 311 380 c 0
 276 380 231 297 231 238 c 0
 231 229 235 199 253 199 c 0
EndSplineSet
EndChar

StartChar: A
Encoding: 65 65 33
Width: 600
Flags: MW
HStem: 0 82<0 58 148 237 0 58 363 451 544 600> 180 82<221 380 221 412 187 380> 501 82<100 229 100 341>
VStem: 0 237<0 82 0 82> 363 237<0 82 0 82>
LayerCount: 2
Fore
SplineSet
100 583 m 1
 341 583 l 1
 544 82 l 1
 600 82 l 1
 600 0 l 1
 363 0 l 1
 363 82 l 1
 451 82 l 1
 412 180 l 1
 187 180 l 1
 148 82 l 1
 237 82 l 1
 237 0 l 1
 0 0 l 1
 0 82 l 1
 58 82 l 1
 229 501 l 1
 100 501 l 1
 100 583 l 1
380 262 m 1
 300 453 l 1
 221 262 l 1
 380 262 l 1
EndSplineSet
EndChar

StartChar: B
Encoding: 66 66 34
Width: 600
Flags: W
HStem: 0 82<34 115 202 307 307 309 34 115> 262 82<202 303 202 311> 501 82<34 115 34 318 202 202 202 316>
VStem: 115 87<82 262 344 501> 432 89<414.5 447.5 414.5 464.5> 466 90<127.5 213>
LayerCount: 2
Fore
SplineSet
34 583 m 1xf4
 318 583 l 2
 399 583 438 566 468 540 c 0
 500 512 521 472 521 423 c 0xf8
 521 406 521 350 467 309 c 1
 492 296 556 263 556 171 c 0
 556 0 384 0 309 0 c 2
 34 0 l 1
 34 82 l 1
 115 82 l 1
 115 501 l 1
 34 501 l 1
 34 583 l 1xf4
316 501 m 2
 202 501 l 1
 202 344 l 1
 311 344 l 2
 351 344 432 345 432 428 c 0
 432 501 340 501 316 501 c 2
303 262 m 2
 202 262 l 1
 202 82 l 1
 307 82 l 2
 400 82 466 89 466 166 c 0xf4
 466 260 351 262 303 262 c 2
EndSplineSet
EndChar

StartChar: C
Encoding: 67 67 35
Width: 600
Flags: W
HStem: -16 86<266.5 383.5 266.5 404.5> 514 86<280 350 254 387.5> 573 20G<465 548 548 548>
VStem: 52 92<241.5 369 241.5 395.5> 462 81
LayerCount: 2
Fore
SplineSet
553 178 m 1xd8
 611 114 l 1
 576 80 476 -16 333 -16 c 0
 156 -16 52 125 52 298 c 0
 52 493 194 600 314 600 c 0
 386 600 424 568 459 537 c 1xd8
 465 593 l 1
 548 593 l 1
 546 568 543 536 543 496 c 0xb8
 543 439 548 405 553 371 c 1
 470 360 l 1
 460 425 447 514 328 514 c 0
 232 514 144 439 144 299 c 0
 144 184 201 70 332 70 c 0
 435 70 511 139 553 178 c 1xd8
EndSplineSet
EndChar

StartChar: D
Encoding: 68 68 36
Width: 600
Flags: MW
HStem: 0 82<23 100 187 281 23 100> 501 82<23 100 23 284 187 187 187 284 284 285>
VStem: 100 87<82 501 82 501> 469 92<258 320 239.5 332.5>
LayerCount: 2
Fore
SplineSet
23 583 m 1
 284 583 l 2
 369 583 439 577 498 503 c 0
 558 428 561 339 561 301 c 0
 561 178 518 102 476 61 c 0
 412 -1 319 0 281 0 c 2
 23 0 l 1
 23 82 l 1
 100 82 l 1
 100 501 l 1
 23 501 l 1
 23 583 l 1
285 501 m 2
 187 501 l 1
 187 82 l 1
 281 82 l 2
 313 82 371 82 412 123 c 0
 445 156 469 216 469 300 c 0
 469 365 453 412 430 445 c 0
 395 496 356 501 285 501 c 2
EndSplineSet
EndChar

StartChar: E
Encoding: 69 69 37
Width: 600
Flags: W
HStem: 0 82<45 128 215 465 45 128> 195 22 266 82<215 333 215 333> 367 53<333 548 333 465> 501 82<45 128 45 543 215 456 215 215>
VStem: 128 87<82 266 348 501> 333 83<195 266 266 266 348 420 195 420> 460.5 85 467.5 85.5
LayerCount: 2
Fore
SplineSet
45 583 m 1xee80
 543 583 l 1
 548 367 l 1
 465 367 l 1xff
 456 501 l 1
 215 501 l 1
 215 348 l 1
 333 348 l 1xef
 333 420 l 1
 416 420 l 1xfe80
 416 195 l 1
 333 195 l 1
 333 266 l 1
 215 266 l 1
 215 82 l 1
 465 82 l 1
 470 217 l 1
 553 217 l 1
 553 0 l 1
 45 0 l 1
 45 82 l 1
 128 82 l 1
 128 501 l 1
 45 501 l 1
 45 583 l 1xee80
EndSplineSet
EndChar

StartChar: F
Encoding: 70 70 38
Width: 600
Flags: W
HStem: 0 82<62 138 225 352 62 138> 266 82<225 343 225 343> 368 52<343 558 343 477> 501 82<62 138 62 552 225 465 225 225>
VStem: 138 87<82 266 348 501> 343 83<195 266 266 266 348 420 195 420> 471 84
LayerCount: 2
Fore
SplineSet
62 583 m 1
 552 583 l 1
 558 368 l 1
 477 368 l 1xfe
 465 501 l 1
 225 501 l 1
 225 348 l 1
 343 348 l 1xde
 343 420 l 1
 426 420 l 1xfe
 426 195 l 1
 343 195 l 1
 343 266 l 1
 225 266 l 1
 225 82 l 1
 352 82 l 1
 352 0 l 1
 62 0 l 1
 62 82 l 1
 138 82 l 1
 138 501 l 1
 62 501 l 1
 62 583 l 1
EndSplineSet
EndChar

StartChar: G
Encoding: 71 71 39
Width: 600
Flags: W
HStem: -16 86<258 329.5 258 369.5> 196 82<310 454 310 588 541 541 541 588> 514 86<260.5 322 233.5 373> 573 20G<450 530 530 530>
VStem: 37 92<227.5 359 227.5 380.5> 447 79 454 87<97 196 37 196>
LayerCount: 2
Fore
SplineSet
450 593 m 1xfe
 530 593 l 1
 528 568 526 536 526 495 c 0
 526 431 533 396 538 371 c 1xdc
 454 360 l 1
 447 417 434 514 312 514 c 0
 209 514 129 428 129 290 c 0
 129 165 192 70 324 70 c 0
 335 70 385 71 454 97 c 1
 454 196 l 1
 310 196 l 1
 310 278 l 1
 588 278 l 1
 588 196 l 1
 541 196 l 1
 541 37 l 1xea
 497 18 416 -16 323 -16 c 0
 126 -16 37 138 37 289 c 0
 37 472 161 600 306 600 c 0
 338 600 397 591 444 538 c 1xec
 450 593 l 1xfe
EndSplineSet
EndChar

StartChar: H
Encoding: 72 72 40
Width: 600
Flags: MW
HStem: 0 82<28 101 188 260 28 101 340 412 499 572> 260 82<188 412 188 412> 501 82<28 101 28 260 188 260 188 188 28 340 340 412 499 499 499 572>
VStem: 101 87<82 260 342 501> 412 87<82 260 260 260 342 501 82 501>
LayerCount: 2
Fore
SplineSet
28 583 m 1
 260 583 l 1
 260 501 l 1
 188 501 l 1
 188 342 l 1
 412 342 l 1
 412 501 l 1
 340 501 l 1
 340 583 l 1
 572 583 l 1
 572 501 l 1
 499 501 l 1
 499 82 l 1
 572 82 l 1
 572 0 l 1
 340 0 l 1
 340 82 l 1
 412 82 l 1
 412 260 l 1
 188 260 l 1
 188 82 l 1
 260 82 l 1
 260 0 l 1
 28 0 l 1
 28 82 l 1
 101 82 l 1
 101 501 l 1
 28 501 l 1
 28 583 l 1
EndSplineSet
EndChar

StartChar: I
Encoding: 73 73 41
Width: 600
Flags: MW
HStem: 0 82<88 257 344 513 88 257> 501 82<88 257 88 513 344 513 344 344>
VStem: 257 87<82 501 82 501>
LayerCount: 2
Fore
SplineSet
88 583 m 1
 513 583 l 1
 513 501 l 1
 344 501 l 1
 344 82 l 1
 513 82 l 1
 513 0 l 1
 88 0 l 1
 88 82 l 1
 257 82 l 1
 257 501 l 1
 88 501 l 1
 88 583 l 1
EndSplineSet
EndChar

StartChar: J
Encoding: 74 74 42
Width: 600
Flags: MW
HStem: -16 86<263.5 291> 501 82<189 379 189 590 466 590 466 466>
VStem: 52 83.5 379 87<217 501>
LayerCount: 2
Fore
SplineSet
189 583 m 1
 590 583 l 1
 590 501 l 1
 466 501 l 1
 466 217 l 2
 466 164 465 100 435 55 c 0
 389 -14 301 -16 281 -16 c 0
 230 -16 158 -5 57 49 c 1
 47 294 l 1
 133 294 l 1
 138 181 l 2
 140 135 147 112 181 93 c 0
 211 76 249 70 278 70 c 0
 377 70 379 135 379 217 c 2
 379 501 l 1
 189 501 l 1
 189 583 l 1
EndSplineSet
EndChar

StartChar: K
Encoding: 75 75 43
Width: 600
Flags: MW
HStem: 0 82<48 130 217 299 48 130 502 598> 501 82<48 130 48 299 217 299 217 217 48 342 342 402 515 515 515 570>
VStem: 130 87<82 210 321 501> 342 228<501 583 501 583>
LayerCount: 2
Fore
SplineSet
48 583 m 1
 299 583 l 1
 299 501 l 1
 217 501 l 1
 217 321 l 1
 402 501 l 1
 342 501 l 1
 342 583 l 1
 570 583 l 1
 570 501 l 1
 515 501 l 1
 330 318 l 1
 415 264 457 176 502 82 c 1
 598 82 l 1
 598 0 l 1
 441 0 l 1
 392 127 340 215 268 258 c 1
 217 210 l 1
 217 82 l 1
 299 82 l 1
 299 0 l 1
 48 0 l 1
 48 82 l 1
 130 82 l 1
 130 501 l 1
 48 501 l 1
 48 583 l 1
EndSplineSet
EndChar

StartChar: L
Encoding: 76 76 44
Width: 600
Flags: MW
HStem: 0 82<48 144 231 467 48 144> 501 82<48 144 48 351 231 351 231 231>
VStem: 144 87<82 501 82 501> 473.5 85
LayerCount: 2
Fore
SplineSet
48 583 m 1
 351 583 l 1
 351 501 l 1
 231 501 l 1
 231 82 l 1
 467 82 l 1
 480 280 l 1
 565 280 l 1
 552 0 l 1
 48 0 l 1
 48 82 l 1
 144 82 l 1
 144 501 l 1
 48 501 l 1
 48 583 l 1
EndSplineSet
EndChar

StartChar: M
Encoding: 77 77 45
Width: 600
Flags: MW
HStem: 0 82<3 61 145 250 3 61 351 456 540 598> 154 135<294 312 294 344 256 312> 501 82<3 67 3 195 534 596 534 534>
VStem: 64 83.5 453.5 83.5
LayerCount: 2
Fore
SplineSet
294 289 m 1
 312 289 l 1
 404 583 l 1
 596 583 l 1
 596 501 l 1
 534 501 l 1
 540 82 l 1
 598 82 l 1
 598 0 l 1
 351 0 l 1
 351 82 l 1
 456 82 l 1
 451 438 l 1
 439 438 l 1
 344 154 l 1
 256 154 l 1
 162 438 l 1
 150 438 l 1
 145 82 l 1
 250 82 l 1
 250 0 l 1
 3 0 l 1
 3 82 l 1
 61 82 l 1
 67 501 l 1
 3 501 l 1
 3 583 l 1
 195 583 l 1
 294 289 l 1
EndSplineSet
EndChar

StartChar: N
Encoding: 78 78 46
Width: 600
Flags: W
HStem: -12 162<430 447 430 527 420 447> 0 82<5 83 163 264 5 83> 501 82<5 83 5 196 347 447 527 527 527 594>
VStem: 83 80<82 428 82 501 82 501> 447 80<150 501 -12 501>
LayerCount: 2
Fore
SplineSet
5 583 m 1x78
 196 583 l 1
 430 150 l 1
 447 150 l 1
 447 501 l 1
 347 501 l 1
 347 583 l 1
 594 583 l 1
 594 501 l 1
 527 501 l 1
 527 -12 l 1
 420 -12 l 1xb8
 181 428 l 1
 163 428 l 1
 163 82 l 1
 264 82 l 1
 264 0 l 1
 5 0 l 1
 5 82 l 1
 83 82 l 1
 83 501 l 1
 5 501 l 1
 5 583 l 1x78
EndSplineSet
EndChar

StartChar: O
Encoding: 79 79 47
Width: 600
Flags: MW
HStem: -16 86<245 355.5 245 381> 514 86<244.5 357>
VStem: 32 92<233.5 350 233.5 375.5> 476 92<233 348>
LayerCount: 2
Fore
SplineSet
32 291 m 0
 32 460 137 600 300 600 c 0
 463 600 568 461 568 292 c 0
 568 122 462 -16 300 -16 c 0
 139 -16 32 121 32 291 c 0
124 292 m 0
 124 175 190 70 300 70 c 0
 411 70 476 174 476 292 c 0
 476 404 414 514 300 514 c 0
 189 514 124 408 124 292 c 0
EndSplineSet
EndChar

StartChar: P
Encoding: 80 80 48
Width: 600
Flags: MW
HStem: 0 82<81 158 245 387 81 158> 213 82<245 280 245 281> 501 82<81 158 81 320 245 245 245 320 320 321>
VStem: 158 87<82 213 82 295 295 501> 474 92<375.5 417.5>
LayerCount: 2
Fore
SplineSet
81 583 m 1
 320 583 l 2
 391 583 433 577 472 555 c 0
 527 524 566 460 566 394 c 0
 566 335 533 272 487 246 c 0
 433 215 397 213 280 213 c 2
 245 213 l 1
 245 82 l 1
 387 82 l 1
 387 0 l 1
 81 0 l 1
 81 82 l 1
 158 82 l 1
 158 501 l 1
 81 501 l 1
 81 583 l 1
321 501 m 2
 245 501 l 1
 245 295 l 1
 281 295 l 2
 387 295 410 303 434 316 c 0
 449 324 474 354 474 397 c 0
 474 438 451 471 427 484 c 0
 407 495 387 501 321 501 c 2
EndSplineSet
EndChar

StartChar: Q
Encoding: 81 81 49
Width: 600
Flags: W
HStem: -119 81<427.5 451 427.5 467> -78 151<264.5 294> -4 21G<341 341> -4 77<251.5 341> 514 86<269.5 322.5>
VStem: 33 92<259 383.5 218 392> 475 92<184 387.5>
LayerCount: 2
Fore
SplineSet
515 -3 m 1xae
 567 -67 l 1
 558 -73 l 2
 525 -95 492 -119 442 -119 c 0x9e
 408 -119 385 -110 351 -95 c 0
 319 -81 304 -78 284 -78 c 0
 245 -78 225 -89 171 -120 c 0
 170 -121 164 -124 163 -125 c 1
 121 -53 l 1
 155 -33 163 -28 197 8 c 1x4e
 167 22 136 36 103 77 c 0
 49 144 33 223 33 295 c 0
 33 489 159 600 299 600 c 0
 444 600 567 485 567 291 c 0
 567 42 386 -2 341 -4 c 1
 341 -6 l 1xae
 354 -6 l 1x4e
 377 -25 416 -38 439 -38 c 0
 463 -38 491 -21 515 -3 c 1xae
296 73 m 0
 324 73 475 78 475 290 c 0
 475 485 346 514 299 514 c 0
 240 514 125 472 125 295 c 0
 125 141 207 73 296 73 c 0
EndSplineSet
EndChar

StartChar: R
Encoding: 82 82 50
Width: 600
Flags: MW
HStem: 0 82<35 113 200 287 35 113 494 588> 249 82<200 251 200 274> 501 82<35 113 35 302 200 200 200 302>
VStem: 113 87<82 249 82 331 331 501> 419 92<409 445.5 409 455>
LayerCount: 2
Fore
SplineSet
35 583 m 1
 302 583 l 2
 364 583 405 581 445 553 c 0
 484 526 511 472 511 419 c 0
 511 399 510 297 382 259 c 1
 406 226 426 197 494 82 c 1
 588 82 l 1
 588 0 l 1
 434 0 l 1
 395 85 339 171 337 174 c 0
 295 237 283 249 251 249 c 2
 200 249 l 1
 200 82 l 1
 287 82 l 1
 287 0 l 1
 35 0 l 1
 35 82 l 1
 113 82 l 1
 113 501 l 1
 35 501 l 1
 35 583 l 1
302 501 m 2
 200 501 l 1
 200 331 l 1
 274 331 l 2
 308 331 419 325 419 422 c 0
 419 488 374 501 302 501 c 2
EndSplineSet
EndChar

StartChar: S
Encoding: 83 83 51
Width: 600
Flags: W
HStem: -16 86<274.5 331.5 253.5 373.5> 514 86<258 331 241.5 362.5> 573 20G<435 515 515 515>
VStem: 85 90<382 438 382 468.5> 94 82 431 80 435 90<129.5 195>
LayerCount: 2
Fore
SplineSet
435 593 m 1xf2
 515 593 l 1
 513 571 511 542 511 507 c 0xb4
 511 465 515 419 517 395 c 0
 518 392 519 374 519 371 c 2
 440 360 l 1
 433 414 421 514 304 514 c 0
 212 514 175 459 175 417 c 0xd4
 175 347 264 338 307 333 c 0
 374 325 414 322 454 296 c 0
 490 273 525 231 525 166 c 0
 525 63 432 -16 315 -16 c 0
 234 -16 204 15 180 41 c 1
 172 -19 l 1
 91 -19 l 1
 93 1 94 15 94 48 c 0
 94 109 89 176 86 208 c 1
 166 208 l 1xca
 173 133 205 70 302 70 c 0
 361 70 435 95 435 164 c 0
 435 226 378 238 317 244 c 0
 247 251 85 267 85 415 c 0
 85 522 192 600 291 600 c 0
 371 600 412 553 427 537 c 1xd2
 435 593 l 1xf2
EndSplineSet
EndChar

StartChar: T
Encoding: 84 84 52
Width: 600
Flags: MW
HStem: 0 82<141 257 344 462 141 257> 501 82<130 257 130 130 344 471 344 344>
VStem: 40.5 83 257 87<82 501 82 501> 477.5 83
LayerCount: 2
Fore
SplineSet
50 583 m 1
 551 583 l 1
 570 319 l 1
 484 307 l 1
 471 501 l 1
 344 501 l 1
 344 82 l 1
 462 82 l 1
 462 0 l 1
 141 0 l 1
 141 82 l 1
 257 82 l 1
 257 501 l 1
 130 501 l 1
 117 307 l 1
 31 319 l 1
 50 583 l 1
EndSplineSet
EndChar

StartChar: U
Encoding: 85 85 53
Width: 600
Flags: MW
HStem: -16 86<271.5 345.5> 501 82<15 84 15 269 171 269 171 171 15 331 331 429 516 516 516 585>
VStem: 84 87<246 501> 429 87<246 501>
LayerCount: 2
Fore
SplineSet
15 583 m 1
 269 583 l 1
 269 501 l 1
 171 501 l 1
 171 246 l 2
 171 161 174 70 300 70 c 0
 426 70 429 161 429 246 c 2
 429 501 l 1
 331 501 l 1
 331 583 l 1
 585 583 l 1
 585 501 l 1
 516 501 l 1
 516 246 l 2
 516 204 518 123 480 68 c 0
 435 2 391 -16 300 -16 c 0
 243 -16 164 3 120 68 c 0
 84 121 84 204 84 246 c 2
 84 501 l 1
 15 501 l 1
 15 583 l 1
EndSplineSet
EndChar

StartChar: V
Encoding: 86 86 54
Width: 600
Flags: W
HStem: 0 21G<259 345 259 259> 501 82<0 72 0 246 164 164 164 246 355 445 534 534 534 600>
VStem: 0 246<501 583 501 583> 0 600<501 583 501 583> 355 245<501 583 501 583>
LayerCount: 2
Fore
SplineSet
303 124 m 1xf8
 445 501 l 1
 355 501 l 1
 355 583 l 1
 600 583 l 1
 600 501 l 1
 534 501 l 1
 345 0 l 1
 259 0 l 1
 72 501 l 1
 0 501 l 1
 0 583 l 1
 246 583 l 1
 246 501 l 1
 164 501 l 1
 303 124 l 1xf8
EndSplineSet
EndChar

StartChar: W
Encoding: 87 87 55
Width: 600
Flags: MW
HStem: 0 21G<108 187 108 108 409 488 409 409> 440 20G<272 332 332 332> 501 82<0 48 0 230 134 230 134 134 372 469 553 553 553 600>
VStem: 0 230<501 583 501 583> 372 228<501 583 501 583>
LayerCount: 2
Fore
SplineSet
0 583 m 1
 230 583 l 1
 230 501 l 1
 134 501 l 1
 168 196 l 1
 170 196 l 1
 272 460 l 1
 332 460 l 1
 431 196 l 1
 433 196 l 1
 469 501 l 1
 372 501 l 1
 372 583 l 1
 600 583 l 1
 600 501 l 1
 553 501 l 1
 488 0 l 1
 409 0 l 1
 297 307 l 1
 295 307 l 1
 187 0 l 1
 108 0 l 1
 48 501 l 1
 0 501 l 1
 0 583 l 1
EndSplineSet
EndChar

StartChar: X
Encoding: 88 88 56
Width: 600
Flags: W
HStem: 0 82<22 81 185 267 22 81 343 411 518 578> 237 21G<301 301> 501 82<41 102 41 267 208 267 208 208 41 343 343 396 500 500 500 559>
VStem: 22 245<0 82 0 82> 41 226<501 583> 343 216<501 583 501 583> 343 235<0 82 0 82>
LayerCount: 2
Fore
SplineSet
41 583 m 1xec
 267 583 l 1
 267 501 l 1
 208 501 l 1
 301 371 l 1
 396 501 l 1
 343 501 l 1
 343 583 l 1
 559 583 l 1
 559 501 l 1
 500 501 l 1xec
 352 305 l 1
 518 82 l 1
 578 82 l 1
 578 0 l 1
 343 0 l 1
 343 82 l 1
 411 82 l 1
 301 237 l 1
 185 82 l 1
 267 82 l 1
 267 0 l 1
 22 0 l 1
 22 82 l 1
 81 82 l 1xf2
 249 305 l 1
 102 501 l 1
 41 501 l 1
 41 583 l 1xec
EndSplineSet
EndChar

StartChar: Y
Encoding: 89 89 57
Width: 600
Flags: W
HStem: 0 82<142 258 344 458 142 258> 501 82<21 91 21 250 192 250 192 192 352 412 509 509 509 579>
VStem: 21 229<501 583 501 583> 258 86<82 224 82 224> 352 227<501 583 501 583>
LayerCount: 2
Fore
SplineSet
21 583 m 1
 250 583 l 1
 250 501 l 1
 192 501 l 1
 303 316 l 1
 412 501 l 1
 352 501 l 1
 352 583 l 1
 579 583 l 1
 579 501 l 1
 509 501 l 1xf8
 344 224 l 1
 344 82 l 1
 458 82 l 1
 458 0 l 1
 142 0 l 1
 142 82 l 1
 258 82 l 1
 258 224 l 1xd0
 91 501 l 1
 21 501 l 1
 21 583 l 1
EndSplineSet
EndChar

StartChar: Z
Encoding: 90 90 58
Width: 600
Flags: MW
HStem: 0 82<188 441 188 528> 501 82<165 386 165 165>
VStem: 78 87<358 501 358 583 358 583> 441 87<82 240 0 240>
LayerCount: 2
Fore
SplineSet
78 583 m 1
 506 583 l 1
 506 517 l 1
 188 82 l 1
 441 82 l 1
 441 240 l 1
 528 240 l 1
 528 0 l 1
 72 0 l 1
 72 70 l 1
 386 501 l 1
 165 501 l 1
 165 358 l 1
 78 358 l 1
 78 583 l 1
EndSplineSet
EndChar

StartChar: bracketleft
Encoding: 91 91 59
Width: 600
Flags: MW
HStem: -91 87<377 498 377 498> 583 89<377 498 377 377>
VStem: 290 87<-4 583 -4 672>
LayerCount: 2
Fore
SplineSet
290 672 m 1
 498 672 l 1
 498 583 l 1
 377 583 l 1
 377 -4 l 1
 498 -4 l 1
 498 -91 l 1
 290 -91 l 1
 290 672 l 1
EndSplineSet
EndChar

StartChar: backslash
Encoding: 92 92 60
Width: 600
Flags: MW
HStem: -139 866<149 450>
VStem: 72 456
LayerCount: 2
Fore
SplineSet
149 727 m 1
 528 -104 l 1
 450 -139 l 1
 72 693 l 1
 149 727 l 1
EndSplineSet
EndChar

StartChar: bracketright
Encoding: 93 93 61
Width: 600
Flags: MW
HStem: -91 87<102 223 102 310 102 223> 583 89<102 223 102 310>
VStem: 223 87<-4 583 583 583>
LayerCount: 2
Fore
SplineSet
310 -91 m 1
 102 -91 l 1
 102 -4 l 1
 223 -4 l 1
 223 583 l 1
 102 583 l 1
 102 672 l 1
 310 672 l 1
 310 -91 l 1
EndSplineSet
EndChar

StartChar: asciicircum
Encoding: 94 94 62
Width: 600
Flags: W
HStem: 481 102<297 297> 563 20G<230 364 364 364>
VStem: 63 474<153 153>
LayerCount: 2
Fore
SplineSet
537 153 m 1x60
 430 153 l 1
 297 481 l 1xa0
 170 153 l 1
 63 153 l 1
 230 583 l 1
 364 583 l 1
 537 153 l 1x60
EndSplineSet
EndChar

StartChar: underscore
Encoding: 95 95 63
Width: 600
Flags: MW
HStem: -125 50<-48 648 -48 648>
VStem: -48 696<-125 -75 -125 -75>
LayerCount: 2
Fore
SplineSet
-48 -75 m 1
 648 -75 l 1
 648 -125 l 1
 -48 -125 l 1
 -48 -75 l 1
EndSplineSet
EndChar

StartChar: quoteleft
Encoding: 96 8216 64
Width: 600
Flags: W
HStem: 309 274<275 297 153 383> 563 20G<275 383 383 383>
VStem: 153 230
LayerCount: 2
Fore
SplineSet
297 309 m 1xe0
 153 309 l 1
 275 583 l 1
 383 583 l 1
 297 309 l 1xe0
EndSplineSet
EndChar

StartChar: a
Encoding: 97 97 65
Width: 600
Flags: W
HStem: -14 86<200.5 232 200.5 263> 0 82<475 561 475 561> 225 82<213.5 296.5 186 303.5> 388 86<255 339.5>
VStem: 48 90<122.5 147 122.5 172.5> 388 87<0 307 48 307 162 214 214 214 299 307 82 316.5>
LayerCount: 2
Fore
SplineSet
475 307 m 2x7c
 475 82 l 1
 561 82 l 1
 561 0 l 1
 388 0 l 1x7c
 388 48 l 1
 355 24 303 -14 223 -14 c 0xbc
 117 -14 48 64 48 142 c 0
 48 203 98 307 274 307 c 0
 319 307 352 303 388 299 c 1
 388 334 389 388 290 388 c 0
 220 388 152 358 115 342 c 1
 81 422 l 1
 142 447 210 474 291 474 c 0
 419 474 475 410 475 307 c 2x7c
388 162 m 1xbc
 388 214 l 1
 353 219 323 225 284 225 c 0
 143 225 138 153 138 141 c 0
 138 104 179 72 222 72 c 0
 242 72 311 76 388 162 c 1xbc
EndSplineSet
EndChar

StartChar: b
Encoding: 98 98 66
Width: 600
Flags: W
HStem: -10 86<306 362 277.5 390> 0 82<6 83 6 170 6 83> 371 86<289 359.5> 555 93
VStem: 83 87<184.5 263 402 557 557 557> 462 92<183.5 263.5>
LayerCount: 2
Fore
SplineSet
0 638 m 1x7c
 170 648 l 1
 170 402 l 1
 214 438 261 457 317 457 c 0
 447 457 554 352 554 223 c 0
 554 106 459 -10 321 -10 c 0
 291 -10 233 -6 170 44 c 1xbc
 170 0 l 1
 6 0 l 1
 6 82 l 1
 83 82 l 1
 83 557 l 1
 6 553 l 1
 0 638 l 1x7c
170 224 m 0
 170 145 235 76 320 76 c 0
 404 76 462 144 462 223 c 0
 462 304 400 371 319 371 c 0
 236 371 170 302 170 224 c 0
EndSplineSet
EndChar

StartChar: c
Encoding: 99 99 67
Width: 600
Flags: W
HStem: -14 86<252 348.5 252 365> 381 86<246 328 224 374> 439 20G<532 532>
VStem: 59 92<193 248.5 193 284.5> 449.5 76.5
LayerCount: 2
Fore
SplineSet
454 467 m 1xd8
 532 459 l 1
 529 432 526 395 526 359 c 0xb8
 526 320 529 294 532 271 c 1
 448 260 l 1
 439 322 431 381 317 381 c 0
 175 381 151 270 151 227 c 0
 151 159 194 72 310 72 c 0
 387 72 461 122 519 163 c 1
 567 95 l 1
 520 59 424 -14 306 -14 c 0
 161 -14 59 91 59 226 c 0
 59 343 145 467 303 467 c 0
 353 467 394 455 445 412 c 1
 454 467 l 1xd8
EndSplineSet
EndChar

StartChar: d
Encoding: 100 100 68
Width: 600
Flags: W
HStem: -10 86<239.5 291> 0 82<510 591 510 591> 371 86<240.5 299.5 217 326> 607 20G<271 271> 628 20G<510 510>
VStem: 44 92<181.5 269.5 181.5 294> 423 87<0 648 42 648 405 554 554 554>
LayerCount: 2
Fore
SplineSet
271 627 m 1xfe
 510 648 l 1
 510 82 l 1
 591 82 l 1
 591 0 l 1
 423 0 l 1x6e
 423 42 l 1
 368 -5 305 -10 277 -10 c 0
 145 -10 44 99 44 224 c 0
 44 364 159 457 275 457 c 0
 324 457 380 439 423 405 c 1
 423 554 l 1
 262 542 l 1
 271 627 l 1xfe
421 223 m 0
 421 288 374 371 278 371 c 0
 203 371 136 314 136 225 c 0
 136 138 201 76 278 76 c 0xae
 353 76 421 137 421 223 c 0
EndSplineSet
EndChar

StartChar: e
Encoding: 101 101 69
Width: 600
Flags: MW
HStem: -14 86<250 356> 194 82<159 456 159 545 153 456> 381 86<255.5 325>
VStem: 61 92<194 194 194 288.5> 456 92<276 276>
LayerCount: 2
Fore
SplineSet
536 144 m 1
 576 67 l 1
 486 15 395 -14 317 -14 c 0
 149 -14 61 98 61 224 c 0
 61 353 156 467 310 467 c 0
 468 467 548 353 548 255 c 0
 548 232 546 203 545 194 c 1
 153 194 l 1
 162 158 185 72 315 72 c 0
 398 72 482 112 536 144 c 1
159 276 m 1
 456 276 l 1
 429 379 339 381 311 381 c 0
 200 381 169 303 159 276 c 1
EndSplineSet
EndChar

StartChar: f
Encoding: 102 102 70
Width: 600
Flags: W
HStem: 0 82<84 185 272 478 84 185> 361 82<84 185 84 185 272 478> 557 86<307.5 356> 623 20G<274 389>
VStem: 185 87<82 361 82 361 443 477>
LayerCount: 2
Fore
SplineSet
84 443 m 1xe8
 185 443 l 1
 185 478 l 2
 185 550 192 643 356 643 c 0xe8
 422 643 491 631 521 626 c 1xd8
 486 540 l 1
 415 555 367 557 345 557 c 0
 270 557 272 530 272 477 c 2
 272 443 l 1
 478 443 l 1
 478 361 l 1
 272 361 l 1
 272 82 l 1
 478 82 l 1
 478 0 l 1
 84 0 l 1
 84 82 l 1
 185 82 l 1
 185 361 l 1
 84 361 l 1
 84 443 l 1xe8
EndSplineSet
EndChar

StartChar: g
Encoding: 103 103 71
Width: 600
Flags: W
HStem: -152 82<162 229.5 162 266 162 229.5> 8 86<226.5 299.5> 371 82<485 564 485 485> 371 86<230 281 203 300>
VStem: 36 92<194.5 273.5 194.5 297> 398 87<31 45 45 57 195.5 272.5>
LayerCount: 2
Fore
SplineSet
398 453 m 1xec
 564 453 l 1
 564 371 l 1
 485 371 l 1xec
 485 45 l 2
 485 -116 393 -152 266 -152 c 2
 162 -152 l 1
 162 -70 l 1
 297 -70 321 -67 343 -59 c 0
 398 -39 398 5 398 57 c 1
 381 43 338 8 261 8 c 0
 134 8 36 111 36 232 c 0
 36 362 144 457 262 457 c 0
 300 457 355 444 398 410 c 1xdc
 398 453 l 1xec
398 231 m 0
 398 314 335 371 265 371 c 0
 195 371 128 314 128 233 c 0
 128 156 189 94 264 94 c 0
 343 94 398 160 398 231 c 0
EndSplineSet
EndChar

StartChar: h
Encoding: 104 104 72
Width: 600
Flags: MW
HStem: 0 82<26 109 196 272 26 109 334 418 505 586> 381 86<329.5 369.5> 553 95
VStem: 109 87<82 313 411 556 556 556> 418 87<82 284 284 288 82 308.5>
LayerCount: 2
Fore
SplineSet
12 634 m 1
 196 648 l 1
 196 411 l 1
 227 433 275 467 341 467 c 0
 440 467 505 393 505 288 c 2
 505 82 l 1
 586 82 l 1
 586 0 l 1
 334 0 l 1
 334 82 l 1
 418 82 l 1
 418 284 l 2
 418 333 396 381 343 381 c 0
 316 381 275 372 196 313 c 1
 196 82 l 1
 272 82 l 1
 272 0 l 1
 26 0 l 1
 26 82 l 1
 109 82 l 1
 109 556 l 1
 19 550 l 1
 12 634 l 1
EndSplineSet
EndChar

StartChar: i
Encoding: 105 105 73
Width: 600
Flags: W
HStem: 0 82<88 258 345 512 88 258> 371 82<115 258 115 345> 540 132<239 345 239 345>
VStem: 239 106<540 672> 258 87<82 371 371 371>
LayerCount: 2
Fore
SplineSet
115 453 m 1xe8
 345 453 l 1
 345 82 l 1
 512 82 l 1
 512 0 l 1
 88 0 l 1
 88 82 l 1
 258 82 l 1
 258 371 l 1
 115 371 l 1
 115 453 l 1xe8
239 540 m 1x30
 239 672 l 1
 345 672 l 1
 345 540 l 1
 239 540 l 1x30
EndSplineSet
EndChar

StartChar: j
Encoding: 106 106 74
Width: 600
Flags: W
HStem: -146 86<183.5 263 183.5 307> 371 82<72 320 72 407> 540 132<282 388 282 388>
VStem: 282 106<540 672 540 672> 320 87<63 371 371 371>
LayerCount: 2
Fore
SplineSet
72 453 m 1xe8
 407 453 l 1
 407 59 l 2
 407 9 407 -146 207 -146 c 0
 147 -146 94 -134 52 -125 c 1
 72 -41 l 1
 113 -49 159 -60 208 -60 c 0
 318 -60 320 7 320 63 c 2
 320 371 l 1
 72 371 l 1
 72 453 l 1xe8
282 540 m 1x30
 282 672 l 1
 388 672 l 1
 388 540 l 1
 282 540 l 1x30
EndSplineSet
EndChar

StartChar: k
Encoding: 107 107 75
Width: 600
Flags: W
HStem: 0 82<42 122 42 209 42 122 334 371 482 573> 371 82<290 335 290 537 471 471 471 537> 552 96
VStem: 122 87<82 187 291 556 556 556> 290 247<371 453 371 453> 334 239<0 82 0 82>
LayerCount: 2
Fore
SplineSet
24 632 m 1xf4
 209 648 l 1
 209 291 l 1
 335 369 l 1
 335 371 l 1
 290 371 l 1
 290 453 l 1
 537 453 l 1
 537 371 l 1
 471 371 l 1xf8
 311 263 l 1
 342 237 397 181 482 82 c 1
 573 82 l 1
 573 0 l 1
 334 0 l 1
 334 82 l 1
 371 82 l 1
 340 117 264 192 242 212 c 1
 209 187 l 1
 209 0 l 1
 42 0 l 1
 42 82 l 1
 122 82 l 1
 122 556 l 1
 32 548 l 1
 24 632 l 1xf4
EndSplineSet
EndChar

StartChar: l
Encoding: 108 108 76
Width: 600
Flags: W
HStem: 0 82<88 256 343 511 88 256> 553 95 628 20G<343 343>
VStem: 256 87<82 558 558 558>
LayerCount: 2
Fore
SplineSet
92 631 m 1xf0
 343 648 l 1
 343 82 l 1
 511 82 l 1
 511 0 l 1
 88 0 l 1
 88 82 l 1
 256 82 l 1
 256 558 l 1
 100 548 l 1xd0
 92 631 l 1xf0
EndSplineSet
EndChar

StartChar: m
Encoding: 109 109 77
Width: 600
Flags: W
HStem: 0 82<0 57 144 213 0 57 349 408 554 600> 371 82<0 57 0 143> 381 86<215.5 240 406 445>
VStem: 57 87<82 338 82 371 82 371> 262 87<82 286 286 304.5> 467 87<82 282 82 282 82 311>
LayerCount: 2
Fore
SplineSet
0 453 m 1xdc
 143 453 l 1xdc
 143 420 l 1
 160 435 192 467 239 467 c 0
 290 467 313 431 321 420 c 1
 344 439 376 467 427 467 c 0
 553 467 554 334 554 282 c 2
 554 82 l 1
 600 82 l 1
 600 0 l 1
 467 0 l 1
 467 282 l 2
 467 340 467 381 423 381 c 0
 389 381 368 352 349 329 c 1
 349 82 l 1
 408 82 l 1
 408 0 l 1
 262 0 l 1
 262 286 l 2
 262 323 262 381 218 381 c 0
 190 381 167 360 144 338 c 1xbc
 144 82 l 1
 213 82 l 1
 213 0 l 1
 0 0 l 1
 0 82 l 1
 57 82 l 1
 57 371 l 1
 0 371 l 1
 0 453 l 1xdc
EndSplineSet
EndChar

StartChar: n
Encoding: 110 110 78
Width: 600
Flags: W
HStem: 0 82<21 104 191 267 21 104 329 413 500 581> 371 82<23 104 23 191> 381 86<310 362.5>
VStem: 104 87<82 313 82 371 82 371> 413 87<82 283 283 287 82 310>
LayerCount: 2
Fore
SplineSet
23 453 m 1xd8
 191 453 l 1xd8
 191 411 l 1
 224 434 271 467 336 467 c 0
 436 467 500 392 500 287 c 2
 500 82 l 1
 581 82 l 1
 581 0 l 1
 329 0 l 1
 329 82 l 1
 413 82 l 1
 413 283 l 2
 413 337 387 381 338 381 c 0
 282 381 234 344 191 313 c 1xb8
 191 82 l 1
 267 82 l 1
 267 0 l 1
 21 0 l 1
 21 82 l 1
 104 82 l 1
 104 371 l 1
 23 371 l 1
 23 453 l 1xd8
EndSplineSet
EndChar

StartChar: o
Encoding: 111 111 79
Width: 600
Flags: MW
HStem: -14 86<245 356.5 245 387> 388 86<245 356.5>
VStem: 41 92<189.5 271 189.5 296> 467 92<191 269>
LayerCount: 2
Fore
SplineSet
41 230 m 0
 41 362 138 474 300 474 c 0
 468 474 559 356 559 230 c 0
 559 110 474 -14 300 -14 c 0
 131 -14 41 105 41 230 c 0
133 230 m 0
 133 149 190 72 300 72 c 0
 413 72 467 152 467 230 c 0
 467 308 413 388 300 388 c 0
 190 388 133 312 133 230 c 0
EndSplineSet
EndChar

StartChar: p
Encoding: 112 112 80
Width: 600
Flags: W
HStem: -152 82<10 89 176 320 10 89> -7 86<310.5 362.5 291 383> 371 82<10 89 10 176> 381 86<315.5 373.5>
VStem: 89 87<-70 48 -70 371> 467 92<188 267>
LayerCount: 2
Fore
SplineSet
10 453 m 1xec
 176 453 l 1xec
 176 415 l 1
 237 467 306 467 325 467 c 0xdc
 467 467 559 351 559 232 c 0
 559 89 440 -7 326 -7 c 0
 295 -7 230 2 176 48 c 1
 176 -70 l 1
 320 -70 l 1
 320 -152 l 1
 10 -152 l 1
 10 -70 l 1
 89 -70 l 1
 89 371 l 1
 10 371 l 1
 10 453 l 1xec
172 234 m 0
 172 132 258 79 324 79 c 0
 401 79 467 144 467 232 c 0
 467 302 422 381 325 381 c 0xdc
 236 381 172 313 172 234 c 0
EndSplineSet
EndChar

StartChar: q
Encoding: 113 113 81
Width: 600
Flags: W
HStem: -152 82<281 425 512 591 281 425> -7 86<238.5 290.5> 371 82<512 591 512 512> 381 86<227.5 285.5 205 320.5>
VStem: 42 92<188 267 188 291.5> 425 87<-70 48 48 48 -70 453 -70 453>
LayerCount: 2
Fore
SplineSet
591 453 m 1xec
 591 371 l 1
 512 371 l 1xec
 512 -70 l 1
 591 -70 l 1
 591 -152 l 1
 281 -152 l 1
 281 -70 l 1
 425 -70 l 1
 425 48 l 1
 371 2 306 -7 275 -7 c 0
 161 -7 42 89 42 232 c 0
 42 351 134 467 276 467 c 0
 295 467 364 467 425 415 c 1xdc
 425 453 l 1
 591 453 l 1xec
429 234 m 0xdc
 429 313 365 381 276 381 c 0
 179 381 134 302 134 232 c 0
 134 144 200 79 277 79 c 0
 343 79 429 132 429 234 c 0xdc
EndSplineSet
EndChar

StartChar: r
Encoding: 114 114 82
Width: 600
Flags: W
HStem: 0 82<62 182 269 454 62 182> 371 82<71 182 71 269> 381 86<407 450>
VStem: 182 87<82 269 82 371>
LayerCount: 2
Fore
SplineSet
71 453 m 1xd0
 269 453 l 1xd0
 269 379 l 1
 311 419 364 467 450 467 c 0
 526 467 564 428 586 406 c 1
 497 338 l 1
 486 357 467 381 433 381 c 0xb0
 368 381 277 277 269 269 c 1
 269 82 l 1
 454 82 l 1
 454 0 l 1
 62 0 l 1
 62 82 l 1
 182 82 l 1
 182 371 l 1
 71 371 l 1
 71 453 l 1xd0
EndSplineSet
EndChar

StartChar: s
Encoding: 115 115 83
Width: 600
Flags: W
HStem: -14 86<279.5 339.5 255 377.5> -10 21G<89 89> 381 86<261.5 289.5> 443 20G<494 494> 456 20G<416 416>
VStem: 86 90<305 349 299.5 377> 428 90<117 150.5 94 158>
LayerCount: 2
Fore
SplineSet
416 476 m 1xae
 494 463 l 1
 489 438 484 407 484 376 c 0x96
 484 344 489 324 494 304 c 1
 416 293 l 2
 415 295 412 302 411 306 c 2
 403 329 l 2
 385 381 298 381 281 381 c 0
 242 381 176 373 176 325 c 0
 176 274 245 271 300 267 c 0
 388 261 434 259 470 232 c 0
 505 206 518 165 518 136 c 0
 518 52 436 -14 319 -14 c 0
 240 -14 206 15 179 37 c 1
 167 -15 l 1xa6
 89 -10 l 1
 93 14 99 43 99 85 c 0x66
 99 124 94 142 89 163 c 1
 167 172 l 1
 178 118 207 72 303 72 c 0
 376 72 428 96 428 138 c 0
 428 178 385 180 307 185 c 0
 218 191 185 199 152 218 c 0
 114 240 86 282 86 328 c 0
 86 426 195 467 270 467 c 0
 340 467 382 436 403 420 c 1xa6
 416 476 l 1xae
EndSplineSet
EndChar

StartChar: t
Encoding: 116 116 84
Width: 600
Flags: W
HStem: -14 86<310 353.5 284.5 372.5> 361 82<93 159 93 159 246 474> 361 222<93 246 93 246 159 474 159 246>
VStem: 159 87<193 361 443 583>
LayerCount: 2
Fore
SplineSet
159 583 m 1xf0
 246 583 l 1xb0
 246 443 l 1
 474 443 l 1
 474 361 l 1
 246 361 l 1
 246 193 l 2
 246 124 245 72 324 72 c 0
 383 72 430 92 488 116 c 2
 520 129 l 1
 553 50 l 1
 501 26 413 -14 332 -14 c 0
 288 -14 231 0 201 31 c 0
 160 74 159 133 159 193 c 2
 159 361 l 1
 93 361 l 1
 93 443 l 1
 159 443 l 1xd0
 159 583 l 1xf0
EndSplineSet
EndChar

StartChar: u
Encoding: 117 117 85
Width: 600
Flags: W
HStem: -14 86<245 285> 0 82<488 566 488 566> 371 82<22 100 22 187 319 401>
VStem: 100 87<179 371 371 371> 401 87<0 453 31 453 146 371 371 371>
LayerCount: 2
Fore
SplineSet
22 453 m 1x78
 187 453 l 1
 187 179 l 2
 187 141 195 72 269 72 c 0
 330 72 364 109 401 146 c 1xb8
 401 371 l 1
 319 371 l 1
 319 453 l 1
 488 453 l 1
 488 82 l 1
 566 82 l 1
 566 0 l 1
 401 0 l 1x78
 401 31 l 1
 351 -5 300 -14 270 -14 c 0
 220 -14 168 7 141 40 c 0xb8
 116 71 100 104 100 179 c 2
 100 371 l 1
 22 371 l 1
 22 453 l 1x78
EndSplineSet
EndChar

StartChar: v
Encoding: 118 118 86
Width: 600
Flags: MW
HStem: 0 21G<265 336 265 265> 371 82<11 90 11 256 189 256 189 189 354 419 511 511 511 589>
VStem: 11 245<371 453 371 453> 354 235<371 453 371 453>
LayerCount: 2
Fore
SplineSet
11 453 m 1
 256 453 l 1
 256 371 l 1
 189 371 l 1
 303 122 l 1
 419 371 l 1
 354 371 l 1
 354 453 l 1
 589 453 l 1
 589 371 l 1
 511 371 l 1
 336 0 l 1
 265 0 l 1
 90 371 l 1
 11 371 l 1
 11 453 l 1
EndSplineSet
EndChar

StartChar: w
Encoding: 119 119 87
Width: 600
Flags: W
HStem: 0 21G<148 224 148 148 378 457 378 378> 0 159<193 195 193 224 148 195 414 416> 371 82<0 46 0 212 138 212 138 138 0 334 397 472 558 558 558 600>
VStem: 0 212<371 453 371 453> 397 203<371 453 371 453>
LayerCount: 2
Fore
SplineSet
0 453 m 1xb8
 212 453 l 1
 212 371 l 1
 138 371 l 1
 193 159 l 1
 195 159 l 1
 273 371 l 1
 334 371 l 1
 414 159 l 1
 416 159 l 1x78
 472 371 l 1
 397 371 l 1
 397 453 l 1
 600 453 l 1
 600 371 l 1
 558 371 l 1
 457 0 l 1
 378 0 l 1
 301 218 l 1
 299 218 l 1
 224 0 l 1
 148 0 l 1
 46 371 l 1
 0 371 l 1
 0 453 l 1xb8
EndSplineSet
EndChar

StartChar: x
Encoding: 120 120 88
Width: 600
Flags: W
HStem: 0 82<15 87 200 246 15 87 349 395 517 585> 237 21G<239 239 357 357> 371 82<30 98 30 262 220 262 220 220 30 337 337 382 494 494 494 560>
VStem: 15 231<0 82 0 82> 30 232<371 453 371 453> 337 223<371 453 371 453> 349 236<0 82 0 82>
LayerCount: 2
Fore
SplineSet
30 453 m 1xfc
 262 453 l 1
 262 371 l 1
 220 371 l 1
 298 296 l 1
 382 371 l 1
 337 371 l 1
 337 453 l 1
 560 453 l 1
 560 371 l 1
 494 371 l 1xec
 357 237 l 1
 517 82 l 1
 585 82 l 1
 585 0 l 1
 349 0 l 1
 349 82 l 1
 395 82 l 1
 298 178 l 1
 200 82 l 1
 246 82 l 1
 246 0 l 1
 15 0 l 1
 15 82 l 1
 87 82 l 1xf2
 239 237 l 1
 98 371 l 1
 30 371 l 1
 30 453 l 1xfc
EndSplineSet
EndChar

StartChar: y
Encoding: 121 121 89
Width: 600
Flags: MW
HStem: -148 82<29 184 284 359 29 184> 371 82<14 80 14 233 179 233 179 179 383 435 535 535 535 598>
VStem: 14 219<371 453 371 453> 383 215<371 453 371 453>
LayerCount: 2
Fore
SplineSet
14 453 m 1
 233 453 l 1
 233 371 l 1
 179 371 l 1
 301 137 l 1
 435 371 l 1
 383 371 l 1
 383 453 l 1
 598 453 l 1
 598 371 l 1
 535 371 l 1
 284 -66 l 1
 359 -66 l 1
 359 -148 l 1
 29 -148 l 1
 29 -66 l 1
 184 -66 l 1
 250 47 l 1
 80 371 l 1
 14 371 l 1
 14 453 l 1
EndSplineSet
EndChar

StartChar: z
Encoding: 122 122 90
Width: 600
Flags: MW
HStem: 0 82<222 422 222 509> 371 82<188 375 188 188>
VStem: 101 87<284 371 284 453 284 453> 422 87<82 174 0 174>
LayerCount: 2
Fore
SplineSet
101 453 m 1
 509 453 l 1
 509 386 l 1
 222 82 l 1
 422 82 l 1
 422 174 l 1
 509 174 l 1
 509 0 l 1
 91 0 l 1
 91 72 l 1
 375 371 l 1
 188 371 l 1
 188 284 l 1
 101 284 l 1
 101 453 l 1
EndSplineSet
EndChar

StartChar: braceleft
Encoding: 123 123 91
Width: 600
Flags: W
HStem: -91 84<442.5 475> 246 85<218 218> 583 86<372.5 475>
VStem: 277 89<20 55.5 20 61 520.5 555.5> 300 91<193 221.5 357 381.5>
LayerCount: 2
Fore
SplineSet
475 668 m 1xf0
 475 583 l 1
 407 582 366 582 366 529 c 0
 366 512 368 507 378 455 c 2xf0
 385 420 l 2
 386 413 391 390 391 373 c 0
 391 328 365 302 351 288 c 1
 365 273 391 247 391 202 c 0xe8
 391 184 386 162 378 121 c 0
 370 80 366 64 366 47 c 0
 366 -7 410 -7 475 -7 c 1
 475 -91 l 1
 434 -93 406 -94 370 -83 c 0
 310 -65 277 -10 277 47 c 0xf0
 277 75 279 85 291 140 c 0
 293 150 300 181 300 203 c 0
 300 240 248 244 218 246 c 1
 218 331 l 1
 255 334 300 338 300 376 c 0xe8
 300 398 291 436 291 437 c 0
 279 493 277 502 277 527 c 0
 277 585 307 669 438 669 c 0
 447 669 457 668 475 668 c 1xf0
EndSplineSet
EndChar

StartChar: bar
Encoding: 124 124 92
Width: 600
Flags: MW
HStem: -184 857<251 349 251 349>
VStem: 251 98<-184 673 -184 673>
LayerCount: 2
Fore
SplineSet
349 673 m 1
 349 -184 l 1
 251 -184 l 1
 251 673 l 1
 349 673 l 1
EndSplineSet
EndChar

StartChar: braceright
Encoding: 125 125 93
Width: 600
Flags: W
HStem: -91 84<125 157.5> 246 85<382 382> 583 86<125 125>
VStem: 209 91<194.5 220.5 191 226 356 381> 234 89<20 56 524.5 556>
LayerCount: 2
Fore
SplineSet
382 331 m 1xf8
 382 246 l 1
 349 244 300 240 300 201 c 0xf0
 300 181 304 160 309 140 c 0
 321 84 323 75 323 50 c 0
 323 -29 272 -70 230 -83 c 0
 193 -94 164 -93 125 -91 c 1
 125 -7 l 1
 190 -7 234 -7 234 47 c 0xe8
 234 65 223 120 215 157 c 0
 214 164 209 186 209 203 c 0
 209 249 235 275 249 290 c 1
 236 304 209 330 209 375 c 0xf0
 209 387 215 420 222 453 c 0
 228 486 234 519 234 530 c 0
 234 582 193 582 125 583 c 1
 125 669 l 1
 169 670 195 671 230 660 c 0
 287 643 323 591 323 530 c 0xe8
 323 502 321 492 309 438 c 0
 307 429 300 396 300 374 c 0
 300 338 350 334 382 331 c 1xf8
EndSplineSet
EndChar

StartChar: asciitilde
Encoding: 126 126 94
Width: 600
Flags: W
HStem: 216 196 238 102<383.5 406 383.5 425>
VStem: 77 446<285 345>
LayerCount: 2
Fore
SplineSet
464 412 m 1xe0
 523 345 l 2
 523 344 520 340 520 339 c 0
 494 297 459 238 391 238 c 0
 365 238 347 246 293 268 c 0
 267 279 227 295 213 295 c 0
 184 295 166 272 143 229 c 2
 136 216 l 1
 77 285 l 2
 77 286 80 290 80 291 c 0
 105 335 141 397 213 397 c 0
 226 397 247 397 318 366 c 0
 359 348 376 340 391 340 c 0
 421 340 438 368 464 412 c 1xe0
EndSplineSet
EndChar

StartChar: exclamdown
Encoding: 161 161 95
Width: 600
Flags: W
HStem: -132 403<259 341 259 361 240 341> 317 157<274 325 274 325.5>
VStem: 213 174<376 416> 240 121<-132 -132>
LayerCount: 2
Fore
SplineSet
361 -132 m 1xf0
 240 -132 l 1
 259 271 l 1
 341 271 l 1
 361 -132 l 1xf0
300 317 m 0x60
 247 317 213 356 213 396 c 0
 213 436 248 474 300 474 c 0
 350 474 387 438 387 396 c 0
 387 354 351 317 300 317 c 0x60
EndSplineSet
EndChar

StartChar: cent
Encoding: 162 162 96
Width: 600
Flags: MW
HStem: 433 20G<416 416> 610 20G<272 343 343 343>
VStem: 106 82<279.5 303.5 279.5 350.5> 272 71<-55 87 -55 87 174 409 409 409 501 630> 420 68
LayerCount: 2
Fore
SplineSet
343 411 m 1
 343 174 l 1
 367 178 382 181 428 206 c 0
 436 210 471 233 478 237 c 1
 520 165 l 1
 484 139 429 101 343 87 c 1
 343 -55 l 1
 272 -55 l 1
 272 87 l 1
 160 108 106 201 106 290 c 0
 106 411 195 479 272 495 c 1
 272 630 l 1
 343 630 l 1
 343 501 l 1
 378 493 395 480 416 453 c 1
 424 507 l 1
 497 501 l 1
 492 446 488 412 488 380 c 0
 488 360 489 338 491 311 c 1
 416 300 l 1
 406 369 400 410 343 411 c 1
272 174 m 1
 272 409 l 1
 197 384 188 315 188 292 c 0
 188 267 200 192 272 174 c 1
EndSplineSet
EndChar

StartChar: sterling
Encoding: 163 163 97
Width: 600
Flags: W
HStem: -25 21G<162 162> -12 84<404.5 422.5 404.5 444> 20 84<275.5 285> 283 84<83 162 83 190 83 162 277 495 277 277> 442 20G<427 427> 457.5 157.5 545 86<305.5 343.5 290 349> 583 20G<450 450> 611 20G<290 343.5>
VStem: 146 87<441 476 441 507> 197 84<209.5 239.5> 431 75<453 525>
LayerCount: 2
Fore
SplineSet
83 367 m 1xba50
 162 367 l 1
 154 392 146 417 146 452 c 0
 146 562 245 631 335 631 c 0xba50
 352 631 391 630 450 603 c 1xb950
 454 617 l 1xb450
 536 613 l 1xb8d0
 519 553 512 518 506 453 c 1xb450
 427 462 l 1
 428 466 431 503 431 513 c 0
 431 537 359 545 339 545 c 0
 272 545 233 499 233 453 c 0
 233 429 238 411 254 367 c 1xba50
 495 367 l 1
 495 283 l 1
 277 283 l 1
 279 270 281 258 281 233 c 0
 281 186 271 139 248 98 c 1
 256 100 268 104 283 104 c 0xba30
 307 104 326 99 362 85 c 0
 389 74 399 72 410 72 c 0
 435 72 451 84 487 113 c 2
 495 120 l 1
 547 55 l 2
 546 54 542 50 540 49 c 0
 513 23 476 -12 412 -12 c 0x5a30
 393 -12 372 -9 339 3 c 0
 305 16 294 20 276 20 c 0
 242 20 208 2 162 -25 c 1
 109 44 l 1
 132 67 197 131 197 228 c 0
 197 251 193 270 190 283 c 1xba30
 83 283 l 1
 83 367 l 1xba50
EndSplineSet
EndChar

StartChar: fraction
Encoding: 164 8260 98
Width: 600
Flags: MW
HStem: -16 21G<38 38> 605 20G<571 571>
VStem: 38 533
LayerCount: 2
Fore
SplineSet
525 658 m 1
 571 625 l 1
 81 -50 l 1
 38 -16 l 1
 525 658 l 1
EndSplineSet
EndChar

StartChar: yen
Encoding: 165 165 99
Width: 600
Flags: W
HStem: 0 82<145 260 345 461 145 260> 138 64<118 260 118 260 345 485> 250 64<118 255 118 260 118 255 351 485> 530 82<22 91 22 251 197 197 197 251 351 415 510 510 510 578>
VStem: 22 229<530 612 530 612> 260 85<82 138 82 138 202 250> 351 227<314 612 530 612 530 612>
LayerCount: 2
Fore
SplineSet
345 138 m 1
 345 82 l 1
 461 82 l 1
 461 0 l 1
 145 0 l 1
 145 82 l 1
 260 82 l 1
 260 138 l 1
 118 138 l 1
 118 202 l 1
 260 202 l 1
 260 250 l 1xf4
 118 250 l 1
 118 314 l 1
 255 314 l 1
 91 530 l 1
 22 530 l 1
 22 612 l 1
 251 612 l 1
 251 530 l 1
 197 530 l 1
 305 371 l 1
 415 530 l 1
 351 530 l 1
 351 612 l 1
 578 612 l 1
 578 530 l 1
 510 530 l 1xfa
 351 314 l 1
 485 314 l 1
 485 250 l 1
 345 250 l 1
 345 202 l 1
 485 202 l 1
 485 138 l 1
 345 138 l 1
EndSplineSet
EndChar

StartChar: florin
Encoding: 166 402 100
Width: 600
Flags: MW
HStem: -95 88<27 137> 371 78<109 213 109 213 301 471> 597 84<408.5 445>
VStem: 213 88<76 371 449 483>
LayerCount: 2
Fore
SplineSet
518 674 m 1
 503 588 l 1
 482 592 461 597 429 597 c 0
 301 597 301 525 301 483 c 2
 301 449 l 1
 471 449 l 1
 471 371 l 1
 301 371 l 1
 301 69 l 2
 301 -69 187 -95 87 -95 c 0
 58 -95 35 -93 17 -91 c 1
 27 -7 l 1
 198 -14 213 5 213 76 c 2
 213 371 l 1
 109 371 l 1
 109 449 l 1
 213 449 l 1
 213 488 l 2
 213 537 223 583 258 619 c 0
 298 661 371 681 446 681 c 0
 477 681 496 678 518 674 c 1
EndSplineSet
EndChar

StartChar: section
Encoding: 167 167 101
Width: 600
Flags: W
HStem: -91 91<200 308 200 308 117 308> 495 88<276 482 299 397>
VStem: 111 88<291.5 309.5 291.5 319> 117 83<0 89 0 89 0 89> 152 90<464.5 483> 360 90<11 27.5 -37.5 30.5> 397 85<412 495 495 495> 414 89<177 199.5>
LayerCount: 2
Fore
SplineSet
482 583 m 1xce
 482 412 l 1
 397 412 l 1
 397 495 l 1xca
 295 495 l 2
 257 495 242 495 242 471 c 0
 242 458 248 446 282 419 c 2
 416 315 l 2
 472 271 503 240 503 187 c 0
 503 152 499 147 462 103 c 0
 451 89 439 89 430 89 c 1xc9
 430 78 431 76 442 55 c 0
 448 43 450 39 450 16 c 0
 450 -91 349 -91 308 -91 c 2
 117 -91 l 1
 117 89 l 1
 200 89 l 1
 200 0 l 1xd4
 308 0 l 2
 345 0 360 0 360 22 c 0
 360 39 351 53 319 78 c 2
 190 179 l 2
 138 219 111 245 111 299 c 0
 111 339 115 344 163 394 c 0xe4
 169 400 171 400 178 400 c 1
 165 418 152 435 152 475 c 0
 152 583 263 583 299 583 c 2
 482 583 l 1xce
361 249 m 2xe1
 242 341 l 1xcc
 229 339 199 322 199 297 c 0
 199 286 199 282 242 249 c 2
 366 153 l 1
 377 155 414 163 414 191 c 0
 414 208 379 235 361 249 c 2xe1
EndSplineSet
EndChar

StartChar: currency
Encoding: 168 164 102
Width: 600
Flags: MW
HStem: 102 85<275 324.5> 400 85<273.5 308 273.5 334>
VStem: 108 85<269 301.5> 407 85
LayerCount: 2
Fore
SplineSet
462 193 m 1
 545 112 l 1
 483 52 l 1
 402 132 l 1
 376 117 349 102 300 102 c 0
 250 102 224 117 197 132 c 1
 116 52 l 1
 54 112 l 1
 137 193 l 1
 124 217 l 2
 121 223 108 251 108 287 c 0
 108 316 111 345 124 371 c 2
 137 394 l 1
 54 475 l 1
 116 535 l 1
 197 456 l 1
 219 467 l 2
 224 470 254 485 293 485 c 0
 323 485 354 481 381 467 c 2
 402 456 l 1
 483 535 l 1
 545 475 l 1
 463 395 l 1
 486 362 494 322 492 287 c 0
 490 247 481 217 462 193 c 1
407 294 m 0
 407 347 368 400 300 400 c 0
 228 400 193 343 193 294 c 0
 193 238 234 187 300 187 c 0
 365 187 407 238 407 294 c 0
EndSplineSet
EndChar

StartChar: quotesingle
Encoding: 169 39 103
Width: 600
Flags: W
HStem: 272 311<246 354 246 246> 563 20G<224 376 376 376>
VStem: 224 152<583 583>
LayerCount: 2
Fore
SplineSet
224 583 m 1xe0
 376 583 l 1
 354 272 l 1
 246 272 l 1
 224 583 l 1xe0
EndSplineSet
EndChar

StartChar: quotedblleft
Encoding: 170 8220 104
Width: 600
Flags: W
HStem: 309 274<204 225 81 312 286 312 409 431 286 286>
VStem: 81 231 81 436<309 583> 286 231
LayerCount: 2
Fore
SplineSet
431 309 m 1xb0
 286 309 l 1
 409 583 l 1
 517 583 l 1
 431 309 l 1xb0
225 309 m 1xc0
 81 309 l 1
 204 583 l 1
 312 583 l 1
 225 309 l 1xc0
EndSplineSet
EndChar

StartChar: guillemotleft
Encoding: 171 171 105
Width: 600
Flags: W
HStem: 18 445<301 301 301 498> 241 21G<43 43 172 172 240 240 369 369> 443 20G<301 301 498 498>
VStem: 43 316<82 241> 43 513<82 241> 240 316<82 241>
LayerCount: 2
Fore
SplineSet
301 18 m 1xf8
 43 241 l 1
 301 463 l 1
 355 399 l 1
 172 241 l 1
 359 82 l 1
 301 18 l 1xf8
498 18 m 1x84
 240 241 l 1
 498 463 l 1
 552 399 l 1
 369 241 l 1
 556 82 l 1
 498 18 l 1x84
EndSplineSet
EndChar

StartChar: guilsinglleft
Encoding: 172 8249 106
Width: 600
Flags: W
HStem: 18 445<400 400> 241 21G<141 141 271 271> 443 20G<400 400>
VStem: 141 317<82 241>
LayerCount: 2
Fore
SplineSet
400 18 m 1xf0
 141 241 l 1
 400 463 l 1
 454 399 l 1
 271 241 l 1
 458 82 l 1
 400 18 l 1xf0
EndSplineSet
EndChar

StartChar: guilsinglright
Encoding: 173 8250 107
Width: 600
Flags: W
HStem: 18 445<200 200> 240 21G<329 329 459 459> 443 20G<200 200>
VStem: 142 317<240 399>
LayerCount: 2
Fore
SplineSet
200 463 m 1xf0
 459 240 l 1
 200 18 l 1
 146 82 l 1
 329 240 l 1
 142 399 l 1
 200 463 l 1xf0
EndSplineSet
EndChar

StartChar: fi
Encoding: 174 64257 108
Width: 600
Flags: W
HStem: 0 82<16 132 219 382 469 584 16 132> 359 82<16 132 16 132 219 382> 545 98 545 127<358 469 358 469> 557 86<232 248> 605 20G<333 333> 623 20G<189.5 258>
VStem: 132 87<82 359 82 359 441 478> 382 87<82 359 359 359>
LayerCount: 2
Fore
SplineSet
469 441 m 1xc980
 469 82 l 1
 584 82 l 1
 584 0 l 1
 16 0 l 1
 16 82 l 1
 132 82 l 1
 132 359 l 1
 16 359 l 1
 16 441 l 1
 132 441 l 1
 132 478 l 2
 132 555 138 643 241 643 c 0xc980
 275 643 295 637 318 630 c 0xc580
 320 629 331 626 333 625 c 2xc380
 300 539 l 1
 276 549 253 557 243 557 c 0
 221 557 219 533 219 478 c 2
 219 441 l 1
 469 441 l 1xc980
382 82 m 1
 382 359 l 1
 219 359 l 1
 219 82 l 1
 382 82 l 1
358 545 m 1xe180
 358 672 l 1
 469 672 l 1xd180
 469 545 l 1
 358 545 l 1xe180
EndSplineSet
Ligature2: "'liga' Standard Ligatures in Latin lookup 0 subtable" f i
EndChar

StartChar: fl
Encoding: 175 64258 109
Width: 600
Flags: W
HStem: 0 82<16 132 219 382 469 584 16 132> 359 82<16 132 16 132 219 328> 557 86<258.5 313.5> 607 20G<469 469>
VStem: 132 87<82 359 441 475> 382 87<82 549 549 549>
LayerCount: 2
Fore
SplineSet
469 627 m 1xfc
 469 82 l 1
 584 82 l 1
 584 0 l 1
 16 0 l 1
 16 82 l 1
 132 82 l 1
 132 359 l 1
 16 359 l 1
 16 441 l 1
 132 441 l 1
 132 479 l 2
 132 547 137 643 300 643 c 0xec
 327 643 445 629 469 627 c 1xfc
219 82 m 1
 382 82 l 1
 382 549 l 1
 360 553 331 557 296 557 c 0
 221 557 219 536 219 475 c 2
 219 441 l 1
 328 441 l 1
 328 359 l 1
 219 359 l 1
 219 82 l 1
EndSplineSet
Ligature2: "'liga' Standard Ligatures in Latin lookup 0 subtable" f l
EndChar

StartChar: endash
Encoding: 177 8211 110
Width: 600
Flags: MW
HStem: 253 92<76 524 76 524>
VStem: 76 448<253 345 253 345>
LayerCount: 2
Fore
SplineSet
76 345 m 1
 524 345 l 1
 524 253 l 1
 76 253 l 1
 76 345 l 1
EndSplineSet
EndChar

StartChar: dagger
Encoding: 178 8224 111
Width: 600
Flags: W
HStem: 358 81<115 254 115 254 346 485> 358 225<115 346 115 346 254 485 254 346>
VStem: 254 92<-48 358 -48 358 439 583>
LayerCount: 2
Fore
SplineSet
254 583 m 1xe0
 346 583 l 1x60
 346 439 l 1
 485 439 l 1
 485 358 l 1
 346 358 l 1
 346 -48 l 1
 254 -48 l 1
 254 358 l 1
 115 358 l 1
 115 439 l 1
 254 439 l 1xa0
 254 583 l 1xe0
EndSplineSet
EndChar

StartChar: daggerdbl
Encoding: 179 8225 112
Width: 600
Flags: MW
HStem: 170 81<115 253 115 253 345 486> 339 81<115 253 115 253 345 486> 563 20G<253 345 345 345>
VStem: 253 92<-48 170 -48 170 251 339 420 583>
LayerCount: 2
Fore
SplineSet
253 583 m 1
 345 583 l 1
 345 420 l 1
 486 420 l 1
 486 339 l 1
 345 339 l 1
 345 251 l 1
 486 251 l 1
 486 170 l 1
 345 170 l 1
 345 -48 l 1
 253 -48 l 1
 253 170 l 1
 115 170 l 1
 115 251 l 1
 253 251 l 1
 253 339 l 1
 115 339 l 1
 115 420 l 1
 253 420 l 1
 253 583 l 1
EndSplineSet
EndChar

StartChar: periodcentered
Encoding: 180 183 113
Width: 600
Flags: MW
HStem: 228 170<277.5 321.5 277.5 323>
VStem: 206 188<286.5 339.5>
LayerCount: 2
Fore
SplineSet
300 398 m 0
 343 398 394 367 394 313 c 0
 394 260 346 228 300 228 c 0
 255 228 206 259 206 313 c 0
 206 366 255 398 300 398 c 0
EndSplineSet
EndChar

StartChar: paragraph
Encoding: 182 182 114
Width: 600
Flags: MW
HStem: -79 50<205 270 205 348 205 270 475 528> 268 45<270 270> 534 49<244.5 528 348 398 348 348 475 528 475 475>
VStem: 72 147<406.5 452.5> 270 78<-29 268 268 268 313 534 -79 534> 398 77<-29 534 -29 534 -29 534>
LayerCount: 2
Fore
SplineSet
475 534 m 1
 475 -29 l 1
 528 -29 l 1
 528 -79 l 1
 398 -79 l 1
 398 534 l 1
 348 534 l 1
 348 -79 l 1
 205 -79 l 1
 205 -29 l 1
 270 -29 l 1
 270 268 l 1
 241 266 194 264 144 290 c 0
 88 320 72 386 72 427 c 0
 72 478 94 529 138 557 c 0
 180 583 239 583 292 583 c 2
 528 583 l 1
 528 534 l 1
 475 534 l 1
270 313 m 1
 270 534 l 1
 219 534 219 482 219 463 c 2
 219 385 l 2
 219 319 251 315 270 313 c 1
EndSplineSet
EndChar

StartChar: bullet
Encoding: 183 8226 115
Width: 600
Flags: MW
HStem: 172 223<268 330>
VStem: 188 223<253 315>
LayerCount: 2
Fore
SplineSet
299 395 m 0
 237 395 188 346 188 284 c 0
 188 222 237 172 299 172 c 0
 361 172 411 222 411 284 c 0
 411 346 361 395 299 395 c 0
EndSplineSet
EndChar

StartChar: quotesinglbase
Encoding: 184 8218 116
Width: 600
Flags: MW
HStem: -106 274<241 262 154 385>
VStem: 154 231
LayerCount: 2
Fore
SplineSet
241 168 m 1
 385 168 l 1
 262 -106 l 1
 154 -106 l 1
 241 168 l 1
EndSplineSet
EndChar

StartChar: quotedblbase
Encoding: 185 8222 117
Width: 600
Flags: W
HStem: -106 274<138 160 52 282 257 257 257 282 343 365>
VStem: 52 230 52 435<-106 168> 257 230
LayerCount: 2
Fore
SplineSet
138 168 m 1xe0
 282 168 l 1
 160 -106 l 1
 52 -106 l 1
 138 168 l 1xe0
343 168 m 1x90
 487 168 l 1
 365 -106 l 1
 257 -106 l 1
 343 168 l 1x90
EndSplineSet
EndChar

StartChar: quotedblright
Encoding: 186 8221 118
Width: 600
Flags: W
HStem: 309 274<138 160 52 282 257 257 257 282 343 365>
VStem: 52 230 52 435<309 583> 257 230
LayerCount: 2
Fore
SplineSet
138 583 m 1xe0
 282 583 l 1
 160 309 l 1
 52 309 l 1
 138 583 l 1xe0
343 583 m 1x90
 487 583 l 1
 365 309 l 1
 257 309 l 1
 343 583 l 1x90
EndSplineSet
EndChar

StartChar: guillemotright
Encoding: 187 187 119
Width: 600
Flags: W
HStem: 18 445<102 102 102 299> 240 21G<231 231 360 360 428 428 557 557> 443 20G<102 102 299 299>
VStem: 44 316<240 399> 44 513<240 399> 241 316<240 399>
LayerCount: 2
Fore
SplineSet
102 463 m 1xf8
 360 240 l 1
 102 18 l 1
 48 82 l 1
 231 240 l 1
 44 399 l 1
 102 463 l 1xf8
299 463 m 1x84
 557 240 l 1
 299 18 l 1
 245 82 l 1
 428 240 l 1
 241 399 l 1
 299 463 l 1x84
EndSplineSet
EndChar

StartChar: ellipsis
Encoding: 188 8230 120
Width: 600
Flags: MW
HStem: -16 170<79.5 120 280 319.5 480 520>
VStem: 15 170<42 96> 215 170<42 96> 415 170<41.5 96.5>
LayerCount: 2
Fore
SplineSet
185 69 m 0
 185 14 140 -16 100 -16 c 0
 59 -16 15 15 15 69 c 0
 15 123 59 154 100 154 c 0
 140 154 185 124 185 69 c 0
385 69 m 0
 385 13 339 -16 300 -16 c 0
 260 -16 215 15 215 69 c 0
 215 123 260 154 300 154 c 0
 339 154 385 125 385 69 c 0
585 69 m 0
 585 14 540 -16 500 -16 c 0
 460 -16 415 14 415 69 c 0
 415 124 460 154 500 154 c 0
 540 154 585 124 585 69 c 0
EndSplineSet
EndChar

StartChar: perthousand
Encoding: 189 8240 121
Width: 600
Flags: W
HStem: -28 63<281 298.5 494.5 513.5> 221 63<287.5 303.5 287.5 305 502 511.5> 243 21G<12 12> 317 63<86.5 100.5> 566 63<89 107.5>
VStem: 0 65<461.5 482.5> 124 65<461.5 485> 198 65<123 132.5 123 140> 321 65<118 140> 412 65<117 132.5 117 140.5> 536 64<117 136.5 117 140>
LayerCount: 2
Fore
SplineSet
292 284 m 0xfda0
 315 284 386 272 386 129 c 0
 386 107 384 40 353 3 c 0
 334 -20 305 -28 292 -28 c 0
 270 -28 198 -17 198 128 c 0
 198 152 200 224 236 260 c 0
 255 279 283 284 292 284 c 0xfda0
292 221 m 0xc180
 263 221 263 136 263 129 c 0
 263 117 264 35 292 35 c 0
 318 35 321 103 321 128 c 0
 321 152 318 221 292 221 c 0xc180
94 629 m 0x1e
 122 629 189 610 189 474 c 0
 189 449 186 384 156 348 c 0
 136 325 107 317 94 317 c 0
 79 317 55 326 38 343 c 0
 4 377 0 450 0 473 c 0
 0 492 2 569 38 604 c 0
 58 623 84 629 94 629 c 0x1e
94 566 m 0x1e
 67 566 65 497 65 473 c 0
 65 448 67 380 94 380 c 0
 121 380 124 449 124 473 c 0
 124 497 121 566 94 566 c 0x1e
507 284 m 0xc060
 516 284 543 278 563 259 c 0
 600 223 600 144 600 129 c 0
 600 105 598 40 568 3 c 0
 550 -20 521 -28 506 -28 c 0
 483 -28 412 -15 412 128 c 0
 412 153 415 224 451 260 c 0
 470 279 497 284 507 284 c 0xc060
506 221 m 0xc060
 477 221 477 136 477 129 c 0
 477 105 480 35 506 35 c 0
 533 35 536 104 536 128 c 0
 536 152 533 221 506 221 c 0xc060
420 443 m 1x2080
 449 393 l 1
 41 195 l 1
 12 243 l 1
 420 443 l 1x2080
EndSplineSet
EndChar

StartChar: questiondown
Encoding: 191 191 122
Width: 600
Flags: W
HStem: -133 87<275.5 311 275.5 336> 156 124<360 361> 317 158<303 351.5 303 352>
VStem: 106 89<13.5 80 13.5 108.5> 240 173<375 417.5 375 418> 282 86<224 280 158 280> 400 87<-29 39 -94 39>
LayerCount: 2
Fore
SplineSet
487 39 m 1xf6
 487 -94 l 1
 480 -96 478 -97 458 -104 c 0
 395 -126 360 -133 312 -133 c 0
 178 -133 106 -48 106 45 c 0
 106 172 225 207 282 224 c 1
 282 280 l 1
 368 280 l 1
 368 158 l 1
 367 158 362 156 360 156 c 0
 352 154 341 151 333 150 c 0
 272 135 195 117 195 43 c 0
 195 -16 250 -46 301 -46 c 0
 321 -46 362 -42 380 -36 c 2
 400 -29 l 1
 400 39 l 1
 487 39 l 1xf6
327 317 m 0x28
 279 317 240 352 240 396 c 0
 240 440 279 475 327 475 c 0
 376 475 413 439 413 396 c 0
 413 354 377 317 327 317 c 0x28
EndSplineSet
EndChar

StartChar: grave
Encoding: 193 96 123
Width: 600
Flags: MW
HStem: 544 98<156 410 156 323>
VStem: 156 254<544 642 544 642>
LayerCount: 2
Fore
SplineSet
156 638 m 1
 156 642 l 1
 305 642 l 1
 410 544 l 1
 323 544 l 1
 156 638 l 1
EndSplineSet
EndChar

StartChar: acute
Encoding: 194 180 124
Width: 600
Flags: MW
HStem: 544 98<210 464>
VStem: 210 254<544 638>
LayerCount: 2
Fore
SplineSet
464 638 m 1
 297 544 l 1
 210 544 l 1
 315 642 l 1
 464 642 l 1
 464 638 l 1
EndSplineSet
EndChar

StartChar: circumflex
Encoding: 195 710 125
Width: 600
Flags: MW
HStem: 583 69<296 296>
VStem: 162 277<567 567>
LayerCount: 2
Fore
SplineSet
255 652 m 1
 341 652 l 1
 439 567 l 1
 387 535 l 1
 296 583 l 1
 215 535 l 1
 162 567 l 1
 255 652 l 1
EndSplineSet
EndChar

StartChar: tilde
Encoding: 196 732 126
Width: 600
Flags: W
HStem: 530 130 532 73<356.5 373.5 356.5 399.5> 619 20G<476 476>
VStem: 124 352<553 639>
LayerCount: 2
Fore
SplineSet
407 660 m 1xf0
 476 639 l 1
 464 603 441 532 358 532 c 0
 338 532 317 536 280 562 c 0
 250 583 245 584 237 584 c 0
 215 584 204 557 197 538 c 0
 196 537 194 531 193 530 c 2
 124 553 l 1
 139 593 163 658 237 658 c 0
 272 658 295 642 318 626 c 0
 340 609 351 605 362 605 c 0
 385 605 395 629 407 660 c 1xf0
EndSplineSet
EndChar

StartChar: macron
Encoding: 197 175 127
Width: 600
Flags: MW
HStem: 550 85<129 471 129 471>
VStem: 129 342<550 635 550 635>
LayerCount: 2
Fore
SplineSet
129 635 m 1
 471 635 l 1
 471 550 l 1
 129 550 l 1
 129 635 l 1
EndSplineSet
EndChar

StartChar: breve
Encoding: 198 728 128
Width: 600
Flags: MW
HStem: 523 68<261.5 321.5>
VStem: 122 356<661 662>
LayerCount: 2
Fore
SplineSet
122 662 m 1
 200 662 l 1
 206 643 223 591 300 591 c 0
 378 591 395 645 400 662 c 1
 478 662 l 1
 478 660 476 652 475 650 c 0
 445 538 343 523 300 523 c 0
 217 523 169 566 146 600 c 0
 134 618 130 631 122 662 c 1
EndSplineSet
EndChar

StartChar: dotaccent
Encoding: 199 729 129
Width: 600
Flags: MW
HStem: 533 120<252 348 252 348>
VStem: 252 96<533 653 533 653>
LayerCount: 2
Fore
SplineSet
252 533 m 1
 252 653 l 1
 348 653 l 1
 348 533 l 1
 252 533 l 1
EndSplineSet
EndChar

StartChar: dieresis
Encoding: 200 168 130
Width: 600
Flags: W
HStem: 533 115<178 274 178 274 326 422 178 326>
VStem: 178 96<533 648 533 648> 326 96<533 648 533 648>
LayerCount: 2
Fore
SplineSet
178 533 m 1
 178 648 l 1
 274 648 l 1
 274 533 l 1
 178 533 l 1
326 533 m 1xa0
 326 648 l 1
 422 648 l 1
 422 533 l 1
 326 533 l 1xa0
EndSplineSet
EndChar

StartChar: ring
Encoding: 202 730 131
Width: 600
Flags: MW
HStem: 516 56<291.5 309 291.5 324.5> 636 57<291.5 309>
VStem: 212 56<595.5 613 595.5 628.5> 332 57<595.5 613>
LayerCount: 2
Fore
SplineSet
389 604 m 0
 389 555 349 516 300 516 c 0
 251 516 212 555 212 604 c 0
 212 653 251 693 300 693 c 0
 349 693 389 653 389 604 c 0
332 604 m 0
 332 622 318 636 300 636 c 0
 283 636 268 622 268 604 c 0
 268 587 283 572 300 572 c 0
 318 572 332 587 332 604 c 0
EndSplineSet
EndChar

StartChar: cedilla
Encoding: 203 184 132
Width: 600
Flags: W
HStem: -171 70<328.5 351 328.5 395.5> -79 85 -18 24<374 377 304 380.5>
VStem: 223 226<-152 -68> 299 76.5 364 85<4.29497e+09 4.29497e+09>
LayerCount: 2
Fore
SplineSet
377 6 m 1xb8
 374 -18 l 1
 387 -18 449 -40 449 -96 c 0
 449 -115 439 -171 352 -171 c 0xa8
 300 -171 248 -158 232 -154 c 0
 230 -154 224 -152 223 -152 c 1
 234 -83 l 1
 243 -85 311 -101 346 -101 c 0
 356 -101 363 -98 364 -97 c 0xa4
 372 -87 324 -82 308 -80 c 2xc4
 294 -78 l 1xc8
 304 6 l 1
 377 6 l 1xb8
EndSplineSet
EndChar

StartChar: hungarumlaut
Encoding: 205 733 133
Width: 600
Flags: MW
HStem: 528 129<126 350 126 350 287 287 287 350 236 356>
VStem: 126 386<528 657>
LayerCount: 2
Fore
SplineSet
350 657 m 1
 194 528 l 1
 126 528 l 1
 236 657 l 1
 350 657 l 1
512 657 m 1
 356 528 l 1
 287 528 l 1
 398 657 l 1
 512 657 l 1
EndSplineSet
EndChar

StartChar: ogonek
Encoding: 206 731 134
Width: 600
Flags: MW
HStem: -144 163<303 316>
VStem: 203 91<-63 -57.5>
LayerCount: 2
Fore
SplineSet
400 -49 m 1
 385 -115 l 2
 384 -116 382 -117 381 -117 c 0
 365 -127 339 -144 293 -144 c 0
 241 -144 203 -112 203 -72 c 0
 203 -43 225 -4 303 19 c 1
 403 19 l 1
 403 14 l 1
 340 -9 294 -21 294 -55 c 0
 294 -71 311 -78 325 -78 c 0
 349 -78 361 -71 400 -49 c 1
EndSplineSet
EndChar

StartChar: caron
Encoding: 207 711 135
Width: 600
Flags: W
HStem: 535 69<304 304 304 345 260 304> 584 20G<304 304>
VStem: 162 276<620 620>
LayerCount: 2
Fore
SplineSet
345 535 m 1xe0
 260 535 l 1
 162 620 l 1
 213 652 l 1
 304 604 l 1
 385 652 l 1
 438 620 l 1
 345 535 l 1xe0
EndSplineSet
EndChar

StartChar: emdash
Encoding: 208 8212 136
Width: 600
Flags: MW
HStem: 253 92<-48 648 -48 648>
VStem: -48 696<253 345 253 345>
LayerCount: 2
Fore
SplineSet
-48 345 m 1
 648 345 l 1
 648 253 l 1
 -48 253 l 1
 -48 345 l 1
EndSplineSet
EndChar

StartChar: AE
Encoding: 225 198 137
Width: 600
Flags: W
HStem: 0 82<2 59 136 213 2 59 364 516> 179 77<192 278 192 278 171 278> 190 28 256 77<364 406 364 406> 367 47<406 595 406 524> 501 82<124 213 124 595 364 516 364 364>
VStem: 2 211<0 82 0 82> 278 86<82 179 179 179 333 486 486 486> 406 77<190 256 256 256 333 414 190 414> 520 75
LayerCount: 2
Fore
SplineSet
124 583 m 1xcfc0
 595 583 l 1
 595 367 l 1
 524 367 l 1
 516 501 l 1
 364 501 l 1
 364 333 l 1
 406 333 l 1
 406 414 l 1
 483 414 l 1
 483 190 l 1
 406 190 l 1
 406 256 l 1
 364 256 l 1
 364 82 l 1
 516 82 l 1
 524 218 l 1
 595 218 l 1xbfc0
 595 0 l 1
 278 0 l 1
 278 179 l 1
 171 179 l 1
 136 82 l 1
 213 82 l 1
 213 0 l 1
 2 0 l 1
 2 82 l 1
 59 82 l 1
 213 501 l 1
 124 501 l 1
 124 583 l 1xcfc0
278 256 m 1xcfc0
 278 486 l 1
 276 486 l 1
 192 256 l 1
 278 256 l 1xcfc0
EndSplineSet
EndChar

StartChar: ordfeminine
Encoding: 227 170 138
Width: 600
Flags: MW
HStem: 251 54<169 431 169 431> 347 53<392 436 392 436> 461 53<268 293.5 248 296.5> 546 54<279.5 308.5>
VStem: 163 56<416 435.5 416 451.5> 338 54<347 509 366 509 437 457 457 457>
LayerCount: 2
Fore
SplineSet
200 520 m 1
 179 571 l 1
 235 594 259 600 293 600 c 0
 358 600 392 568 392 509 c 2
 392 400 l 1
 436 400 l 1
 436 347 l 1
 338 347 l 1
 338 366 l 1
 310 348 286 340 258 340 c 0
 205 340 163 377 163 425 c 0
 163 478 212 514 284 514 c 0
 303 514 314 513 338 511 c 1
 337 536 325 546 292 546 c 0
 267 546 243 539 200 520 c 1
338 437 m 1
 338 457 l 1
 315 460 304 461 289 461 c 0
 247 461 219 447 219 424 c 0
 219 408 238 394 258 394 c 0
 284 394 308 407 338 437 c 1
169 305 m 1
 431 305 l 1
 431 251 l 1
 169 251 l 1
 169 305 l 1
EndSplineSet
EndChar

StartChar: Lslash
Encoding: 232 321 139
Width: 600
Flags: MW
HStem: 0 82<48 144 231 467 48 144> 443 20G<400 400> 501 82<48 144 48 351 231 231 231 351>
VStem: 144 87<82 219 219 219 365 501> 473.5 85
LayerCount: 2
Fore
SplineSet
231 264 m 1
 231 82 l 1
 467 82 l 1
 480 280 l 1
 565 280 l 1
 552 0 l 1
 48 0 l 1
 48 82 l 1
 144 82 l 1
 144 219 l 1
 82 184 l 1
 38 260 l 1
 144 321 l 1
 144 501 l 1
 48 501 l 1
 48 583 l 1
 351 583 l 1
 351 501 l 1
 231 501 l 1
 231 365 l 1
 400 463 l 1
 444 387 l 1
 231 264 l 1
EndSplineSet
EndChar

StartChar: Oslash
Encoding: 233 216 140
Width: 600
Flags: W
HStem: -16 86<282 349 282 380.5> 459 20G<401 401> 514 86<243 328> 576 20G<491 491>
VStem: 32 92<282.5 348 273 375.5> 478 90<226 326.5>
LayerCount: 2
Fore
SplineSet
491 596 m 1xfc
 556 548 l 1xdc
 511 488 l 1
 536 449 568 392 568 292 c 0
 568 118 460 -16 301 -16 c 0
 248 -16 197 -3 155 29 c 1
 109 -30 l 1
 44 20 l 1
 96 86 l 1
 32 166 32 272 32 293 c 0
 32 458 136 600 299 600 c 0
 389 600 435 564 455 548 c 1xec
 491 596 l 1xfc
451 411 m 1
 208 98 l 1
 225 83 263 70 301 70 c 0
 397 70 478 157 478 295 c 0
 478 358 460 391 451 411 c 1
155 162 m 1
 401 479 l 1
 386 491 356 514 300 514 c 0xec
 186 514 124 402 124 294 c 0
 124 252 134 199 155 162 c 1
EndSplineSet
EndChar

StartChar: OE
Encoding: 234 338 141
Width: 600
Flags: W
HStem: 0 74<215.5 240 189.5 247 189.5 598> 0 82<379 517 379 598> 201 17 264 87<379 412 379 412> 367 47<412 594 412 523> 501 82<379 515 379 379> 506 77<247 267>
VStem: 3 92<251 347 225.5 355.5> 292 87<124 264 351 464 464 475> 412 77<201 264 264 264 351 414 201 414> 519 73 520 78
LayerCount: 2
Fore
SplineSet
590 583 m 1x6df0
 594 367 l 1
 523 367 l 1
 515 501 l 1xade0
 379 501 l 1
 379 351 l 1
 412 351 l 1x7dd0
 412 414 l 1
 489 414 l 1x6dd0
 489 201 l 1
 412 201 l 1
 412 264 l 1
 379 264 l 1
 379 82 l 1
 517 82 l 1
 523 218 l 1
 598 218 l 1
 598 0 l 1x7dd0
 247 0 l 2
 184 0 144 0 95 47 c 0
 19 119 3 216 3 286 c 0
 3 425 85 583 247 583 c 2
 590 583 l 1x6df0
292 124 m 2
 292 464 l 2
 292 486 293 506 241 506 c 0x6bd0
 167 506 95 413 95 281 c 0
 95 170 146 74 233 74 c 0
 247 74 292 79 292 124 c 2
EndSplineSet
EndChar

StartChar: ordmasculine
Encoding: 235 186 142
Width: 600
Flags: MW
HStem: 251 55<169 431 169 431> 340 54<276.5 323.5 276.5 340> 546 54<276.5 324>
VStem: 162 58<447.5 492.5 447.5 508> 380 58<447.5 492.5>
LayerCount: 2
Fore
SplineSet
162 470 m 0
 162 546 219 600 300 600 c 0
 380 600 438 546 438 470 c 0
 438 394 380 340 300 340 c 0
 220 340 162 394 162 470 c 0
220 470 m 0
 220 425 253 394 300 394 c 0
 347 394 380 425 380 470 c 0
 380 515 348 546 300 546 c 0
 253 546 220 515 220 470 c 0
169 306 m 1
 431 306 l 1
 431 251 l 1
 169 251 l 1
 169 306 l 1
EndSplineSet
EndChar

StartChar: ae
Encoding: 241 230 143
Width: 600
Flags: W
HStem: -14 86<129 166 129 183 422 466.5> 198 82<336 498 336 581 336 498> 211 82<156 192 122.5 195.5> 388 86<177.5 218.5 392.5 457.5>
VStem: 8 90<114.5 154.5 114.5 164.5> 249 87<198 198 198 206 198 206> 498 87<280 280>
LayerCount: 2
Fore
SplineSet
581 198 m 1xde
 336 198 l 1xde
 344 125 359 72 446 72 c 0
 495 72 528 85 558 97 c 1
 590 19 l 2
 589 18 583 16 581 15 c 0
 545 3 497 -14 436 -14 c 0
 408 -14 348 -10 302 50 c 1
 258 14 212 -14 154 -14 c 0
 58 -14 8 61 8 130 c 0
 8 199 63 293 182 293 c 0xbe
 202 293 225 290 249 287 c 1
 249 362 241 388 196 388 c 0
 159 388 116 376 61 355 c 1
 35 436 l 1
 79 453 133 474 200 474 c 0
 269 474 291 446 310 420 c 1
 322 434 358 474 427 474 c 0
 504 474 585 416 585 264 c 0
 585 237 583 213 581 198 c 1xde
249 110 m 1
 249 206 l 1
 229 208 207 211 184 211 c 0xbe
 128 211 98 181 98 128 c 0
 98 101 110 72 148 72 c 0
 184 72 213 85 249 110 c 1
336 280 m 1xde
 498 280 l 1
 496 319 491 388 424 388 c 0
 345 388 339 313 336 280 c 1xde
EndSplineSet
EndChar

StartChar: dotlessi
Encoding: 245 305 144
Width: 600
Flags: MW
HStem: 0 82<88 258 345 512 88 258> 371 82<115 258 115 345>
VStem: 258 87<82 371 371 371>
LayerCount: 2
Fore
SplineSet
115 453 m 1
 345 453 l 1
 345 82 l 1
 512 82 l 1
 512 0 l 1
 88 0 l 1
 88 82 l 1
 258 82 l 1
 258 371 l 1
 115 371 l 1
 115 453 l 1
EndSplineSet
EndChar

StartChar: lslash
Encoding: 248 322 145
Width: 600
Flags: W
HStem: 0 82<88 256 343 511 88 256> 443 20G<456 456> 553 95 628 20G<343 343>
VStem: 256 87<82 253 253 253 398 558 558 558>
LayerCount: 2
Fore
SplineSet
92 631 m 1xf8
 343 648 l 1
 343 398 l 1
 456 463 l 1
 500 387 l 1
 343 296 l 1
 343 82 l 1
 511 82 l 1
 511 0 l 1
 88 0 l 1
 88 82 l 1
 256 82 l 1
 256 253 l 1
 137 184 l 1
 93 260 l 1
 256 355 l 1
 256 558 l 1
 100 548 l 1xe8
 92 631 l 1xf8
EndSplineSet
EndChar

StartChar: oslash
Encoding: 249 248 146
Width: 600
Flags: W
HStem: -24 21G<103 103> -14 86<277.5 356 277.5 387> 388 86<244.5 318 218.5 323.5> 459 20G<496 496>
VStem: 41 92<226 271 226 296> 467 92<190.5 255>
LayerCount: 2
Fore
SplineSet
152 27 m 1x6c
 103 -24 l 1
 50 27 l 1
 95 74 l 1
 50 129 41 195 41 231 c 0
 41 361 138 474 299 474 c 0
 337 474 399 467 451 434 c 1xac
 496 479 l 1
 550 425 l 1
 508 383 l 1x5c
 542 339 559 289 559 231 c 0
 559 109 474 -14 300 -14 c 0
 245 -14 198 -3 152 27 c 1x6c
442 317 m 1
 217 90 l 1
 229 81 254 72 301 72 c 0x6c
 411 72 467 150 467 231 c 0
 467 279 454 295 442 317 c 1
160 139 m 1
 388 367 l 1
 371 376 348 388 299 388 c 0
 190 388 133 311 133 231 c 0
 133 221 134 180 160 139 c 1
EndSplineSet
EndChar

StartChar: oe
Encoding: 250 339 147
Width: 600
Flags: MW
HStem: -14 86<148.5 217 408.5 448> 198 82<350 486 337 571 350 350> 389 86<152 215.5 406 434.5>
VStem: 3 90<183.5 278.5 183.5 282> 268 69<280 280 280 287.5> 486 90<280 280>
LayerCount: 2
Fore
SplineSet
571 198 m 1
 350 198 l 1
 355 122 382 72 435 72 c 0
 461 72 507 83 517 87 c 0
 520 88 539 95 543 97 c 0
 545 97 546 98 552 100 c 1
 582 19 l 1
 572 15 l 2
 542 3 494 -14 433 -14 c 0
 351 -14 317 30 304 47 c 1
 291 29 259 -14 175 -14 c 0
 96 -14 66 23 51 43 c 0
 36 63 3 122 3 222 c 0
 3 342 43 475 184 475 c 0
 267 475 299 433 309 419 c 1
 320 433 356 475 420 475 c 0
 553 475 576 311 576 260 c 0
 576 238 574 221 571 198 c 1
337 280 m 1
 486 280 l 1
 485 364 449 389 420 389 c 0
 392 389 342 371 337 280 c 1
93 227 m 0
 93 140 115 72 182 72 c 0
 256 72 268 152 268 230 c 0
 268 345 247 389 184 389 c 0
 120 389 93 330 93 227 c 0
EndSplineSet
EndChar

StartChar: germandbls
Encoding: 251 223 148
Width: 600
Flags: W
HStem: -14 87<335.5 394.5 335.5 418.5> 0 82<53 127 53 214 53 127> 316 82<251 251> 555 88<267.5 324.5>
VStem: 127 87<82 448 0 453 0 510> 370 90<448 506> 433 92<168.5 210 121.5 225.5>
LayerCount: 2
Fore
SplineSet
53 82 m 1x7a
 127 82 l 1
 127 453 l 2
 127 567 203 643 304 643 c 0
 404 643 460 566 460 484 c 0x7c
 460 412 421 382 401 367 c 1
 499 326 525 244 525 176 c 0
 525 67 471 -14 366 -14 c 0
 296 -14 266 18 251 35 c 1
 251 130 l 1
 280 101 313 73 358 73 c 0
 431 73 433 158 433 179 c 0xba
 433 272 366 312 251 316 c 1
 251 398 l 1
 292 400 370 410 370 485 c 0x7c
 370 527 347 555 302 555 c 0
 233 555 214 500 214 448 c 2
 214 0 l 1
 53 0 l 1
 53 82 l 1x7a
EndSplineSet
EndChar

StartChar: copyright
Encoding: 256 169 149
Width: 600
Flags: MW
HStem: 13 58<236 364 236 380> 132 51<298 308> 428 46<292 337 254 343> 541 58<235.5 364.5>
VStem: 7 58<240.5 371 240.5 386.5> 136 91<271.5 348> 387 46<349 449> 535 58<240.5 371>
LayerCount: 2
Fore
SplineSet
433 449 m 1
 433 349 l 1
 387 349 l 1
 385 381 369 428 317 428 c 0
 267 428 227 389 227 314 c 0
 227 229 272 183 324 183 c 0
 378 183 400 223 407 238 c 1
 445 223 l 1
 409 132 317 132 299 132 c 0
 195 132 136 211 136 303 c 0
 136 393 196 474 312 474 c 0
 362 474 405 459 433 449 c 1
300 13 m 0
 140 13 7 142 7 306 c 0
 7 467 138 599 300 599 c 0
 463 599 593 467 593 306 c 0
 593 143 460 13 300 13 c 0
300 71 m 0
 428 71 535 175 535 306 c 0
 535 436 429 541 300 541 c 0
 171 541 65 436 65 306 c 0
 65 175 172 71 300 71 c 0
EndSplineSet
EndChar

StartChar: approxequalalt
Encoding: 257 -1 150
Width: 600
Flags: W
HStem: 146 102<79 521 79 521> 336 102<386 408 386 427> 393 102<199 220.5>
VStem: 79 444<146 443 248 443 383 443>
LayerCount: 2
Fore
SplineSet
521 248 m 1xd0
 521 146 l 1
 79 146 l 1
 79 248 l 1
 521 248 l 1xd0
466 510 m 1
 523 443 l 1
 492 392 460 336 394 336 c 0
 371 336 348 344 334 350 c 0
 328 352 301 364 295 366 c 2
 282 371 l 2xd0
 273 375 261 379 258 381 c 0
 233 392 226 393 215 393 c 0
 183 393 167 367 138 314 c 1
 79 383 l 1
 106 430 144 495 212 495 c 0xb0
 236 495 262 489 320 464 c 0
 373 441 379 438 393 438 c 0
 423 438 443 471 459 499 c 0
 460 500 465 508 466 510 c 1
EndSplineSet
EndChar

StartChar: twosuperior
Encoding: 258 178 151
Width: 600
Flags: W
HStem: 246 58<250 359 250 415> 580 59<272.5 307>
VStem: 169 59<537 548.5 537 577 537 577> 355 61<502 534.5> 359 56<304 361 246 361>
LayerCount: 2
Fore
SplineSet
359 361 m 1xe8
 415 361 l 1
 415 246 l 1xe8
 158 246 l 1
 158 299 l 1
 170 309 l 2
 203 336 256 386 282 410 c 0
 348 470 355 483 355 517 c 0
 355 552 325 580 289 580 c 0
 256 580 228 560 228 537 c 2
 231 519 l 1
 169 519 l 1
 169 577 l 1
 203 618 244 639 290 639 c 0
 360 639 416 584 416 516 c 0
 416 488 408 464 391 439 c 0xf0
 379 422 348 393 303 352 c 2
 250 304 l 1
 359 304 l 1
 359 361 l 1xe8
EndSplineSet
EndChar

StartChar: rightangle
Encoding: 259 8735 152
Width: 600
Flags: MW
HStem: 0 88<157 523 157 523> 434 20G<69 157 157 157>
VStem: 69 88<88 454 88 454 88 454>
LayerCount: 2
Fore
SplineSet
523 0 m 1
 69 0 l 1
 69 454 l 1
 157 454 l 1
 157 88 l 1
 523 88 l 1
 523 0 l 1
EndSplineSet
EndChar

StartChar: productdot
Encoding: 260 -1 153
Width: 600
Flags: MW
HStem: 228 170<277.5 321.5 277.5 323>
VStem: 206 188<286.5 339.5>
LayerCount: 2
Fore
SplineSet
300 398 m 0
 343 398 394 367 394 313 c 0
 394 260 346 228 300 228 c 0
 255 228 206 259 206 313 c 0
 206 366 255 398 300 398 c 0
EndSplineSet
EndChar

StartChar: alpha
Encoding: 261 945 154
Width: 600
Flags: W
HStem: -15 81<215.5 281 215.5 300> 0 82<534 597 534 597 475 597> 387 81<207.5 258> 456 20G<491 491>
VStem: 37 87<179.5 271.5 179.5 306.5>
LayerCount: 2
Fore
SplineSet
534 82 m 1x68
 597 82 l 1
 597 0 l 1
 475 0 l 1
 470 14 l 2x68
 461 40 454 59 430 119 c 1
 407 76 357 -15 243 -15 c 0
 111 -15 37 109 37 230 c 0
 37 383 139 468 237 468 c 0xa8
 348 468 404 365 430 316 c 1
 491 476 l 1
 573 458 l 1x58
 475 219 l 1
 484 200 500 165 506 151 c 2
 534 82 l 1x68
390 217 m 1
 364 280 333 325 309 352 c 0
 293 371 274 387 242 387 c 0
 173 387 124 315 124 228 c 0
 124 131 182 66 249 66 c 0xa8
 313 66 359 148 390 217 c 1
EndSplineSet
EndChar

StartChar: Sigma
Encoding: 262 931 155
Width: 600
Flags: W
HStem: 0 82<139 449 139 533> 501 82<147 439 147 147>
VStem: 444 86 451.5 81.5
LayerCount: 2
Fore
SplineSet
533 583 m 1xf0
 527 371 l 1
 449 371 l 1
 439 501 l 1xe0
 147 501 l 1
 308 307 l 1
 139 82 l 1
 449 82 l 1
 454 214 l 1
 533 214 l 1
 533 0 l 1xd0
 36 0 l 1
 36 73 l 1
 205 307 l 1
 36 510 l 1
 36 583 l 1
 533 583 l 1xf0
EndSplineSet
EndChar

StartChar: Tbar
Encoding: 263 358 156
Width: 600
Flags: MW
HStem: 0 82<141 257 344 462 141 257> 297 85<167 257 167 257 344 433> 501 82<130 257 130 130 344 471 344 344>
VStem: 40.5 83 257 87<82 297 82 297 382 501> 477.5 83
LayerCount: 2
Fore
SplineSet
50 583 m 1
 551 583 l 1
 570 319 l 1
 484 307 l 1
 471 501 l 1
 344 501 l 1
 344 382 l 1
 433 382 l 1
 433 297 l 1
 344 297 l 1
 344 82 l 1
 462 82 l 1
 462 0 l 1
 141 0 l 1
 141 82 l 1
 257 82 l 1
 257 297 l 1
 167 297 l 1
 167 382 l 1
 257 382 l 1
 257 501 l 1
 130 501 l 1
 117 307 l 1
 31 319 l 1
 50 583 l 1
EndSplineSet
EndChar

StartChar: SS270000
Encoding: 264 8993 157
Width: 600
Flags: MW
HStem: -243 161<97.5 133 91.5 191.5>
VStem: 239 122<-35 78 78 839>
LayerCount: 2
Fore
SplineSet
239 839 m 1
 361 839 l 1
 361 78 l 2
 361 -155 240 -243 143 -243 c 0
 52 -243 38 -180 38 -157 c 0
 38 -108 73 -82 110 -82 c 0
 156 -82 175 -111 187 -129 c 0
 193 -140 202 -151 213 -151 c 0
 233 -151 239 -133 239 -35 c 2
 239 839 l 1
EndSplineSet
EndChar

StartChar: Scedilla
Encoding: 265 350 158
Width: 600
Flags: W
HStem: -171 70<300.5 321.5 300.5 367.5> -78 146<266 266> -19 87<91 331.5> -19 227<91 166 86 172 91 91> -13 21G<346 346> -12 21G<274 274> 514 86<264 331 241.5 362.5> 573 20G<435 515 515 515>
VStem: 85 90<382 440.5 382 468.5> 94 82 270 151 431 80 435 90<129.5 196.5>
LayerCount: 2
Fore
SplineSet
346 -13 m 1x8ea8
 346 -17 l 1x8aa8
 359 -17 421 -40 421 -96 c 0
 421 -115 411 -171 324 -171 c 0
 271 -171 217 -157 195 -152 c 1
 206 -83 l 1
 214 -85 283 -101 318 -101 c 0x86a8
 325 -101 332 -101 337 -96 c 1
 334 -87 327 -86 266 -78 c 1xc2a8
 274 -12 l 1
 226 -3 208 11 180 41 c 1x8668
 172 -19 l 1
 91 -19 l 1
 93 1 94 15 94 48 c 0
 94 109 89 176 86 208 c 1
 166 208 l 1x9248
 173 133 205 68 302 68 c 0
 361 68 435 95 435 164 c 0
 435 229 385 235 281 248 c 0
 169 262 85 310 85 415 c 0
 85 522 192 600 291 600 c 0
 371 600 412 553 427 537 c 1xa288
 435 593 l 1x8588
 515 593 l 1
 513 571 511 542 511 507 c 0x8590
 511 461 515 417 519 371 c 1
 440 360 l 1x8690
 433 414 421 514 304 514 c 0
 224 514 175 464 175 417 c 0
 175 347 263 338 307 333 c 0
 374 325 414 322 454 296 c 0
 490 273 525 231 525 166 c 0x8a88
 525 82 461 3 346 -13 c 1x8ea8
EndSplineSet
EndChar

StartChar: brokenbar
Encoding: 266 166 159
Width: 600
Flags: MW
HStem: -184 857<251 349 251 349>
VStem: 251 98<-184 191 -184 191 298 673>
LayerCount: 2
Fore
SplineSet
349 673 m 1
 349 298 l 1
 251 298 l 1
 251 673 l 1
 349 673 l 1
349 191 m 1
 349 -184 l 1
 251 -184 l 1
 251 191 l 1
 349 191 l 1
EndSplineSet
EndChar

StartChar: SM680000
Encoding: 267 8976 160
Width: 600
Flags: MW
HStem: 373 89<158 523 158 158>
VStem: 69 89<163 373 163 462>
LayerCount: 2
Fore
SplineSet
523 462 m 1
 523 373 l 1
 158 373 l 1
 158 163 l 1
 69 163 l 1
 69 462 l 1
 523 462 l 1
EndSplineSet
EndChar

StartChar: arrowright
Encoding: 268 8594 161
Width: 600
Flags: MW
HStem: 257 60<26 435 26 435>
VStem: 26 556<283.5 293.5 283.5 317 283.5 317>
LayerCount: 2
Fore
SplineSet
26 257 m 1
 26 317 l 1
 435 317 l 1
 417 346 395 386 395 402 c 0
 395 409 400 421 416 421 c 0
 424 421 427 418 453 391 c 0
 487 354 521 335 565 309 c 0
 572 305 582 298 582 289 c 0
 582 278 580 277 538 251 c 0
 494 223 474 210 436 165 c 0
 431 160 426 154 416 154 c 0
 401 154 395 166 395 173 c 0
 395 175 399 204 435 257 c 1
 26 257 l 1
EndSplineSet
EndChar

StartChar: approxequal
Encoding: 269 8776 162
Width: 600
Flags: W
HStem: 117 102<386 408 386 427> 174 102<199 220.5> 336 102<386 408 386 427> 393 102<199 220.5>
VStem: 79 444<164 224 224 383>
LayerCount: 2
Fore
SplineSet
466 510 m 1x78
 523 443 l 1
 492 392 460 336 394 336 c 0
 371 336 348 344 334 350 c 0
 328 352 301 364 295 366 c 2
 282 371 l 2xa8
 273 375 261 379 258 381 c 0
 233 392 226 393 215 393 c 0
 183 393 167 367 138 314 c 1
 79 383 l 1
 106 430 144 495 212 495 c 0x58
 236 495 262 489 320 464 c 0
 373 441 379 438 393 438 c 0
 423 438 443 471 459 499 c 0
 460 500 465 508 466 510 c 1x78
466 291 m 1
 523 224 l 1
 492 173 460 117 394 117 c 0
 371 117 348 125 334 131 c 0
 328 133 301 145 295 147 c 2
 282 152 l 2x98
 273 156 261 160 258 162 c 0
 233 173 226 174 215 174 c 0
 183 174 167 148 138 95 c 1
 79 164 l 1
 106 211 144 276 212 276 c 0x58
 236 276 262 270 320 245 c 0
 373 222 379 219 393 219 c 0
 423 219 443 252 459 280 c 0
 460 281 465 289 466 291 c 1
EndSplineSet
EndChar

StartChar: club
Encoding: 270 9827 163
Width: 600
Flags: MW
HStem: 0 16<111 111 107 111> 125 21G<109.5 176.5 436 492>
VStem: 295 10<232 232 232 234 232 234>
LayerCount: 2
Fore
SplineSet
495 0 m 1
 107 0 l 1
 111 16 l 1
 117 17 l 1
 197 35 217 44 246 78 c 0
 277 114 295 164 295 212 c 2
 295 234 l 1
 293 234 l 1
 260 163 208 125 145 125 c 0
 74 125 18 181 18 253 c 0
 18 321 66 377 128 379 c 0
 157 377 166 374 201 356 c 1
 203 358 l 1
 178 398 172 412 172 439 c 0
 172 509 227 563 299 563 c 0
 370 563 426 509 426 441 c 0
 426 411 417 387 395 358 c 1
 397 356 l 1
 411 364 l 2
 438 377 449 380 469 380 c 0
 532 380 582 324 582 255 c 0
 582 183 527 125 457 125 c 0
 415 125 368 149 338 184 c 0
 327 196 320 207 307 234 c 1
 305 232 l 1
 306 171 314 137 336 103 c 0
 368 54 404 33 482 18 c 2
 491 16 l 1
 495 0 l 1
EndSplineSet
EndChar

StartChar: SS010000
Encoding: 271 9787 164
Width: 600
Flags: MW
HStem: 0 110<268 329.5 268 377.5> 403 160<222 224.5 222 403>
VStem: 18 99<314 314 314 359.5> 255 94<349 372 348.5 372.5> 483 99<314 316 314 314>
LayerCount: 2
Fore
SplineSet
300 563 m 0
 455 563 582 437 582 282 c 0
 582 126 455 0 300 0 c 0
 145 0 18 126 18 282 c 0
 18 437 144 563 300 563 c 0
213 403 m 0
 189 403 170 384 170 361 c 0
 170 337 189 318 213 318 c 0
 236 318 255 337 255 361 c 0
 255 384 236 403 213 403 c 0
391 403 m 0
 368 403 349 384 349 360 c 0
 349 337 368 318 391 318 c 0
 415 318 434 337 434 360 c 0
 434 384 415 403 391 403 c 0
483 316 m 1
 483 314 l 1
 481 316 l 1
 475 277 467 261 447 238 c 0
 410 195 363 175 300 175 c 0
 238 175 191 195 154 238 c 0
 134 261 126 277 119 316 c 1
 117 314 l 1
 122 249 131 219 154 184 c 0
 186 135 236 110 300 110 c 0
 359 110 406 131 439 172 c 0
 468 209 478 244 483 316 c 1
EndSplineSet
EndChar

StartChar: SM490000
Encoding: 272 -1 165
Width: 600
Flags: MW
HStem: 0 21G<71 71 531 531> 72 64<263.5 334 263.5 347.5> 533 64<264.5 335>
VStem: 83 64<307.5 364 307.5 382.5> 453 64<334 334>
LayerCount: 2
Fore
SplineSet
21 612 m 1
 71 670 l 1
 156 616 217 597 300 597 c 0
 385 597 443 615 531 670 c 1
 579 612 l 1
 536 517 516 430 517 334 c 0
 518 234 538 143 579 59 c 1
 531 0 l 1
 457 51 390 72 305 72 c 0
 218 72 148 51 71 0 c 1
 21 59 l 1
 62 142 83 234 83 334 c 0
 83 431 63 518 21 612 c 1
100 588 m 1
 114 535 l 1
 139 465 147 394 147 334 c 0
 147 281 137 200 115 135 c 2
 100 81 l 1
 177 122 229 136 298 136 c 0
 370 136 426 121 499 81 c 1
 484 135 l 2
 466 199 453 281 453 334 c 0
 453 394 458 464 483 535 c 2
 501 586 l 1
 499 588 l 1
 444 551 372 533 298 533 c 0
 231 533 168 550 100 588 c 1
EndSplineSet
EndChar

StartChar: arrowup
Encoding: 273 8593 166
Width: 600
Flags: MW
HStem: 0 21G<271 331 271 271> 568 20G<294.5 304.5>
VStem: 271 60<0 441>
LayerCount: 2
Fore
SplineSet
331 0 m 1
 271 0 l 1
 271 441 l 1
 242 423 202 401 186 401 c 0
 179 401 167 406 167 422 c 0
 167 430 170 433 197 459 c 0
 233 494 253 527 279 571 c 0
 283 578 290 588 299 588 c 0
 310 588 311 586 337 544 c 0
 364 500 378 480 423 442 c 0
 428 437 434 432 434 422 c 0
 434 407 422 401 415 401 c 0
 413 401 384 405 331 441 c 1
 331 0 l 1
EndSplineSet
EndChar

StartChar: SF020000
Encoding: 274 9492 167
Width: 600
Flags: MW
HStem: 216 72<336 600 336 600>
VStem: 264 72<288 288 288 792>
LayerCount: 2
Fore
SplineSet
336 288 m 1
 600 288 l 1
 600 216 l 1
 264 216 l 1
 264 792 l 1
 336 792 l 1
 336 288 l 1
EndSplineSet
EndChar

StartChar: SF610000
Encoding: 275 9608 168
Width: 600
Flags: MW
HStem: -288 1080<0 600 0 600>
VStem: 0 600<-288 792 -288 792>
LayerCount: 2
Fore
SplineSet
0 -288 m 1
 0 792 l 1
 600 792 l 1
 600 -288 l 1
 0 -288 l 1
EndSplineSet
EndChar

StartChar: commasuperior
Encoding: 276 -1 169
Width: 600
Flags: MW
HStem: 197 174<254 283 194 368>
VStem: 194 174
LayerCount: 2
Fore
SplineSet
254 371 m 1
 368 371 l 1
 283 197 l 1
 194 197 l 1
 254 371 l 1
EndSplineSet
EndChar

StartChar: zeroslash
Encoding: 277 -1 170
Width: 600
Flags: W
HStem: -14 83<287.5 346 287.5 384> -3 21G<237 237> 556 83<251.5 310.5> 606 20G<363 363> 623 20G<472 472>
VStem: 97 91<302.5 353 276.5 384> 412 91<268 325 231.5 350.5>
LayerCount: 2
Fore
SplineSet
363 626 m 1xb6
 382 677 l 1x96
 472 643 l 1
 443 564 l 1
 462 538 469 519 473 508 c 0
 499 437 503 345 503 305 c 0
 503 158 468 -14 300 -14 c 0x8e
 267 -14 252 -8 237 -3 c 1
 214 -65 l 1
 124 -30 l 1
 157 60 l 1
 139 86 132 104 128 115 c 0
 101 191 97 285 97 320 c 0
 97 448 125 639 298 639 c 0x66
 334 639 350 632 363 626 c 1xb6
202 180 m 1
 335 550 l 1
 327 553 318 556 303 556 c 0xa6
 200 556 188 394 188 312 c 0
 188 241 197 200 200 180 c 1
 202 180 l 1
398 445 m 1
 265 75 l 1
 272 72 280 69 295 69 c 0
 397 69 412 221 412 315 c 0
 412 386 404 424 400 445 c 1
 398 445 l 1
EndSplineSet
EndChar

StartChar: Tcedilla
Encoding: 278 354 171
Width: 600
Flags: W
HStem: -171 70<278.5 299.5 278.5 345.5> -18 21G<324 330.5> 0 82<141 253 141 257 344 462 141 326> 501 82<130 257 130 130 344 344 344 471>
VStem: 40.5 83 248.5 76.5 257 87<82 501 82 501> 477.5 83
LayerCount: 2
Fore
SplineSet
326 0 m 1xbb
 324 -18 l 1
 337 -18 399 -40 399 -96 c 0
 399 -115 389 -171 302 -171 c 0xdb
 249 -171 195 -157 173 -152 c 1
 184 -83 l 1
 193 -85 261 -101 296 -101 c 0
 303 -101 310 -101 315 -96 c 1
 312 -87 305 -86 244 -78 c 1
 253 0 l 1xbd
 141 0 l 1
 141 82 l 1
 257 82 l 1
 257 501 l 1
 130 501 l 1
 117 307 l 1
 31 319 l 1
 50 583 l 1
 551 583 l 1
 570 319 l 1
 484 307 l 1
 471 501 l 1
 344 501 l 1
 344 82 l 1
 462 82 l 1
 462 0 l 1
 326 0 l 1xbb
EndSplineSet
EndChar

StartChar: carriagereturn
Encoding: 279 8629 172
Width: 600
Flags: MW
HStem: 257 60<165 514 165 574 165 514>
VStem: 514 60<317 527>
LayerCount: 2
Fore
SplineSet
574 257 m 1
 165 257 l 1
 203 202 205 173 205 173 c 2
 205 168 201 154 185 154 c 0
 175 154 169 160 151 181 c 0
 137 198 112 223 37 266 c 0
 26 272 18 276 18 289 c 0
 18 300 32 307 43 313 c 0
 93 340 130 369 159 404 c 0
 167 413 174 421 184 421 c 0
 201 421 205 408 205 402 c 0
 205 384 181 342 165 317 c 1
 514 317 l 1
 514 527 l 1
 574 527 l 1
 574 257 l 1
EndSplineSet
EndChar

StartChar: diamond
Encoding: 280 9830 173
Width: 600
Flags: MW
HStem: -11 21G
VStem: 90 420<276 276>
LayerCount: 2
Fore
SplineSet
100 265 m 1
 90 276 l 1
 105 294 116 308 145 344 c 0
 189 400 199 412 214 434 c 0
 249 481 274 518 299 563 c 1
 328 513 361 466 414 395 c 0
 447 353 475 316 492 297 c 0
 498 290 501 286 510 276 c 1
 495 261 482 245 458 215 c 2
 402 142 l 2
 367 96 327 37 300 -11 c 1
 288 12 273 35 248 71 c 0
 201 137 169 180 149 205 c 2
 100 265 l 1
EndSplineSet
EndChar

StartChar: SF440000
Encoding: 281 9580 174
Width: 600
Flags: MW
HStem: 144 72<0 192 0 264 408 408 408 600> 288 72<0 192 0 264 0 192 408 600>
VStem: 192 72<-288 144 144 144 360 792> 336 72<-288 144 -288 216 360 792>
LayerCount: 2
Fore
SplineSet
264 216 m 1
 264 -288 l 1
 192 -288 l 1
 192 144 l 1
 0 144 l 1
 0 216 l 1
 264 216 l 1
264 288 m 1
 0 288 l 1
 0 360 l 1
 192 360 l 1
 192 792 l 1
 264 792 l 1
 264 288 l 1
336 216 m 1
 600 216 l 1
 600 144 l 1
 408 144 l 1
 408 -288 l 1
 336 -288 l 1
 336 216 l 1
336 288 m 1
 336 792 l 1
 408 792 l 1
 408 360 l 1
 600 360 l 1
 600 288 l 1
 336 288 l 1
EndSplineSet
EndChar

StartChar: trademark
Encoding: 282 8482 175
Width: 600
Flags: W
HStem: 259 39<52 69 52 69 177 194 276 289.5 357 373> 540 43<90 90 156 156> 546 37<276 290.5 585 598>
VStem: 5 32 90 66<314 540> 209 37<487 487> 306 37<318 477> 507 62<314 477 477 477>
LayerCount: 2
Fore
SplineSet
52 259 m 1xaf
 52 298 l 1
 86 298 90 298 90 314 c 2
 90 540 l 1
 42 541 38 531 37 487 c 1
 0 487 l 1xdf
 4 538 5 546 5 583 c 1
 241 583 l 1
 242 545 242 538 246 487 c 1xbf
 209 487 l 1
 208 530 206 541 156 540 c 1xcf
 156 314 l 2
 156 298 160 298 194 298 c 1
 194 259 l 1
 52 259 l 1xaf
276 546 m 1xaf
 276 583 l 1
 373 583 l 1
 437 392 l 1
 439 392 l 1
 503 583 l 1
 598 583 l 1
 598 546 l 1
 572 546 569 546 569 531 c 2
 569 314 l 2
 569 300 572 300 598 298 c 1
 598 259 l 1
 476 259 l 1
 476 298 l 1
 504 299 507 299 507 314 c 2
 507 477 l 1
 505 477 l 1
 438 259 l 1
 417 259 l 1
 345 477 l 1
 343 477 l 1
 343 318 l 2
 343 305 343 299 357 298 c 2
 373 298 l 1
 373 259 l 1
 276 259 l 1
 276 298 l 1
 303 298 306 299 306 318 c 2
 306 525 l 2
 306 546 305 546 276 546 c 1xaf
EndSplineSet
EndChar

StartChar: sigma
Encoding: 283 963 176
Width: 600
Flags: MW
HStem: -15 84<252.5 337.5 252.5 365.5> 390 83<252.5 596>
VStem: 53 87<185.5 270.5> 450 87<185 233 162.5 276>
LayerCount: 2
Fore
SplineSet
596 473 m 1
 596 388 l 1
 457 397 l 1
 455 395 l 1
 536 339 537 243 537 223 c 0
 537 102 435 -15 296 -15 c 0
 152 -15 53 106 53 230 c 0
 53 311 96 387 158 429 c 0
 223 473 316 473 369 473 c 2
 596 473 l 1
297 390 m 0
 208 390 140 319 140 229 c 0
 140 142 209 69 296 69 c 0
 379 69 450 141 450 229 c 0
 450 323 377 390 297 390 c 0
EndSplineSet
EndChar

StartChar: Kcedilla
Encoding: 284 310 177
Width: 600
Flags: W
HStem: -171 70<351.5 372.5 351.5 418.5> -18 24<397 400 327 403.5> 0 82<48 130 217 299 48 130 502 598> 501 82<48 130 48 299 217 299 217 217 48 342 342 393 515 515 515 570>
VStem: 130 87<82 210 327 501> 322 150 342 228<501 583 501 583>
LayerCount: 2
Fore
SplineSet
48 583 m 1xba
 299 583 l 1
 299 501 l 1
 217 501 l 1
 217 327 l 1
 393 501 l 1
 342 501 l 1
 342 583 l 1
 570 583 l 1
 570 501 l 1
 515 501 l 1
 330 318 l 1
 415 264 457 176 502 82 c 1
 598 82 l 1
 598 0 l 1
 441 0 l 1
 392 127 340 215 268 258 c 1
 217 210 l 1
 217 82 l 1
 299 82 l 1
 299 0 l 1
 48 0 l 1
 48 82 l 1
 130 82 l 1
 130 501 l 1
 48 501 l 1
 48 583 l 1xba
400 6 m 1xdc
 397 -18 l 1
 410 -18 472 -40 472 -96 c 0
 472 -115 462 -171 375 -171 c 0
 322 -171 268 -157 246 -152 c 1
 258 -83 l 1
 266 -85 334 -101 369 -101 c 0
 376 -101 383 -101 388 -96 c 1
 385 -87 378 -86 317 -78 c 1
 327 6 l 1
 400 6 l 1xdc
EndSplineSet
EndChar

StartChar: tquoteright
Encoding: 285 -1 178
Width: 600
Flags: MW
HStem: -14 86<244 287.5 218.5 306.5> 361 82<27 93 27 93 180 408> 563 20G<93 180 180 180 528 672 672 672>
VStem: 93 87<193 361 443 583>
LayerCount: 2
Fore
SplineSet
93 583 m 1
 180 583 l 1
 180 443 l 1
 408 443 l 1
 408 361 l 1
 180 361 l 1
 180 193 l 2
 180 124 179 72 258 72 c 0
 317 72 364 92 422 116 c 2
 454 129 l 1
 487 50 l 1
 435 26 347 -14 266 -14 c 0
 222 -14 165 0 135 31 c 0
 94 74 93 133 93 193 c 2
 93 361 l 1
 27 361 l 1
 27 443 l 1
 93 443 l 1
 93 583 l 1
528 583 m 1
 672 583 l 1
 550 309 l 1
 442 309 l 1
 528 583 l 1
EndSplineSet
EndChar

StartChar: aogonek
Encoding: 286 261 179
Width: 600
Flags: W
HStem: -144 66<405 475> -14 86<200.5 231.5 200.5 263> 0 82<526 561 526 526> 225 82<213.5 296.5 186 303.5> 388 86<255 339.5>
VStem: 48 90<122.5 147 122.5 172.5> 341 91<-63 -52> 388 87<0 307 48 307 162 214 214 214 299 307 82 316.5>
LayerCount: 2
Fore
SplineSet
561 82 m 1x7d
 561 0 l 1
 526 0 l 1
 491 -8 432 -31 432 -55 c 0
 432 -71 449 -78 463 -78 c 0xbd
 487 -78 499 -71 538 -49 c 1
 523 -115 l 1
 500 -130 477 -144 431 -144 c 0
 379 -144 341 -112 341 -72 c 0xbe
 341 -32 376 -10 393 -2 c 1
 393 0 l 1
 388 0 l 1x3d
 388 48 l 1
 355 24 303 -14 223 -14 c 0x5d
 117 -14 48 64 48 142 c 0
 48 203 98 307 274 307 c 0
 319 307 352 303 388 299 c 1
 388 334 389 388 290 388 c 0
 220 388 152 358 115 342 c 1
 81 422 l 1
 142 447 210 474 291 474 c 0
 419 474 475 410 475 307 c 2
 475 82 l 1
 561 82 l 1x7d
388 162 m 1x5d
 388 214 l 1
 353 219 323 225 284 225 c 0
 143 225 138 153 138 141 c 0
 138 104 179 72 222 72 c 0
 241 72 310 76 388 162 c 1x5d
EndSplineSet
EndChar

StartChar: SF280000
Encoding: 287 9563 180
Width: 600
Flags: MW
HStem: 144 72<0 264 0 336 0 264> 288 72<0 264 0 264>
VStem: 264 72<216 288 288 288 360 792 144 792>
LayerCount: 2
Fore
SplineSet
336 792 m 1
 336 144 l 1
 0 144 l 1
 0 216 l 1
 264 216 l 1
 264 288 l 1
 0 288 l 1
 0 360 l 1
 264 360 l 1
 264 792 l 1
 336 792 l 1
EndSplineSet
EndChar

StartChar: tbar
Encoding: 288 359 181
Width: 600
Flags: MW
HStem: -14 86<310 353.5 284.5 372.5> 245 78<93 159 93 159 246 474> 361 82<93 159 93 159 246 474> 563 20G<159 246 246 246>
VStem: 159 87<193 245 158.5 245 323 361 443 583>
LayerCount: 2
Fore
SplineSet
159 583 m 1
 246 583 l 1
 246 443 l 1
 474 443 l 1
 474 361 l 1
 246 361 l 1
 246 323 l 1
 474 323 l 1
 474 245 l 1
 246 245 l 1
 246 193 l 2
 246 124 245 72 324 72 c 0
 383 72 430 92 488 116 c 2
 520 129 l 1
 553 50 l 1
 501 26 413 -14 332 -14 c 0
 288 -14 231 0 201 31 c 0
 160 74 159 133 159 193 c 2
 159 245 l 1
 93 245 l 1
 93 323 l 1
 159 323 l 1
 159 361 l 1
 93 361 l 1
 93 443 l 1
 159 443 l 1
 159 583 l 1
EndSplineSet
EndChar

StartChar: SF600000
Encoding: 289 9600 182
Width: 600
Flags: MW
HStem: 252 540<0 600 0 600>
VStem: 0 600<252 792 252 792>
LayerCount: 2
Fore
SplineSet
0 252 m 1
 0 792 l 1
 600 792 l 1
 600 252 l 1
 0 252 l 1
EndSplineSet
EndChar

StartChar: registered
Encoding: 290 174 183
Width: 600
Flags: MW
HStem: 13 58<236 364 236 380> 153 34<160 175.5 296.5 302 160 175.5 444.5 453> 287 37<269 279.5> 431 37<276 294> 541 58<235.5 364.5>
VStem: 7 58<240.5 371 240.5 386.5> 195 74<203 208 208 287 324 414> 345 74<381.5 405> 535 58<240.5 371>
LayerCount: 2
Fore
SplineSet
160 432 m 1
 160 468 l 1
 302 468 l 2
 329 468 419 468 419 385 c 0
 419 378 419 327 359 304 c 1
 371 295 380 287 402 242 c 0
 411 222 422 198 430 192 c 0
 434 187 436 187 453 187 c 1
 453 153 l 1
 407 153 l 2
 366 153 356 161 330 223 c 0
 312 268 306 278 298 283 c 0
 292 287 290 287 269 287 c 1
 269 208 l 2
 269 191 269 189 275 188 c 0
 278 187 291 187 302 187 c 1
 302 153 l 1
 160 153 l 1
 160 187 l 1
 191 187 195 187 195 203 c 2
 195 415 l 2
 195 431 193 432 176 432 c 2
 160 432 l 1
269 414 m 2
 269 324 l 1
 306 325 345 326 345 379 c 0
 345 431 305 431 283 431 c 0
 269 431 269 427 269 414 c 2
300 13 m 0
 140 13 7 142 7 306 c 0
 7 467 138 599 300 599 c 0
 463 599 593 467 593 306 c 0
 593 143 460 13 300 13 c 0
300 71 m 0
 428 71 535 175 535 306 c 0
 535 436 429 541 300 541 c 0
 171 541 65 436 65 306 c 0
 65 175 172 71 300 71 c 0
EndSplineSet
EndChar

StartChar: threeeighths
Encoding: 291 8540 184
Width: 600
Flags: W
HStem: -88 56<454.5 491 454.5 508.5> 81 58<456.5 489.5 456.5 491.5> 247 57<455.5 490.5> 251 57<115 150 115 166> 429 57<95 104 104 105 95 104> 444 20G 585 58<117 143> 604 20G<590 590>
VStem: 181 60<530.5 552.5> 200 59<352.5 390> 346 60<8.5 40 8.5 42.5> 352 60<180 210 180 226> 533 60<180 210> 539 60<8.5 40>
LayerCount: 2
Fore
SplineSet
346 26 m 0xe664
 346 59 363 91 392 113 c 1
 366 136 352 164 352 196 c 0
 352 256 405 304 473 304 c 0
 540 304 593 256 593 196 c 0xe658
 593 164 579 135 553 113 c 1
 585 87 599 59 599 25 c 0
 599 -38 544 -88 473 -88 c 0
 402 -88 346 -38 346 26 c 0xe664
412 195 m 0xe658
 412 165 440 139 473 139 c 0
 506 139 533 164 533 195 c 0
 533 225 508 247 473 247 c 0
 438 247 412 225 412 195 c 0xe658
406 24 m 0xeaa4
 406 -7 436 -32 473 -32 c 0
 509 -32 539 -7 539 24 c 0
 539 56 510 81 473 81 c 0
 435 81 406 56 406 24 c 0xeaa4
39 547 m 1
 9 595 l 1
 67 633 92 643 127 643 c 0
 192 643 241 598 241 540 c 0xe6a4
 241 510 230 485 209 464 c 1xe664
 242 442 259 410 259 371 c 0
 259 302 204 251 128 251 c 0
 97 251 76 256 30 275 c 2
 3 286 l 1
 26 339 l 1
 76 315 101 308 129 308 c 0
 171 308 200 334 200 371 c 0
 200 409 174 432 128 430 c 2xda64
 105 429 l 1
 95 429 l 1
 95 486 l 1
 104 486 l 2
 140 486 148 488 160 498 c 0
 174 508 181 522 181 539 c 0
 181 566 159 585 127 585 c 0
 107 585 91 579 62 561 c 2
 39 547 l 1
542 657 m 1
 590 624 l 1xe564
 69 -94 l 1
 23 -58 l 1
 542 657 l 1
EndSplineSet
EndChar

StartChar: delta
Encoding: 292 948 185
Width: 600
Flags: W
HStem: -15 81<256.5 341.5 256.5 363> 554 79<239 483 239 239>
VStem: 69 85<175.5 256> 120 119<552 554 552 633 552 633> 446 85<178 261>
LayerCount: 2
Fore
SplineSet
483 633 m 1xe8
 483 554 l 1
 239 554 l 1
 239 552 l 1xd8
 384 444 l 2
 461 386 531 332 531 217 c 0
 531 88 426 -15 300 -15 c 0
 170 -15 69 90 69 216 c 0xe8
 69 296 117 412 259 438 c 1
 178 501 l 2
 168 509 158 517 151 522 c 0
 132 536 129 540 120 550 c 1
 120 633 l 1xd8
 483 633 l 1xe8
299 363 m 0xe8
 216 363 154 302 154 215 c 0
 154 136 215 66 298 66 c 0
 385 66 446 138 446 218 c 0
 446 304 382 363 299 363 c 0xe8
EndSplineSet
EndChar

StartChar: SF420000
Encoding: 293 9568 186
Width: 600
Flags: MW
HStem: 144 72<408 600 408 408> 288 72<408 600 408 600>
VStem: 192 72<-288 792 -288 792> 336 72<-288 144 -288 216 360 792>
LayerCount: 2
Fore
SplineSet
192 -288 m 1
 192 792 l 1
 264 792 l 1
 264 -288 l 1
 192 -288 l 1
336 216 m 1
 600 216 l 1
 600 144 l 1
 408 144 l 1
 408 -288 l 1
 336 -288 l 1
 336 216 l 1
336 288 m 1
 336 792 l 1
 408 792 l 1
 408 360 l 1
 600 360 l 1
 600 288 l 1
 336 288 l 1
EndSplineSet
EndChar

StartChar: SF480000
Encoding: 294 9573 187
Width: 600
Flags: MW
HStem: 216 72<0 192 0 600 264 336 264 264 408 408 408 600>
VStem: 192 72<-288 216 -288 216> 336 72<-288 216 -288 216>
LayerCount: 2
Fore
SplineSet
336 216 m 1
 264 216 l 1
 264 -288 l 1
 192 -288 l 1
 192 216 l 1
 0 216 l 1
 0 288 l 1
 600 288 l 1
 600 216 l 1
 408 216 l 1
 408 -288 l 1
 336 -288 l 1
 336 216 l 1
EndSplineSet
EndChar

StartChar: SM570001
Encoding: 295 9688 188
Width: 600
Flags: MW
HStem: 0 141<273 327 273 539> 338 141<273 327>
VStem: 61 140<212 266.5 212 479> 399 140<212 266.5>
LayerCount: 2
Fore
SplineSet
61 0 m 1
 61 479 l 1
 539 479 l 1
 539 0 l 1
 61 0 l 1
300 338 m 0
 246 338 201 294 201 239 c 0
 201 185 246 141 300 141 c 0
 354 141 399 185 399 239 c 0
 399 294 354 338 300 338 c 0
EndSplineSet
EndChar

StartChar: SF010000
Encoding: 296 9484 189
Width: 600
Flags: MW
HStem: 216 72<336 336 336 600>
VStem: 264 72<-288 216 -288 288>
LayerCount: 2
Fore
SplineSet
336 216 m 1
 336 -288 l 1
 264 -288 l 1
 264 288 l 1
 600 288 l 1
 600 216 l 1
 336 216 l 1
EndSplineSet
EndChar

StartChar: dquoteright
Encoding: 297 -1 190
Width: 600
Flags: W
HStem: -10 86<206.5 258> 0 82<477 558 477 558> 309 274<602 623 515 746> 371 86<207.5 266.5 184 293> 563 20G<602 746 746 746> 607 20G<238 238> 628 20G<477 477>
VStem: 11 92<181.5 269.5 181.5 294> 390 87<0 648 42 648 405 554 554 554>
LayerCount: 2
Fore
SplineSet
238 627 m 1xdf80
 477 648 l 1
 477 82 l 1
 558 82 l 1
 558 0 l 1
 390 0 l 1x5b80
 390 42 l 1
 335 -5 272 -10 244 -10 c 0
 112 -10 11 99 11 224 c 0
 11 364 126 457 242 457 c 0
 291 457 347 439 390 405 c 1
 390 554 l 1
 229 542 l 1
 238 627 l 1xdf80
388 223 m 0
 388 288 341 371 245 371 c 0
 170 371 103 314 103 225 c 0
 103 138 168 76 245 76 c 0x9b80
 320 76 388 137 388 223 c 0
602 583 m 1x5b80
 746 583 l 1
 623 309 l 1
 515 309 l 1x6380
 602 583 l 1x5b80
EndSplineSet
EndChar

StartChar: SS000000
Encoding: 298 9786 191
Width: 600
Flags: MW
HStem: 0 38<232.5 367.5 232.5 377.5> 110 65<269 329.5> 321 78<205 227 373.5 395> 525 38<232.5 367.5>
VStem: 18 38<214.5 349.5 214.5 359.5> 177 78<349.5 371> 345 78<348.5 370> 544 38<214.5 349.5>
LayerCount: 2
Fore
SplineSet
300 563 m 0
 455 563 582 437 582 282 c 0
 582 126 455 0 300 0 c 0
 145 0 18 126 18 282 c 0
 18 437 144 563 300 563 c 0
300 525 m 0
 165 525 56 417 56 282 c 0
 56 147 165 38 300 38 c 0
 435 38 544 147 544 282 c 0
 544 417 435 525 300 525 c 0
216 399 m 0
 238 399 255 382 255 360 c 0
 255 339 238 321 216 321 c 0
 194 321 177 339 177 360 c 0
 177 382 194 399 216 399 c 0
384 399 m 0
 406 399 423 381 423 359 c 0
 423 337 406 321 384 321 c 0
 363 321 345 338 345 359 c 0
 345 381 363 399 384 399 c 0
483 316 m 1
 478 244 467 209 438 172 c 0
 406 131 359 110 300 110 c 0
 236 110 186 135 154 184 c 0
 131 219 122 249 117 316 c 1
 126 277 134 261 154 238 c 0
 191 195 238 175 300 175 c 0
 363 175 410 195 447 238 c 0
 467 261 474 277 483 316 c 1
EndSplineSet
EndChar

StartChar: plussuperior
Encoding: 299 8314 192
Width: 600
Flags: W
HStem: 405 67<133 262 133 262 338 467> 405 183<133 338 133 338 262 467 262 338>
VStem: 262 76<288 405 288 405 472 588>
LayerCount: 2
Fore
SplineSet
262 588 m 1xe0
 338 588 l 1x60
 338 472 l 1
 467 472 l 1
 467 405 l 1
 338 405 l 1
 338 288 l 1
 262 288 l 1
 262 405 l 1
 133 405 l 1
 133 472 l 1
 262 472 l 1xa0
 262 588 l 1xe0
EndSplineSet
EndChar

StartChar: divide
Encoding: 300 247 193
Width: 600
Flags: MW
HStem: 76 126<282 318> 269 88<54 546 54 546> 424 126<281.5 318 281.5 318.5>
VStem: 237 126<123 156.5 123 157 471 503.5>
LayerCount: 2
Fore
SplineSet
300 550 m 0
 336 550 363 521 363 487 c 0
 363 455 337 424 300 424 c 0
 262 424 237 455 237 487 c 0
 237 520 263 550 300 550 c 0
54 357 m 1
 546 357 l 1
 546 269 l 1
 54 269 l 1
 54 357 l 1
300 202 m 0
 336 202 363 173 363 140 c 0
 363 106 336 76 300 76 c 0
 264 76 237 106 237 140 c 0
 237 174 264 202 300 202 c 0
EndSplineSet
EndChar

StartChar: uogonek
Encoding: 301 371 194
Width: 600
Flags: W
HStem: -144 66<421 491> -14 86<245 285> 0 82<401 566 542 566 542 542> 371 82<22 100 22 187 319 401>
VStem: 100 87<179 371 371 371> 357 91<-63 -52> 401 87<0 453 31 453 146 371 371 371>
LayerCount: 2
Fore
SplineSet
566 82 m 1x3a
 566 0 l 1
 542 0 l 1
 507 -8 448 -31 448 -55 c 0
 448 -71 465 -78 479 -78 c 0xba
 503 -78 515 -71 554 -49 c 1
 539 -115 l 1
 516 -130 493 -144 447 -144 c 0
 395 -144 357 -112 357 -72 c 0xbc
 357 -32 392 -10 409 -2 c 1
 409 0 l 1
 401 0 l 1x3a
 401 31 l 1
 351 -5 300 -14 270 -14 c 0
 220 -14 168 7 141 40 c 0
 116 71 100 104 100 179 c 2
 100 371 l 1
 22 371 l 1
 22 453 l 1
 187 453 l 1
 187 179 l 2
 187 154 187 72 269 72 c 0
 333 72 379 122 401 146 c 1x5a
 401 371 l 1
 319 371 l 1
 319 453 l 1
 488 453 l 1
 488 82 l 1
 566 82 l 1x3a
EndSplineSet
EndChar

StartChar: SF410000
Encoding: 302 9574 195
Width: 600
Flags: MW
HStem: 144 72<0 192 0 264 408 600 408 408> 288 72<0 600 0 600>
VStem: 192 72<-288 144 144 144> 336 72<-288 144>
LayerCount: 2
Fore
SplineSet
408 -288 m 1
 336 -288 l 1
 336 216 l 1
 600 216 l 1
 600 144 l 1
 408 144 l 1
 408 -288 l 1
0 216 m 1
 264 216 l 1
 264 -288 l 1
 192 -288 l 1
 192 144 l 1
 0 144 l 1
 0 216 l 1
600 288 m 1
 0 288 l 1
 0 360 l 1
 600 360 l 1
 600 288 l 1
EndSplineSet
EndChar

StartChar: SM630000
Encoding: 303 9664 196
Width: 600
Flags: MW
HStem: 83 397<560 560>
VStem: 0 560<282 282>
LayerCount: 2
Fore
SplineSet
560 83 m 1
 0 282 l 1
 560 480 l 1
 560 83 l 1
EndSplineSet
EndChar

StartChar: Aogonek
Encoding: 304 260 197
Width: 600
Flags: W
HStem: -144 66<439.5 509> 0 82<0 58 148 237 0 58 363 427 560 560 560 600> 180 82<221 380 221 412 187 380> 501 82<100 229 100 341>
VStem: 0 237<0 82 0 82> 363 237<0 82 0 82> 376 90<-63 -56>
LayerCount: 2
Fore
SplineSet
572 -49 m 1xfa
 557 -115 l 1
 534 -130 511 -144 465 -144 c 0
 414 -144 376 -112 376 -72 c 0
 376 -40 399 -17 427 -2 c 1
 427 0 l 1
 363 0 l 1
 363 82 l 1
 451 82 l 1
 412 180 l 1xfa
 187 180 l 1
 148 82 l 1
 237 82 l 1
 237 0 l 1
 0 0 l 1
 0 82 l 1
 58 82 l 1
 229 501 l 1
 100 501 l 1
 100 583 l 1
 341 583 l 1
 544 82 l 1
 600 82 l 1
 600 0 l 1xfc
 560 0 l 1
 523 -8 466 -29 466 -55 c 0
 466 -71 483 -78 497 -78 c 0
 521 -78 534 -71 572 -49 c 1xfa
380 262 m 1
 300 453 l 1
 221 262 l 1
 380 262 l 1
EndSplineSet
EndChar

StartChar: SF070000
Encoding: 305 9524 198
Width: 600
Flags: MW
HStem: 216 72<0 264 336 600 0 264>
VStem: 264 72<288 792>
LayerCount: 2
Fore
SplineSet
336 288 m 1
 600 288 l 1
 600 216 l 1
 0 216 l 1
 0 288 l 1
 264 288 l 1
 264 792 l 1
 336 792 l 1
 336 288 l 1
EndSplineSet
EndChar

StartChar: scedilla
Encoding: 306 351 199
Width: 600
Flags: W
HStem: -171 70<297.5 318 297.5 363.5> -15 21G<167 167> -15 182.5 -13 21G<343 343> -9 81<271 271> 381 86<261.5 289.5> 443 20G<494 494> 456 20G<416 416>
VStem: 86 90<305 349 299.5 377> 267 150 428 90<117 150 94 158>
LayerCount: 2
Fore
SplineSet
343 -13 m 1x94e0
 343 -18 l 1x94e0
 355 -18 417 -40 417 -96 c 0
 417 -115 407 -171 320 -171 c 0
 268 -171 213 -157 192 -152 c 1
 203 -83 l 1
 211 -85 280 -101 315 -101 c 0
 321 -101 329 -101 333 -96 c 1
 330 -87 324 -86 263 -78 c 1
 271 -9 l 1
 235 -5 206 15 179 37 c 1x8ce0
 167 -15 l 1xc4e0
 89 -10 l 1
 93 14 99 43 99 85 c 0x8ca0
 99 124 94 142 89 163 c 1
 167 172 l 1xa4a0
 178 118 207 72 303 72 c 0
 376 72 428 96 428 138 c 0
 428 178 385 180 307 185 c 0
 218 191 185 199 152 218 c 0
 114 240 86 282 86 328 c 0
 86 426 195 467 270 467 c 0
 340 467 382 436 403 420 c 1x8ca0
 416 476 l 1x91a0
 494 463 l 1
 489 438 484 407 484 376 c 0x92a0
 484 344 489 324 494 304 c 1
 416 293 l 2
 415 295 412 302 411 306 c 2
 403 329 l 2
 385 381 298 381 281 381 c 0
 242 381 176 373 176 325 c 0
 176 274 245 271 300 267 c 0
 388 261 434 259 470 232 c 0
 505 206 518 164 518 136 c 0x94a0
 518 52 435 -7 343 -13 c 1x94e0
EndSplineSet
EndChar

StartChar: arrowdown
Encoding: 307 8595 200
Width: 600
Flags: MW
HStem: -25 21G<296.5 306.5>
VStem: 270 60<122 563 122 563>
LayerCount: 2
Fore
SplineSet
270 563 m 1
 330 563 l 1
 330 122 l 1
 359 140 399 162 415 162 c 0
 422 162 434 157 434 141 c 0
 434 133 431 130 404 104 c 0
 368 69 348 36 322 -8 c 0
 318 -15 311 -25 302 -25 c 0
 291 -25 290 -23 264 19 c 0
 237 63 223 83 178 121 c 0
 173 126 167 131 167 141 c 0
 167 156 179 162 186 162 c 0
 188 162 217 158 270 122 c 1
 270 563 l 1
EndSplineSet
EndChar

StartChar: thorn
Encoding: 308 254 201
Width: 600
Flags: MW
HStem: -152 82<10 89 176 320 10 89> -7 86<310.5 362.5 291 383> 381 86<315.5 373.5> 539.5 91.5
VStem: 89 87<-70 48 415 542 542 542> 467 92<188 267>
LayerCount: 2
Fore
SplineSet
-1 621 m 1
 176 631 l 1
 176 415 l 1
 237 467 306 467 325 467 c 0
 467 467 559 351 559 232 c 0
 559 89 440 -7 326 -7 c 0
 295 -7 230 2 176 48 c 1
 176 -70 l 1
 320 -70 l 1
 320 -152 l 1
 10 -152 l 1
 10 -70 l 1
 89 -70 l 1
 89 542 l 1
 9 537 l 1
 -1 621 l 1
172 234 m 0
 172 132 258 79 324 79 c 0
 401 79 467 144 467 232 c 0
 467 302 422 381 325 381 c 0
 236 381 172 313 172 234 c 0
EndSplineSet
EndChar

StartChar: dbar
Encoding: 309 273 202
Width: 600
Flags: W
HStem: -10 75<235.5 312> 0 82<510 591 510 591> 360 75<243.5 296.5 212.5 331.5> 460 62<189 423 189 423 510 591> 605 20G<271 271> 628 20G<510 510>
VStem: 44 92<171 256 171 276.5> 423 87<0 460 39 460 381 460 82 460 522 563 563 563>
LayerCount: 2
Fore
SplineSet
510 522 m 1x57
 591 522 l 1
 591 460 l 1
 510 460 l 1
 510 82 l 1
 591 82 l 1
 591 0 l 1
 423 0 l 1x57
 423 39 l 1
 378 9 348 -10 276 -10 c 0
 125 -10 44 111 44 213 c 0
 44 340 153 435 272 435 c 0
 321 435 378 417 423 381 c 1xb7
 423 460 l 1
 189 460 l 1
 189 522 l 1
 423 522 l 1
 423 563 l 1
 262 551 l 1
 271 625 l 1x5b
 510 648 l 1
 510 522 l 1x57
421 217 m 0xb7
 421 274 381 360 282 360 c 0
 205 360 136 301 136 211 c 0
 136 131 194 65 277 65 c 0
 386 65 421 166 421 217 c 0xb7
EndSplineSet
EndChar

StartChar: sixsuperior
Encoding: 310 8310 203
Width: 600
Flags: W
HStem: 238 59<284 318.5 284 335> 434 59<297.5 318.5> 453 20G 582 58<335 380>
VStem: 170 62<361.5 379 358 455.5> 359 61<345 384>
LayerCount: 2
Fore
SplineSet
425 638 m 1xbc
 425 580 l 1
 379 582 l 2
 291 582 258 557 238 473 c 1xbc
 248 480 258 485 269 488 c 0
 280 491 292 493 303 493 c 0xdc
 368 493 420 435 420 364 c 0
 420 294 368 238 302 238 c 0
 223 238 170 309 170 414 c 0
 170 497 201 570 250 606 c 0
 283 630 321 643 380 640 c 2
 425 638 l 1xbc
233 383 m 1xdc
 232 379 l 1
 232 337 266 297 302 297 c 0
 335 297 359 325 359 365 c 0
 359 403 334 434 303 434 c 0
 272 434 250 418 233 383 c 1xdc
EndSplineSet
EndChar

StartChar: SF470000
Encoding: 311 9572 204
Width: 600
Flags: MW
HStem: 144 72<0 264 0 600 336 600 336 336> 288 72<0 600 0 600>
VStem: 264 72<-288 144 -288 144>
LayerCount: 2
Fore
SplineSet
336 144 m 1
 336 -288 l 1
 264 -288 l 1
 264 144 l 1
 0 144 l 1
 0 216 l 1
 600 216 l 1
 600 144 l 1
 336 144 l 1
600 288 m 1
 0 288 l 1
 0 360 l 1
 600 360 l 1
 600 288 l 1
EndSplineSet
EndChar

StartChar: similar
Encoding: 312 8764 205
Width: 600
Flags: W
HStem: 238 102<383.5 406 383.5 425> 295 102<198.5 219.5 177 220>
VStem: 77 446<285 345>
LayerCount: 2
Fore
SplineSet
464 412 m 1xa0
 523 345 l 2
 523 344 520 340 520 339 c 0
 494 297 459 238 391 238 c 0xa0
 365 238 347 246 293 268 c 0
 267 279 227 295 213 295 c 0
 184 295 166 272 143 229 c 2
 136 216 l 1
 77 285 l 2
 77 286 80 290 80 291 c 0
 105 335 141 397 213 397 c 0x60
 226 397 247 397 318 366 c 0
 359 348 376 340 391 340 c 0
 421 340 438 368 464 412 c 1xa0
EndSplineSet
EndChar

StartChar: SS260000
Encoding: 313 8992 206
Width: 600
Flags: MW
HStem: 678 161<467 503 407.5 508.5>
VStem: 239 122<-243 518 518 631>
LayerCount: 2
Fore
SplineSet
361 -243 m 1
 239 -243 l 1
 239 518 l 2
 239 750 358 839 457 839 c 0
 549 839 563 776 563 753 c 0
 563 705 527 678 490 678 c 0
 444 678 426 707 413 726 c 0
 407 735 398 747 386 747 c 0
 367 747 361 730 361 631 c 2
 361 -243 l 1
EndSplineSet
EndChar

StartChar: degree
Encoding: 314 176 207
Width: 600
Flags: MW
HStem: 326 80<278.5 321.5 278.5 343.5> 559 80<278.5 321.5>
VStem: 144 80<462 503.5 462 526.5> 376 80<462 503.5>
LayerCount: 2
Fore
SplineSet
144 483 m 0
 144 570 214 639 300 639 c 0
 386 639 456 569 456 483 c 0
 456 396 387 326 300 326 c 0
 214 326 144 395 144 483 c 0
224 483 m 0
 224 441 257 406 300 406 c 0
 343 406 376 441 376 483 c 0
 376 524 343 559 300 559 c 0
 257 559 224 524 224 483 c 0
EndSplineSet
EndChar

StartChar: SF520000
Encoding: 315 9555 208
Width: 600
Flags: MW
HStem: 216 72<264 336 264 264 408 408 408 600>
VStem: 192 72<-288 216 -288 288> 336 72<-288 216 -288 216>
LayerCount: 2
Fore
SplineSet
336 216 m 1
 264 216 l 1
 264 -288 l 1
 192 -288 l 1
 192 288 l 1
 600 288 l 1
 600 216 l 1
 408 216 l 1
 408 -288 l 1
 336 -288 l 1
 336 216 l 1
EndSplineSet
EndChar

StartChar: ccedilla
Encoding: 316 231 209
Width: 600
Flags: W
HStem: -183 70<312.5 335 312.5 368> -13 86<284 284> -9 21G<357 357> 383 86<246 328 224 374> 441 20G<532 532>
VStem: 59 92<195 250.5 195 286.5> 280 77 349 82<-106 -95.5> 449.5 76.5
LayerCount: 2
Fore
SplineSet
357 -9 m 1xb6
 357 -18 l 1xb6
 398 -28 431 -52 431 -102 c 0
 431 -148 402 -183 334 -183 c 0
 285 -183 236 -172 205 -164 c 1
 216 -95 l 1
 232 -98 294 -113 331 -113 c 0
 339 -113 349 -111 349 -101 c 0
 349 -90 336 -87 320 -84 c 0xb5
 316 -83 283 -79 276 -78 c 1
 284 -13 l 1
 135 0 59 116 59 228 c 0
 59 345 145 469 303 469 c 0
 353 469 394 457 445 414 c 1
 454 469 l 1xd680
 532 461 l 1
 529 434 526 397 526 361 c 0xae80
 526 322 529 296 532 273 c 1
 448 262 l 1
 439 324 431 383 317 383 c 0
 175 383 151 272 151 229 c 0
 151 161 194 73 310 73 c 0
 387 73 461 122 519 163 c 1
 567 95 l 1xd680
 530 67 450 6 357 -9 c 1xb6
EndSplineSet
EndChar

StartChar: SM760000
Encoding: 317 8597 210
Width: 600
Flags: MW
HStem: 587 20G<291.5 303>
VStem: 266 60<161 462 161 462>
LayerCount: 2
Fore
SplineSet
326 462 m 1
 326 161 l 1
 353 178 394 201 411 201 c 0
 416 201 430 197 430 180 c 0
 430 170 427 167 400 143 c 0
 386 131 356 100 322 39 c 0
 313 23 308 15 298 15 c 0
 287 15 286 16 265 50 c 0
 227 112 215 124 176 158 c 0
 167 166 163 170 163 180 c 0
 163 197 177 201 182 201 c 0
 185 201 213 197 266 161 c 1
 266 462 l 1
 216 427 184 422 182 422 c 0
 175 422 163 428 163 442 c 0
 163 451 164 452 189 475 c 0
 204 489 234 517 275 589 c 0
 281 599 285 607 298 607 c 0
 308 607 310 603 331 569 c 0
 353 534 373 501 413 468 c 0
 423 459 430 453 430 443 c 0
 430 428 419 422 412 422 c 0
 389 422 337 455 326 462 c 1
EndSplineSet
EndChar

StartChar: Uogonek
Encoding: 318 370 211
Width: 600
Flags: W
HStem: -144 216<275 324> -11 21G 501 82<15 86 15 271 173 173 173 271 15 333 333 429 516 516 516 585>
VStem: 86 87<246 501> 211 91<-63 -58.5> 429 87<236 501>
LayerCount: 2
Fore
SplineSet
408 -49 m 1xfc
 393 -115 l 1
 370 -130 347 -144 301 -144 c 0
 249 -144 211 -112 211 -72 c 0xbc
 211 -45 228 -26 247 -11 c 1x74
 87 24 86 158 86 246 c 2
 86 501 l 1
 15 501 l 1
 15 583 l 1
 271 583 l 1
 271 501 l 1
 173 501 l 1
 173 246 l 2
 173 161 176 72 302 72 c 0
 432 72 429 150 429 236 c 2
 429 501 l 1
 333 501 l 1
 333 583 l 1
 585 583 l 1
 585 501 l 1
 516 501 l 1
 516 236 l 2
 516 109 501 38 384 -3 c 0
 336 -20 302 -32 302 -55 c 0
 302 -71 319 -78 333 -78 c 0
 357 -78 369 -71 408 -49 c 1xfc
EndSplineSet
EndChar

StartChar: Ldot
Encoding: 319 319 212
Width: 600
Flags: W
HStem: 0 82<48 144 231 467 48 144> 246 153<347 389> 501 82<48 144 48 351 231 351 231 231>
VStem: 144 87<82 501 82 501> 283 169<299.5 346> 473.5 85
LayerCount: 2
Fore
SplineSet
48 583 m 1
 351 583 l 1
 351 501 l 1
 231 501 l 1
 231 82 l 1
 467 82 l 1
 480 280 l 1
 565 280 l 1
 552 0 l 1
 48 0 l 1
 48 82 l 1
 144 82 l 1
 144 501 l 1
 48 501 l 1
 48 583 l 1
368 399 m 0xfc
 410 399 452 370 452 323 c 0
 452 276 410 246 368 246 c 0
 326 246 283 276 283 323 c 0
 283 369 326 399 368 399 c 0xfc
EndSplineSet
EndChar

StartChar: underscoredbl
Encoding: 320 8215 213
Width: 600
Flags: MW
HStem: -225 50<-48 648 -48 648> -125 50<-48 648 -48 648>
VStem: -48 696<-225 -175 -225 -175 -125 -75 -225 -75>
LayerCount: 2
Fore
SplineSet
648 -175 m 1
 648 -225 l 1
 -48 -225 l 1
 -48 -175 l 1
 648 -175 l 1
-48 -75 m 1
 648 -75 l 1
 648 -125 l 1
 -48 -125 l 1
 -48 -75 l 1
EndSplineSet
EndChar

StartChar: SM750002
Encoding: 321 9689 214
Width: 600
Flags: MW
HStem: 0 65<240.5 359.5 240.5 582> 499 65<240.5 359.5>
VStem: 18 65<222 342.5 222 564> 517 65<222 342.5>
LayerCount: 2
Fore
SplineSet
300 499 m 0
 181 499 83 403 83 282 c 0
 83 162 181 65 300 65 c 0
 419 65 517 162 517 282 c 0
 517 403 419 499 300 499 c 0
18 0 m 1
 18 564 l 1
 582 564 l 1
 582 0 l 1
 18 0 l 1
300 449 m 0
 391 449 467 374 467 282 c 0
 467 191 392 115 300 115 c 0
 208 115 133 192 133 282 c 0
 133 374 208 449 300 449 c 0
EndSplineSet
EndChar

StartChar: SF430000
Encoding: 322 9552 215
Width: 600
Flags: MW
HStem: 144 72<0 600 0 600> 288 72<0 600 0 600>
VStem: 0 600<144 216 144 216 288 360 144 360>
LayerCount: 2
Fore
SplineSet
600 360 m 1
 600 288 l 1
 0 288 l 1
 0 360 l 1
 600 360 l 1
600 216 m 1
 600 144 l 1
 0 144 l 1
 0 216 l 1
 600 216 l 1
EndSplineSet
EndChar

StartChar: ffl
Encoding: 323 64260 216
Width: 600
Flags: W
HStem: 0 82<0 66 0 66 153 258 345 450 537 600> 358 82<153 258 153 258 345 403> 557 86<189 233.5 412.5 424.5> 606 20G<537 537>
VStem: 66 87<82 358 82 359 82 359 441 476> 258 87<82 358 440 476> 450 87<82 554 554 554>
LayerCount: 2
Fore
SplineSet
0 0 m 1xee
 0 82 l 1
 66 82 l 1
 66 359 l 1
 0 359 l 1
 0 441 l 1
 66 441 l 1
 66 478 l 2
 66 533 65 643 229 643 c 0xee
 280 643 307 634 330 626 c 1xde
 346 632 358 636 372 639 c 0
 386 642 401 643 424 643 c 0xee
 469 643 494 637 537 626 c 1xde
 537 82 l 1
 600 82 l 1
 600 0 l 1
 0 0 l 1xee
153 358 m 1
 153 82 l 1
 258 82 l 1
 258 358 l 1
 153 358 l 1
153 476 m 2
 153 440 l 1
 258 440 l 1
 258 476 l 2
 258 521 261 535 265 553 c 1
 252 555 241 557 226 557 c 0
 152 557 153 530 153 476 c 2
345 82 m 1
 450 82 l 1
 450 554 l 1
 442 555 432 557 417 557 c 0
 347 557 345 534 345 476 c 2
 345 440 l 1
 403 440 l 1
 403 358 l 1
 345 358 l 1
 345 82 l 1
EndSplineSet
Ligature2: "'liga' Standard Ligatures in Latin lookup 0 subtable" ff l
EndChar

StartChar: SF400000
Encoding: 324 9577 217
Width: 600
Flags: MW
HStem: 144 72<0 600 0 600> 288 72<0 192 0 192 0 264 408 600>
VStem: 192 72<360 792 288 792> 336 72<360 792 360 792 360 792>
LayerCount: 2
Fore
SplineSet
600 288 m 1
 336 288 l 1
 336 792 l 1
 408 792 l 1
 408 360 l 1
 600 360 l 1
 600 288 l 1
0 288 m 1
 0 360 l 1
 192 360 l 1
 192 792 l 1
 264 792 l 1
 264 288 l 1
 0 288 l 1
600 216 m 1
 600 144 l 1
 0 144 l 1
 0 216 l 1
 600 216 l 1
EndSplineSet
EndChar

StartChar: SF530000
Encoding: 325 9579 218
Width: 600
Flags: MW
HStem: 216 72<0 192 0 192 264 336 408 600>
VStem: 192 72<-288 216 -288 216 288 792> 336 72<-288 216 -288 216 288 792>
LayerCount: 2
Fore
SplineSet
264 288 m 1
 336 288 l 1
 336 792 l 1
 408 792 l 1
 408 288 l 1
 600 288 l 1
 600 216 l 1
 408 216 l 1
 408 -288 l 1
 336 -288 l 1
 336 216 l 1
 264 216 l 1
 264 -288 l 1
 192 -288 l 1
 192 216 l 1
 0 216 l 1
 0 288 l 1
 192 288 l 1
 192 792 l 1
 264 792 l 1
 264 288 l 1
EndSplineSet
EndChar

StartChar: SF370000
Encoding: 326 9567 219
Width: 600
Flags: MW
HStem: 216 72<408 600 408 600>
VStem: 192 72<-288 792 -288 792> 336 72<-288 216 288 792>
LayerCount: 2
Fore
SplineSet
336 792 m 1
 408 792 l 1
 408 288 l 1
 600 288 l 1
 600 216 l 1
 408 216 l 1
 408 -288 l 1
 336 -288 l 1
 336 792 l 1
192 -288 m 1
 192 792 l 1
 264 792 l 1
 264 -288 l 1
 192 -288 l 1
EndSplineSet
EndChar

StartChar: SF060000
Encoding: 327 9516 220
Width: 600
Flags: MW
HStem: 216 72<0 264 0 600 336 600 336 336>
VStem: 264 72<-288 216 -288 216>
LayerCount: 2
Fore
SplineSet
336 216 m 1
 336 -288 l 1
 264 -288 l 1
 264 216 l 1
 0 216 l 1
 0 288 l 1
 600 288 l 1
 600 216 l 1
 336 216 l 1
EndSplineSet
EndChar

StartChar: SM690000
Encoding: 328 9788 221
Width: 600
Flags: W
HStem: -13 161<271 329 271 271> 82 66<263 271> 253 58<6 101 6 101 500 594> 416 66<263 271 329 337> 449 20G<71 71 529 529>
VStem: 101 66<246 253 311 320 246 323> 271 58<-13 81 -13 82 -13 82 482 576> 434 66<246 253 311 320>
LayerCount: 2
Fore
SplineSet
137 404 m 1xae
 71 469 l 1
 113 510 l 1xae
 179 444 l 1
 198 463 245 482 271 482 c 1
 271 576 l 1
 329 576 l 1
 329 482 l 1
 356 482 397 464 421 444 c 1
 488 510 l 1xb7
 529 469 l 1
 463 403 l 1
 481 385 500 339 500 311 c 1
 594 311 l 1
 594 253 l 1
 500 253 l 1
 500 224 483 185 463 160 c 1
 529 94 l 1
 488 53 l 1
 421 119 l 1
 407 105 360 82 329 81 c 1x6f
 329 -13 l 1
 271 -13 l 1xae
 271 82 l 1
 236 82 199 98 179 119 c 1
 113 53 l 1
 71 94 l 1
 138 160 l 1x6e
 117 181 101 225 101 253 c 1
 6 253 l 1
 6 311 l 1
 101 311 l 1
 101 335 119 382 137 404 c 1xae
300 416 m 0xb7
 226 416 167 357 167 283 c 0
 167 209 226 148 300 148 c 0
 374 148 434 209 434 283 c 0
 434 357 374 416 300 416 c 0xb7
EndSplineSet
EndChar

StartChar: tau
Encoding: 329 964 222
Width: 600
Flags: MW
HStem: -9 75<348.5 374> 371 82<187 196 196 245 328 476 328 328>
VStem: 245 83<103 116 116 371>
LayerCount: 2
Fore
SplineSet
328 371 m 1
 328 116 l 2
 328 90 330 66 367 66 c 0
 396 66 413 81 438 102 c 1
 451 23 l 1
 434 12 404 -9 344 -9 c 0
 262 -9 245 39 245 97 c 2
 245 371 l 1
 196 371 l 2
 174 371 133 368 89 360 c 1
 89 436 l 1
 106 441 l 1
 159 452 164 453 187 453 c 2
 476 453 l 1
 476 371 l 1
 328 371 l 1
EndSplineSet
EndChar

StartChar: SM700000
Encoding: 330 -1 223
Width: 600
Flags: MW
HStem: 149 179<7 593 7 593>
VStem: 7 586<149 328 149 328>
LayerCount: 2
Fore
SplineSet
7 149 m 1
 7 328 l 1
 593 328 l 1
 593 149 l 1
 7 149 l 1
EndSplineSet
EndChar

StartChar: Lcedilla
Encoding: 331 315 224
Width: 600
Flags: W
HStem: -171 70<315.5 336 315.5 381.5> -18 21G<361 367> 0 82<48 144 231 290 48 144 363 467 363 363> 501 82<48 144 48 351 231 231 231 351>
VStem: 144 87<82 501 82 501> 285.5 76.5 473.5 85
LayerCount: 2
Fore
SplineSet
363 0 m 1xbe
 361 -18 l 1xde
 373 -18 435 -40 435 -96 c 0
 435 -115 425 -171 338 -171 c 0
 286 -171 231 -157 210 -152 c 1
 221 -83 l 1
 229 -85 298 -101 333 -101 c 0
 339 -101 347 -101 351 -96 c 1
 348 -87 342 -86 281 -78 c 1
 290 0 l 1
 48 0 l 1
 48 82 l 1
 144 82 l 1
 144 501 l 1
 48 501 l 1
 48 583 l 1
 351 583 l 1
 351 501 l 1
 231 501 l 1
 231 82 l 1
 467 82 l 1
 480 280 l 1
 565 280 l 1
 552 0 l 1
 363 0 l 1xbe
EndSplineSet
EndChar

StartChar: zerodot
Encoding: 332 -1 225
Width: 600
Flags: W
HStem: -14 83<250 352 250 390> 245 21G<286 319.5> 245 127<286.5 319.5 286.5 319.5> 556 83<293 351>
VStem: 97 91<270.5 356 270.5 374> 233 139<288.5 328 288.5 328> 412 91<275.5 354>
LayerCount: 2
Fore
SplineSet
303 372 m 0xfe
 336 372 372 348 372 308 c 0
 372 269 336 245 303 245 c 0
 269 245 233 268 233 308 c 0
 233 348 270 372 303 372 c 0xfe
300 639 m 0
 479 639 503 434 503 313 c 0
 503 193 480 -14 300 -14 c 0
 121 -14 97 193 97 313 c 0
 97 435 122 639 300 639 c 0
300 556 m 0
 286 556 254 552 228 517 c 0
 204 483 188 399 188 313 c 0
 188 228 200 69 300 69 c 0
 404 69 412 238 412 313 c 0
 412 395 402 556 300 556 c 0
EndSplineSet
EndChar

StartChar: SV040000
Encoding: 333 9660 226
Width: 600
Flags: MW
HStem: 447 20G<102 498 498 498>
VStem: 102 396<467 467>
LayerCount: 2
Fore
SplineSet
102 467 m 1
 498 467 l 1
 300 96 l 1
 102 467 l 1
EndSplineSet
EndChar

StartChar: SP500000
Encoding: 334 -1 227
Width: 600
Flags: MW
HStem: 0 57<75 525 75 582> 136 21G<118 118 482 482> 247 21G<300 300> 444 20G<154 154 446 446> 507 57<75 75 75 525>
VStem: 18 57<57 507 57 564> 525 57<57 507 507 507>
LayerCount: 2
Fore
SplineSet
265 282 m 1
 118 430 l 1
 154 464 l 1
 300 317 l 1
 446 464 l 1
 482 430 l 1
 335 282 l 1
 482 136 l 1
 446 100 l 1
 300 247 l 1
 154 100 l 1
 118 136 l 1
 265 282 l 1
18 0 m 1
 18 564 l 1
 582 564 l 1
 582 0 l 1
 18 0 l 1
75 507 m 1
 75 57 l 1
 525 57 l 1
 525 507 l 1
 75 507 l 1
EndSplineSet
EndChar

StartChar: Rcedilla
Encoding: 335 342 228
Width: 600
Flags: W
HStem: -171 70<340 360.5 340 406.5> -18 24<385 388 315 391.5> 0 82<35 113 200 287 35 113 494 588> 249 82<200 251 200 274> 501 82<35 113 35 302 200 200 200 302>
VStem: 113 87<82 249 82 331 331 501> 310.5 149.5 419 92<409 445.5 409 455>
LayerCount: 2
Fore
SplineSet
35 583 m 1xbd
 302 583 l 2
 364 583 405 581 445 553 c 0
 484 526 511 472 511 419 c 0
 511 399 510 297 382 259 c 1
 406 226 426 197 494 82 c 1
 588 82 l 1
 588 0 l 1
 434 0 l 1
 395 85 339 171 337 174 c 0
 295 237 283 249 251 249 c 2
 200 249 l 1
 200 82 l 1
 287 82 l 1
 287 0 l 1
 35 0 l 1
 35 82 l 1
 113 82 l 1
 113 501 l 1
 35 501 l 1
 35 583 l 1xbd
302 501 m 2
 200 501 l 1
 200 331 l 1
 274 331 l 2
 308 331 419 325 419 422 c 0
 419 488 374 501 302 501 c 2
388 6 m 1xde
 385 -18 l 1
 398 -18 460 -40 460 -96 c 0
 460 -115 450 -171 363 -171 c 0
 311 -171 256 -157 234 -152 c 1
 246 -83 l 1
 254 -85 323 -101 357 -101 c 0
 364 -101 371 -101 376 -96 c 1
 373 -87 366 -86 306 -78 c 1
 315 6 l 1
 388 6 l 1xde
EndSplineSet
EndChar

StartChar: SF490000
Encoding: 336 9561 229
Width: 600
Flags: MW
HStem: 216 72<264 336 408 600>
VStem: 192 72<288 792 288 792 288 792> 336 72<288 792 288 792>
LayerCount: 2
Fore
SplineSet
336 288 m 1
 336 792 l 1
 408 792 l 1
 408 288 l 1
 600 288 l 1
 600 216 l 1
 192 216 l 1
 192 792 l 1
 264 792 l 1
 264 288 l 1
 336 288 l 1
EndSplineSet
EndChar

StartChar: radical
Encoding: 337 8730 230
Width: 600
Flags: MW
HStem: 0 21G<154 225 154 154> 257 87<3 87 3 164> 718 87<429 651 429 429>
VStem: 3 648<257 805 344 805>
LayerCount: 2
Fore
SplineSet
3 344 m 1
 164 344 l 1
 196 216 l 1
 198 216 l 1
 363 805 l 1
 651 805 l 1
 651 718 l 1
 429 718 l 1
 225 0 l 1
 154 0 l 1
 87 257 l 1
 3 257 l 1
 3 344 l 1
EndSplineSet
EndChar

StartChar: SF460000
Encoding: 338 9576 231
Width: 600
Flags: MW
HStem: 216 72<0 192 264 336 408 600 0 192>
VStem: 192 72<288 792 288 792> 336 72<288 792 288 792>
LayerCount: 2
Fore
SplineSet
336 288 m 1
 336 792 l 1
 408 792 l 1
 408 288 l 1
 600 288 l 1
 600 216 l 1
 0 216 l 1
 0 288 l 1
 192 288 l 1
 192 792 l 1
 264 792 l 1
 264 288 l 1
 336 288 l 1
EndSplineSet
EndChar

StartChar: SM590000
Encoding: 339 9654 232
Width: 600
Flags: MW
HStem: 83 397<40 40>
VStem: 40 560<282 282 282 480 282 480>
LayerCount: 2
Fore
SplineSet
40 83 m 1
 40 480 l 1
 600 282 l 1
 40 83 l 1
EndSplineSet
EndChar

StartChar: SM750000
Encoding: 340 9675 233
Width: 600
Flags: MW
HStem: 65 50<254 346 254 359.5> 449 50<254 345.5>
VStem: 83 50<237 328 237 342.5> 467 50<236.5 328>
LayerCount: 2
Fore
SplineSet
300 499 m 0
 419 499 517 403 517 282 c 0
 517 162 419 65 300 65 c 0
 181 65 83 162 83 282 c 0
 83 403 181 499 300 499 c 0
300 449 m 0
 208 449 133 374 133 282 c 0
 133 192 208 115 300 115 c 0
 392 115 467 191 467 282 c 0
 467 374 391 449 300 449 c 0
EndSplineSet
EndChar

StartChar: SM770000
Encoding: 341 8616 234
Width: 600
Flags: W
HStem: -97 60<185 418 185 418> 587 20G<291.5 303>
VStem: 185 233<-97 -37 -97 -37> 266 60<161 462 161 462>
LayerCount: 2
Fore
SplineSet
185 -37 m 1xf0
 418 -37 l 1
 418 -97 l 1
 185 -97 l 1
 185 -37 l 1xf0
326 462 m 1xd0
 326 161 l 1
 353 178 394 201 411 201 c 0
 416 201 430 197 430 180 c 0
 430 170 427 167 400 143 c 0
 386 131 356 100 322 39 c 0
 313 23 308 15 298 15 c 0
 287 15 286 16 265 50 c 0
 227 112 215 124 176 158 c 0
 167 166 163 170 163 180 c 0
 163 197 177 201 182 201 c 0
 185 201 213 197 266 161 c 1
 266 462 l 1
 216 427 184 422 182 422 c 0
 175 422 163 428 163 442 c 0
 163 451 164 452 189 475 c 0
 204 489 234 517 275 589 c 0
 281 599 285 607 298 607 c 0
 308 607 310 603 331 569 c 0
 353 534 373 501 413 468 c 0
 423 459 430 453 430 443 c 0
 430 428 419 422 412 422 c 0
 389 422 337 455 326 462 c 1xd0
EndSplineSet
EndChar

StartChar: SF580000
Encoding: 342 9612 235
Width: 600
Flags: MW
HStem: -288 1080<0 300 0 300>
VStem: 0 300<-288 792 -288 792>
LayerCount: 2
Fore
SplineSet
0 -288 m 1
 0 792 l 1
 300 792 l 1
 300 -288 l 1
 0 -288 l 1
EndSplineSet
EndChar

StartChar: arrowboth
Encoding: 343 8596 236
Width: 600
Flags: MW
HStem: 257 60<167 432 167 432>
VStem: 22 556<283.5 294 283.5 294>
LayerCount: 2
Fore
SplineSet
167 317 m 1
 432 317 l 1
 415 344 392 385 392 402 c 0
 392 407 396 421 413 421 c 0
 423 421 426 418 450 391 c 0
 462 377 493 347 554 313 c 0
 570 304 578 299 578 289 c 0
 578 278 577 277 543 256 c 0
 481 217 469 206 435 167 c 0
 427 158 423 154 413 154 c 0
 396 154 392 168 392 173 c 0
 392 176 396 204 432 257 c 1
 167 257 l 1
 202 207 207 175 207 173 c 0
 207 166 201 154 187 154 c 0
 178 154 177 155 154 180 c 0
 140 195 112 225 40 266 c 0
 30 272 22 276 22 289 c 0
 22 299 26 301 60 322 c 0
 96 343 128 364 161 404 c 0
 170 414 176 421 186 421 c 0
 201 421 207 410 207 403 c 0
 207 380 174 328 167 317 c 1
EndSplineSet
EndChar

StartChar: SF240000
Encoding: 344 9553 237
Width: 600
Flags: MW
HStem: -288 1080<192 264 192 264 336 408 192 336>
VStem: 192 72<-288 792 -288 792> 336 72<-288 792>
LayerCount: 2
Fore
SplineSet
408 -288 m 1
 336 -288 l 1
 336 792 l 1
 408 792 l 1
 408 -288 l 1
192 -288 m 1
 192 792 l 1
 264 792 l 1
 264 -288 l 1
 192 -288 l 1
EndSplineSet
EndChar

StartChar: Eng
Encoding: 345 330 238
Width: 600
Flags: W
HStem: -131 89<275 364 364 372 275 364> 0 82<34 116 203 285 34 116> 501 82<34 116 34 203> 506 89<345.5 398.5>
VStem: 116 87<82 426 82 501 82 501> 275 10 451 87<45 412>
LayerCount: 2
Fore
SplineSet
34 583 m 1xee
 203 583 l 1xee
 203 537 l 1
 244 562 301 595 376 595 c 0
 492 595 538 494 538 412 c 2
 538 38 l 2
 538 -77 450 -131 372 -131 c 2
 275 -131 l 1
 275 -42 l 1
 364 -42 l 2
 437 -42 451 20 451 45 c 2
 451 420 l 2
 451 485 420 506 377 506 c 0
 314 506 238 460 203 426 c 1xde
 203 82 l 1
 285 82 l 1
 285 0 l 1
 34 0 l 1
 34 82 l 1
 116 82 l 1
 116 501 l 1
 34 501 l 1
 34 583 l 1xee
EndSplineSet
EndChar

StartChar: SF390000
Encoding: 346 9556 239
Width: 600
Flags: MW
HStem: 144 72<408 600 408 408> 288 72<264 264 264 600>
VStem: 192 72<-288 288 -288 360> 336 72<-288 144 -288 216>
LayerCount: 2
Fore
SplineSet
336 216 m 1
 600 216 l 1
 600 144 l 1
 408 144 l 1
 408 -288 l 1
 336 -288 l 1
 336 216 l 1
264 288 m 1
 264 -288 l 1
 192 -288 l 1
 192 360 l 1
 600 360 l 1
 600 288 l 1
 264 288 l 1
EndSplineSet
EndChar

StartChar: Theta
Encoding: 347 920 240
Width: 600
Flags: MW
HStem: -17 81<245 355 245 381.5> 252 71<257 342 257 342> 518 81<244.5 356>
VStem: 32 88<230 352 230 376.5> 186 71<193 252 323 382> 342 71<193 252 252 252 323 382 193 382> 480 88<229.5 351.5>
LayerCount: 2
Fore
SplineSet
186 193 m 1
 186 382 l 1
 257 382 l 1
 257 323 l 1
 342 323 l 1
 342 382 l 1
 413 382 l 1
 413 193 l 1
 342 193 l 1
 342 252 l 1
 257 252 l 1
 257 193 l 1
 186 193 l 1
32 291 m 0
 32 462 138 599 300 599 c 0
 463 599 568 460 568 291 c 0
 568 122 463 -17 300 -17 c 0
 139 -17 32 120 32 291 c 0
120 291 m 0
 120 169 190 64 300 64 c 0
 410 64 480 168 480 291 c 0
 480 412 412 518 300 518 c 0
 189 518 120 413 120 291 c 0
EndSplineSet
EndChar

StartChar: Omega
Encoding: 348 8486 241
Width: 600
Flags: W
HStem: 0 76<22 196 93 196 93 272 405 507> 518 81<259.5 341>
VStem: 19 84<276.5 391 250.5 409.5> 22 71<76 116 76 116 76 116> 196 76<76 96 96 96> 329 76<76 96 76 146 76 146> 497 84<316 390.5> 507 71<76 116 0 116>
LayerCount: 2
Fore
SplineSet
22 0 m 1xfe
 22 116 l 1
 93 116 l 1
 93 76 l 1xde
 196 76 l 1
 196 96 l 1
 73 126 19 225 19 328 c 0
 19 491 151 599 300 599 c 0
 452 599 581 488 581 329 c 0xee
 581 303 580 143 405 96 c 1
 405 76 l 1
 507 76 l 1
 507 116 l 1
 578 116 l 1
 578 0 l 1xed
 329 0 l 1
 329 146 l 1
 372 154 497 179 497 324 c 0
 497 457 382 518 300 518 c 0
 219 518 103 458 103 324 c 0xee
 103 177 231 153 272 146 c 1
 272 0 l 1
 22 0 l 1xfe
EndSplineSet
EndChar

StartChar: Thorn
Encoding: 349 222 242
Width: 600
Flags: MW
HStem: 0 82<81 158 245 368 81 158> 128 76<245 280 245 310> 383 77<245 320 320 332 245 320> 501 82<81 158 81 368 245 245 245 368>
VStem: 158 87<82 128 82 204 204 383 460 501> 484 82<263 337.5>
LayerCount: 2
Fore
SplineSet
245 460 m 1
 320 460 l 2
 410 460 566 460 566 292 c 0
 566 234 541 173 489 151 c 0
 452 135 416 128 280 128 c 2
 245 128 l 1
 245 82 l 1
 368 82 l 1
 368 0 l 1
 81 0 l 1
 81 82 l 1
 158 82 l 1
 158 501 l 1
 81 501 l 1
 81 583 l 1
 368 583 l 1
 368 501 l 1
 245 501 l 1
 245 460 l 1
332 383 m 2
 245 383 l 1
 245 204 l 1
 310 204 l 2
 418 204 484 211 484 292 c 0
 484 383 395 383 332 383 c 2
EndSplineSet
EndChar

StartChar: spade
Encoding: 350 9824 243
Width: 600
Flags: MW
HStem: 0 17<122 177 119 177> 126 21G<150.5 193.5 398 450.5>
VStem: 298 8<194 213 176 213>
LayerCount: 2
Fore
SplineSet
298 194 m 2
 298 213 l 1
 296 213 l 1
 285 186 277 174 263 161 c 0
 239 138 209 126 178 126 c 0
 123 126 78 172 78 227 c 0
 78 275 103 317 164 367 c 0
 200 396 204 400 222 420 c 0
 269 471 289 506 301 563 c 1
 318 491 344 452 423 381 c 0
 502 309 522 278 522 228 c 0
 522 170 479 126 422 126 c 0
 374 126 337 154 308 213 c 1
 306 213 l 1
 306 139 318 101 349 68 c 0
 379 36 416 21 478 17 c 1
 482 0 l 1
 119 0 l 1
 122 17 l 1
 232 17 297 82 298 194 c 2
EndSplineSet
EndChar

StartChar: sevensuperior
Encoding: 351 8311 244
Width: 600
Flags: MW
HStem: 242 21G<256 321 256 256> 568 58<238 373 238 238>
VStem: 180 58<515 568 515 626>
LayerCount: 2
Fore
SplineSet
180 626 m 1
 439 626 l 1
 439 581 l 1
 321 242 l 1
 256 242 l 1
 373 568 l 1
 238 568 l 1
 238 515 l 1
 180 515 l 1
 180 626 l 1
EndSplineSet
EndChar

StartChar: zerosuperior
Encoding: 352 8304 245
Width: 600
Flags: MW
HStem: 238 56<279 321 279 341> 583 56<289.5 321>
VStem: 174 61<391.5 460 391.5 502.5> 365 61<391.5 485>
LayerCount: 2
Fore
SplineSet
300 639 m 0
 381 639 426 567 426 438 c 0
 426 309 382 238 300 238 c 0
 219 238 174 309 174 438 c 0
 174 567 219 639 300 639 c 0
300 583 m 0
 279 583 260 569 252 547 c 0
 242 519 235 482 235 438 c 0
 235 345 258 294 300 294 c 0
 342 294 365 345 365 438 c 0
 365 532 342 583 300 583 c 0
EndSplineSet
EndChar

StartChar: onehalf
Encoding: 353 189 246
Width: 600
Flags: W
HStem: -79 57<434 541 434 597> 246 58<456.5 490> 259 57<12 87 145 211 12 87> 604 20G<584 584> 623 20G<109 145 145 145>
VStem: 87 58<316 571 571 571> 353 59<207 217 207 244 207 244> 537 61<168.5 202> 541 56<-22 34 -79 34>
LayerCount: 2
Fore
SplineSet
1 595 m 1xce80
 109 643 l 1
 145 643 l 1
 145 316 l 1
 211 316 l 1
 211 259 l 1
 12 259 l 1
 12 316 l 1
 87 316 l 1xae80
 87 571 l 1
 25 543 l 1
 1 595 l 1xce80
536 657 m 1
 584 624 l 1xd680
 62 -94 l 1
 16 -58 l 1
 536 657 l 1
541 34 m 1
 597 34 l 1
 597 -79 l 1xce80
 342 -79 l 1
 342 -27 l 1
 354 -17 l 2
 382 7 437 56 464 81 c 0
 530 141 537 152 537 185 c 0
 537 219 508 246 472 246 c 0
 441 246 412 227 412 207 c 2
 413 196 l 1
 414 186 l 1
 353 186 l 1
 353 244 l 1
 386 283 427 304 473 304 c 0
 542 304 598 251 598 184 c 0xcf
 598 132 577 103 485 24 c 2
 434 -22 l 1
 541 -22 l 1
 541 34 l 1
EndSplineSet
EndChar

StartChar: IJ
Encoding: 354 306 247
Width: 600
Flags: W
HStem: -16 87<390 419.5 390 469> 0 82<13 98 185 260 13 98> 501 82<13 98 13 269 185 269 185 185 13 348 348 443 530 530 530 592>
VStem: 98 87<82 501 82 501> 294 75 443 87<217 501>
LayerCount: 2
Fore
SplineSet
13 583 m 1x7c
 269 583 l 1
 269 501 l 1
 185 501 l 1
 185 82 l 1
 260 82 l 1
 260 0 l 1
 13 0 l 1
 13 82 l 1
 98 82 l 1
 98 501 l 1
 13 501 l 1
 13 583 l 1x7c
348 583 m 1
 592 583 l 1
 592 501 l 1
 530 501 l 1
 530 217 l 2
 530 120 530 -16 408 -16 c 0
 330 -16 307 38 298 58 c 1
 290 245 l 1
 369 245 l 1
 369 181 l 2
 369 93 373 71 407 71 c 0xbc
 432 71 443 89 443 217 c 2
 443 501 l 1
 348 501 l 1
 348 583 l 1
EndSplineSet
EndChar

StartChar: SF450000
Encoding: 355 9575 248
Width: 600
Flags: MW
HStem: 144 72<0 600 0 600> 288 72<0 264 336 600 0 264>
VStem: 264 72<360 792>
LayerCount: 2
Fore
SplineSet
336 360 m 1
 600 360 l 1
 600 288 l 1
 0 288 l 1
 0 360 l 1
 264 360 l 1
 264 792 l 1
 336 792 l 1
 336 360 l 1
600 144 m 1
 0 144 l 1
 0 216 l 1
 600 216 l 1
 600 144 l 1
EndSplineSet
EndChar

StartChar: SM790000
Encoding: 356 8962 249
Width: 600
Flags: MW
HStem: 0 53<126 474 126 527>
VStem: 73 53<53 290 53 312 53 312> 474 53<53 290 290 290>
LayerCount: 2
Fore
SplineSet
73 0 m 1
 73 312 l 1
 300 567 l 1
 527 312 l 1
 527 0 l 1
 73 0 l 1
126 290 m 1
 126 53 l 1
 474 53 l 1
 474 290 l 1
 300 485 l 1
 126 290 l 1
EndSplineSet
EndChar

StartChar: SF090000
Encoding: 357 9508 250
Width: 600
Flags: MW
HStem: 216 72<0 264 0 264>
VStem: 264 72<-288 216 216 216 288 792>
LayerCount: 2
Fore
SplineSet
336 -288 m 1
 264 -288 l 1
 264 216 l 1
 0 216 l 1
 0 288 l 1
 264 288 l 1
 264 792 l 1
 336 792 l 1
 336 -288 l 1
EndSplineSet
EndChar

StartChar: eth
Encoding: 358 240 251
Width: 600
Flags: W
HStem: -14 80<244.5 357 244.5 381.5> 390 81<244.5 324 225.5 356.5> 578 20G<200 200> 607 20G<316 316> 621 20G<90 90>
VStem: 42 89<186.5 269.5 186.5 302.5> 469 89<188.5 268>
LayerCount: 2
Fore
SplineSet
250 660 m 1xee
 292 728 l 1
 356 685 l 1xee
 316 627 l 1
 332 617 l 2xf6
 395 575 453 537 502 447 c 0
 536 382 558 308 558 232 c 0
 558 96 463 -14 300 -14 c 0
 130 -14 42 105 42 228 c 0
 42 377 160 471 291 471 c 0
 357 471 399 446 415 435 c 1
 417 437 l 1
 364 508 283 556 268 565 c 1
 216 482 l 1
 149 520 l 1
 200 598 l 1
 183 606 140 625 90 641 c 1
 126 708 l 1
 151 701 188 690 250 660 c 1xee
131 228 m 0
 131 145 189 66 300 66 c 0
 414 66 469 149 469 228 c 0
 469 308 413 390 300 390 c 0
 189 390 131 311 131 228 c 0
EndSplineSet
EndChar

StartChar: eng
Encoding: 359 331 252
Width: 600
Flags: W
HStem: -134 89<245 326 326 334 245 326> 0 82<23 104 191 272 23 104> 371 82<23 104 23 191> 380 89<315 367>
VStem: 104 87<82 312 82 371 82 371> 245 27 414 87<45 289>
LayerCount: 2
Fore
SplineSet
191 312 m 1xfe
 191 82 l 1
 272 82 l 1
 272 0 l 1
 23 0 l 1
 23 82 l 1
 104 82 l 1
 104 371 l 1
 23 371 l 1
 23 453 l 1
 191 453 l 1xee
 191 415 l 1
 218 435 263 469 332 469 c 0
 439 469 501 387 501 289 c 2
 501 38 l 2
 501 -78 413 -134 334 -134 c 2
 245 -134 l 1
 245 -45 l 1
 326 -45 l 2
 392 -45 414 12 414 45 c 2
 414 289 l 2
 414 340 391 380 343 380 c 0
 287 380 240 348 191 312 c 1xfe
EndSplineSet
EndChar

StartChar: arrowleft
Encoding: 360 8592 253
Width: 600
Flags: MW
HStem: 257 60<165 574 165 574>
VStem: 18 556<282.5 294>
LayerCount: 2
Fore
SplineSet
574 257 m 1
 165 257 l 1
 203 202 205 173 205 173 c 2
 205 168 201 154 185 154 c 0
 175 154 168 162 151 181 c 0
 136 197 112 223 37 266 c 0
 26 272 18 276 18 289 c 0
 18 299 23 301 57 322 c 0
 115 356 137 378 163 408 c 0
 171 418 178 421 184 421 c 0
 201 421 205 408 205 402 c 0
 205 384 181 341 165 317 c 1
 574 317 l 1
 574 257 l 1
EndSplineSet
EndChar

StartChar: rcedilla
Encoding: 361 343 254
Width: 600
Flags: W
HStem: -171 70<319 339.5 319 385.5> -18 21G<364 370.5> 0 82<62 182 269 294 62 182 367 454 367 367> 371 82<71 182 71 269> 381 86<407 450>
VStem: 182 87<82 269 82 371> 289.5 164.5
LayerCount: 2
Fore
SplineSet
367 0 m 1xb6
 364 -18 l 1xd6
 377 -18 439 -40 439 -96 c 0
 439 -115 429 -171 342 -171 c 0
 290 -171 235 -157 213 -152 c 1
 225 -83 l 1
 233 -85 302 -101 336 -101 c 0
 343 -101 350 -101 355 -96 c 1
 352 -87 345 -86 285 -78 c 1
 294 0 l 1xb6
 62 0 l 1
 62 82 l 1
 182 82 l 1
 182 371 l 1
 71 371 l 1
 71 453 l 1
 269 453 l 1xb4
 269 379 l 1
 311 419 364 467 450 467 c 0
 526 467 564 428 586 406 c 1
 497 338 l 1
 486 357 467 381 433 381 c 0
 368 381 277 277 269 269 c 1
 269 82 l 1xac
 454 82 l 1
 454 0 l 1
 367 0 l 1xb6
EndSplineSet
EndChar

StartChar: plusminus
Encoding: 362 177 255
Width: 600
Flags: W
HStem: 23 88<54 546 54 546> 137 21G<256 344 256 256> 325 88<54 256 54 256 344 546> 581 20G<256 344 344 344>
VStem: 256 88<137 325 137 325 413 601>
LayerCount: 2
Fore
SplineSet
256 601 m 1
 344 601 l 1
 344 413 l 1
 546 413 l 1
 546 325 l 1
 344 325 l 1
 344 137 l 1
 256 137 l 1xf8
 256 325 l 1
 54 325 l 1
 54 413 l 1
 256 413 l 1
 256 601 l 1
54 111 m 1xb8
 546 111 l 1
 546 23 l 1
 54 23 l 1
 54 111 l 1xb8
EndSplineSet
EndChar

StartChar: Gamma
Encoding: 363 915 256
Width: 600
Flags: MW
HStem: 0 82<47 129 212 308 47 129> 501 82<47 129 47 542 212 459 212 212>
VStem: 129 83<82 501 82 501> 464 80.5
LayerCount: 2
Fore
SplineSet
47 583 m 1
 542 583 l 1
 547 371 l 1
 469 371 l 1
 459 501 l 1
 212 501 l 1
 212 82 l 1
 308 82 l 1
 308 0 l 1
 47 0 l 1
 47 82 l 1
 129 82 l 1
 129 501 l 1
 47 501 l 1
 47 583 l 1
EndSplineSet
EndChar

StartChar: underscorebroken
Encoding: 364 -1 257
Width: 600
Flags: MW
HStem: -162 87<45 555 45 555>
VStem: 45 510<-162 -75 -162 -75>
LayerCount: 2
Fore
SplineSet
555 -75 m 1
 555 -162 l 1
 45 -162 l 1
 45 -75 l 1
 555 -75 l 1
EndSplineSet
EndChar

StartChar: SF150000
Encoding: 365 9618 258
Width: 600
Flags: W
HStem: -267 100<101 199 0 100 301 399 501 600> -167 100<0 99 0 99 101 199 201 299 301 399 401 499 501 600> -67 100<0 99 0 99 101 199 0 101 201 299 301 399 401 499 501 600> 33 100<0 99 0 99 101 199 201 299 301 399 401 499 501 600> 133 100<0 99 0 99 101 199 0 101 201 299 301 399 401 499 501 600> 233 100<0 99 0 99 101 199 201 299 301 399 401 499 501 600> 333 100<0 99 0 99 101 199 0 101 201 299 301 399 401 499 501 600> 433 100<0 99 0 99 101 199 201 299 301 399 401 499 501 600> 533 100<0 99 0 99 101 199 0 101 201 299 301 399 401 499 501 600> 633 100<0 99 0 100 0 199 0 199 201 201 201 299 401 401 401 499>
VStem: 0 100<-166 -68 34 132 234 332 434 532 634 733> 100 100<-267 -168 -267 -168 -166 -68 -267 -166 -66 32 34 132 134 232 234 332 334 432 434 532 534 632 634 733> 200 100<-267 -168 -267 -168 -166 -68 -66 32 34 132 134 232 234 332 334 432 434 532 534 632 634 733> 300 100<-267 -168 -267 -168 -166 -68 -267 -166 -66 32 34 132 134 232 234 332 334 432 434 532 534 632 634 733> 400 100<-267 -168 -267 -168 -166 -68 -66 32 34 132 134 232 234 332 334 432 434 532 534 632 634 733> 500 100<-267 -168 -168 -168 -267 -68 -267 -166 -66 32 32 32 134 232 232 232 334 432 432 432 534 632 632 632>
LayerCount: 2
Fore
SplineSet
0 733 m 1xaaeb
 100 733 l 1
 100 634 l 1
 99 633 l 1
 0 633 l 1
 0 733 l 1xaaeb
200 733 m 1
 300 733 l 1
 300 634 l 1
 299 633 l 1
 201 633 l 1
 200 634 l 1
 200 733 l 1
400 733 m 1
 500 733 l 1
 500 634 l 1
 499 633 l 1
 401 633 l 1
 400 634 l 1
 400 733 l 1
100 632 m 1x0095
 101 633 l 1
 199 633 l 1
 200 632 l 1
 200 534 l 1
 199 533 l 1
 101 533 l 1
 100 534 l 1
 100 632 l 1x0095
300 632 m 1
 301 633 l 1
 399 633 l 1
 400 632 l 1
 400 534 l 1
 399 533 l 1
 301 533 l 1
 300 534 l 1
 300 632 l 1
501 633 m 1
 600 633 l 1
 600 533 l 1
 501 533 l 1
 500 534 l 1
 500 632 l 1
 501 633 l 1
0 533 m 1x012a
 99 533 l 1
 100 532 l 1
 100 434 l 1
 99 433 l 1
 0 433 l 1
 0 533 l 1x012a
200 532 m 1
 201 533 l 1
 299 533 l 1
 300 532 l 1
 300 434 l 1
 299 433 l 1
 201 433 l 1
 200 434 l 1
 200 532 l 1
400 532 m 1
 401 533 l 1
 499 533 l 1
 500 532 l 1
 500 434 l 1
 499 433 l 1
 401 433 l 1
 400 434 l 1
 400 532 l 1
100 432 m 1x0215
 101 433 l 1
 199 433 l 1
 200 432 l 1
 200 334 l 1
 199 333 l 1
 101 333 l 1
 100 334 l 1
 100 432 l 1x0215
300 432 m 1
 301 433 l 1
 399 433 l 1
 400 432 l 1
 400 334 l 1
 399 333 l 1
 301 333 l 1
 300 334 l 1
 300 432 l 1
501 433 m 1
 600 433 l 1
 600 333 l 1
 501 333 l 1
 500 334 l 1
 500 432 l 1
 501 433 l 1
0 333 m 1x042a
 99 333 l 1
 100 332 l 1
 100 234 l 1
 99 233 l 1
 0 233 l 1
 0 333 l 1x042a
200 332 m 1
 201 333 l 1
 299 333 l 1
 300 332 l 1
 300 234 l 1
 299 233 l 1
 201 233 l 1
 200 234 l 1
 200 332 l 1
400 332 m 1
 401 333 l 1
 499 333 l 1
 500 332 l 1
 500 234 l 1
 499 233 l 1
 401 233 l 1
 400 234 l 1
 400 332 l 1
100 232 m 1x0815
 101 233 l 1
 199 233 l 1
 200 232 l 1
 200 134 l 1
 199 133 l 1
 101 133 l 1
 100 134 l 1
 100 232 l 1x0815
300 232 m 1
 301 233 l 1
 399 233 l 1
 400 232 l 1
 400 134 l 1
 399 133 l 1
 301 133 l 1
 300 134 l 1
 300 232 l 1
501 233 m 1
 600 233 l 1
 600 133 l 1
 501 133 l 1
 500 134 l 1
 500 232 l 1
 501 233 l 1
0 133 m 1x102a
 99 133 l 1
 100 132 l 1
 100 34 l 1
 99 33 l 1
 0 33 l 1
 0 133 l 1x102a
200 132 m 1
 201 133 l 1
 299 133 l 1
 300 132 l 1
 300 34 l 1
 299 33 l 1
 201 33 l 1
 200 34 l 1
 200 132 l 1
400 132 m 1
 401 133 l 1
 499 133 l 1
 500 132 l 1
 500 34 l 1
 499 33 l 1
 401 33 l 1
 400 34 l 1
 400 132 l 1
100 32 m 1x2015
 101 33 l 1
 199 33 l 1
 200 32 l 1
 200 -66 l 1
 199 -67 l 1
 101 -67 l 1
 100 -66 l 1
 100 32 l 1x2015
300 32 m 1
 301 33 l 1
 399 33 l 1
 400 32 l 1
 400 -66 l 1
 399 -67 l 1
 301 -67 l 1
 300 -66 l 1
 300 32 l 1
501 33 m 1
 600 33 l 1
 600 -67 l 1
 501 -67 l 1
 500 -66 l 1
 500 32 l 1
 501 33 l 1
0 -67 m 1x402a
 99 -67 l 1
 100 -68 l 1
 100 -166 l 1
 99 -167 l 1
 0 -167 l 1
 0 -67 l 1x402a
200 -68 m 1
 201 -67 l 1
 299 -67 l 1
 300 -68 l 1
 300 -166 l 1
 299 -167 l 1
 201 -167 l 1
 200 -166 l 1
 200 -68 l 1
400 -68 m 1
 401 -67 l 1
 499 -67 l 1
 500 -68 l 1
 500 -166 l 1
 499 -167 l 1
 401 -167 l 1
 400 -166 l 1
 400 -68 l 1
101 -167 m 1x8015
 199 -167 l 1
 200 -168 l 1
 200 -267 l 1
 100 -267 l 1
 100 -168 l 1
 101 -167 l 1x8015
301 -167 m 1
 399 -167 l 1
 400 -168 l 1
 400 -267 l 1
 300 -267 l 1
 300 -168 l 1
 301 -167 l 1
501 -167 m 1
 600 -167 l 1
 600 -267 l 1
 500 -267 l 1
 500 -168 l 1
 501 -167 l 1
EndSplineSet
EndChar

StartChar: SF080000
Encoding: 366 9500 259
Width: 600
Flags: MW
HStem: 216 72<336 600 336 600>
VStem: 264 72<-288 216 288 792>
LayerCount: 2
Fore
SplineSet
264 -288 m 1
 264 792 l 1
 336 792 l 1
 336 288 l 1
 600 288 l 1
 600 216 l 1
 336 216 l 1
 336 -288 l 1
 264 -288 l 1
EndSplineSet
EndChar

StartChar: foursuperior
Encoding: 367 8308 260
Width: 600
Flags: W
HStem: 246 56<231 309 367 420 231 309> 337 58<223 309 223 309 367 420> 535 104<307 309 307 307> 619 20G<304 367 367 367>
VStem: 309 58<302 337 302 337 395 535 535 535>
LayerCount: 2
Fore
SplineSet
367 639 m 1xd8
 367 395 l 1
 420 395 l 1
 420 337 l 1
 367 337 l 1
 367 302 l 1
 420 302 l 1
 420 246 l 1
 231 246 l 1
 231 302 l 1
 309 302 l 1
 309 337 l 1
 153 337 l 1
 153 384 l 1
 304 639 l 1
 367 639 l 1xd8
309 395 m 1
 309 535 l 1
 307 535 l 1xe8
 223 395 l 1
 309 395 l 1
EndSplineSet
EndChar

StartChar: SF380000
Encoding: 368 9562 261
Width: 600
Flags: MW
HStem: 144 72<264 600 264 600> 288 72<408 600 408 600>
VStem: 192 72<216 216 216 792> 336 72<360 792 360 792 360 792>
LayerCount: 2
Fore
SplineSet
336 288 m 1
 336 792 l 1
 408 792 l 1
 408 360 l 1
 600 360 l 1
 600 288 l 1
 336 288 l 1
264 216 m 1
 600 216 l 1
 600 144 l 1
 192 144 l 1
 192 792 l 1
 264 792 l 1
 264 216 l 1
EndSplineSet
EndChar

StartChar: Iogonek
Encoding: 369 302 262
Width: 600
Flags: W
HStem: -144 66<287 357> 0 82<88 257 88 275 88 257 408 408 408 513> 501 82<88 257 88 513 344 344 344 513>
VStem: 223 91<-63 -56> 257 87<82 501 82 501>
LayerCount: 2
Fore
SplineSet
420 -49 m 1xe8
 405 -115 l 1
 382 -130 359 -144 313 -144 c 0
 261 -144 223 -112 223 -72 c 0
 223 -40 246 -17 275 -2 c 1
 275 0 l 1xf0
 88 0 l 1
 88 82 l 1
 257 82 l 1
 257 501 l 1
 88 501 l 1
 88 583 l 1
 513 583 l 1
 513 501 l 1
 344 501 l 1
 344 82 l 1xe8
 513 82 l 1
 513 0 l 1
 408 0 l 1
 372 -8 314 -31 314 -55 c 0
 314 -71 331 -78 345 -78 c 0xf0
 369 -78 381 -71 420 -49 c 1xe8
EndSplineSet
EndChar

StartChar: SF500000
Encoding: 370 9560 263
Width: 600
Flags: MW
HStem: 144 72<336 600 336 600> 288 72<336 600 336 600>
VStem: 264 72<216 288 360 792>
LayerCount: 2
Fore
SplineSet
264 792 m 1
 336 792 l 1
 336 360 l 1
 600 360 l 1
 600 288 l 1
 336 288 l 1
 336 216 l 1
 600 216 l 1
 600 144 l 1
 264 144 l 1
 264 792 l 1
EndSplineSet
EndChar

StartChar: female
Encoding: 371 9792 264
Width: 600
Flags: MW
HStem: 163 47<154 276 154 276 326 448> 275 50<274 276 274 339> 513 50<274 326>
VStem: 156 50<393 445 393 457.5> 276 50<38 163 38 163 210 275> 394 50<393 445>
LayerCount: 2
Fore
SplineSet
326 275 m 1
 326 210 l 1
 448 210 l 1
 448 163 l 1
 326 163 l 1
 326 38 l 1
 276 38 l 1
 276 163 l 1
 154 163 l 1
 154 210 l 1
 276 210 l 1
 276 275 l 1
 237 275 156 326 156 417 c 0
 156 498 220 563 300 563 c 0
 383 563 444 494 444 418 c 0
 444 322 352 275 326 275 c 1
300 513 m 0
 248 513 206 471 206 419 c 0
 206 367 248 325 300 325 c 0
 352 325 394 367 394 419 c 0
 394 471 352 513 300 513 c 0
EndSplineSet
EndChar

StartChar: SF040000
Encoding: 372 9496 265
Width: 600
Flags: MW
HStem: 216 72<0 264 0 336 0 264>
VStem: 264 72<288 792 216 792>
LayerCount: 2
Fore
SplineSet
264 288 m 1
 264 792 l 1
 336 792 l 1
 336 216 l 1
 0 216 l 1
 0 288 l 1
 264 288 l 1
EndSplineSet
EndChar

StartChar: eightsuperior
Encoding: 373 8312 266
Width: 600
Flags: W
HStem: 238 56<281.5 318.5 281.5 336> 411 58<284 317.5 284 319> 582 57<282.5 317.5>
VStem: 172 61<336 368.5 336 370.5> 179 60<511.5 543.5 511.5 559> 361 60<511.5 543> 367 61<336 368.5>
LayerCount: 2
Fore
SplineSet
219 443 m 1xf2
 189 473 179 495 179 528 c 0
 179 590 232 639 300 639 c 0
 368 639 421 590 421 528 c 0xec
 421 495 411 472 381 443 c 1
 415 412 428 388 428 354 c 0
 428 289 372 238 300 238 c 0
 228 238 172 289 172 353 c 0
 172 388 185 412 219 443 c 1xf2
300 582 m 0xec
 265 582 239 559 239 528 c 0
 239 495 267 469 301 469 c 0
 334 469 361 496 361 527 c 0
 361 559 335 582 300 582 c 0xec
300 411 m 0xf2
 262 411 233 385 233 352 c 0
 233 320 263 294 300 294 c 0
 337 294 367 320 367 352 c 0
 367 385 338 411 300 411 c 0xf2
EndSplineSet
EndChar

StartChar: Eogonek
Encoding: 374 280 267
Width: 600
Flags: W
HStem: -144 66<419.5 489.5> 0 82<45 128 215 408 45 128> 195 22 266 82<215 333 215 333> 367 53<333 548 333 465> 501 82<45 128 45 543 215 215 215 456>
VStem: 128 87<82 266 348 501> 333 83<195 266 266 266 348 420 195 420> 356 90<-63 -56> 460.5 85 467.5 85.5
LayerCount: 2
Fore
SplineSet
553 -49 m 1xd720
 537 -115 l 1
 514 -130 492 -144 445 -144 c 0
 394 -144 356 -112 356 -72 c 0
 356 -40 379 -17 408 -2 c 1
 408 0 l 1xd6a0
 45 0 l 1
 45 82 l 1
 128 82 l 1
 128 501 l 1
 45 501 l 1
 45 583 l 1
 543 583 l 1
 548 367 l 1
 465 367 l 1xdf40
 456 501 l 1
 215 501 l 1
 215 348 l 1
 333 348 l 1xd740
 333 420 l 1
 416 420 l 1xdf20
 416 195 l 1
 333 195 l 1
 333 266 l 1
 215 266 l 1
 215 82 l 1
 465 82 l 1
 470 217 l 1
 553 217 l 1
 553 0 l 1xf720
 541 0 l 1
 505 -8 446 -31 446 -55 c 0
 446 -71 463 -78 478 -78 c 0xd6a0
 501 -78 514 -71 553 -49 c 1xd720
EndSplineSet
EndChar

StartChar: mu
Encoding: 376 181 269
Width: 600
Flags: W
HStem: -15 87<281 326> 0 76<495 578 495 578> 381 76<23 105 23 192 326 408>
VStem: 105 87<-143 22 180 208 208 381 381 381> 408 87<0 457 22 457 208 381 381 381>
LayerCount: 2
Fore
SplineSet
23 457 m 1x78
 192 457 l 1
 192 208 l 2
 192 152 194 136 211 114 c 0
 232 87 266 72 296 72 c 0
 327 72 367 88 384 112 c 0xb8
 402 136 408 159 408 208 c 2
 408 381 l 1
 326 381 l 1
 326 457 l 1
 495 457 l 1
 495 76 l 1
 578 76 l 1
 578 0 l 1
 408 0 l 1
 408 22 l 1x78
 396 22 383 12 366 0 c 0
 353 -10 336 -15 316 -15 c 0
 312 -15 244 -15 192 22 c 1xb8
 192 -143 l 1
 105 -143 l 1
 105 381 l 1
 23 381 l 1
 23 457 l 1x78
EndSplineSet
EndChar

StartChar: hbar
Encoding: 377 295 270
Width: 600
Flags: W
HStem: 0 82<26 109 196 272 26 109 334 418 505 586> 363 77<322 369.5> 465 62<13 109 13 109 196 417> 559 89
VStem: 109 87<82 298 384 465 527 562 562 562> 418 87<82 272 82 279 82 301>
LayerCount: 2
Fore
SplineSet
196 527 m 1
 417 527 l 1
 417 465 l 1
 196 465 l 1xbc
 196 384 l 1
 229 408 275 440 342 440 c 0
 442 440 505 369 505 272 c 2
 505 82 l 1
 586 82 l 1
 586 0 l 1
 334 0 l 1
 334 82 l 1
 418 82 l 1
 418 279 l 2
 418 323 396 363 343 363 c 0
 301 363 254 343 196 298 c 1xfc
 196 82 l 1
 272 82 l 1
 272 0 l 1
 26 0 l 1
 26 82 l 1
 109 82 l 1
 109 465 l 1
 13 465 l 1
 13 527 l 1
 109 527 l 1
 109 562 l 1
 19 556 l 1
 13 634 l 1
 196 648 l 1
 196 527 l 1
EndSplineSet
EndChar

StartChar: Gcedilla
Encoding: 378 290 271
Width: 600
Flags: W
HStem: -171 70<307.5 328.5 307.5 374.5> -78 149<273 273> -18 21G<353 359.5> -15 86<258 354> 195 83<310 454 310 588 541 541 541 588> 514 86<260.5 322 233.5 373> 573 20G<450 530 530 530>
VStem: 37 92<245 359 227.5 380.5> 277 151 447 79 454 87<97 195 37 195>
LayerCount: 2
Fore
SplineSet
354 -15 m 1xada0
 353 -18 l 1xada0
 366 -18 428 -40 428 -96 c 0
 428 -115 418 -171 331 -171 c 0
 278 -171 224 -157 202 -152 c 1
 214 -83 l 1
 222 -85 290 -101 325 -101 c 0xada0
 332 -101 339 -101 344 -96 c 1
 341 -87 334 -86 273 -78 c 1xcda0
 281 -14 l 1
 73 16 37 201 37 289 c 0
 37 472 161 600 306 600 c 0
 338 600 397 591 444 538 c 1x9d40
 450 593 l 1
 530 593 l 1
 528 568 526 536 526 495 c 0
 526 431 533 396 538 371 c 1xab40
 454 360 l 1
 447 417 434 514 312 514 c 0
 209 514 129 428 129 290 c 0
 129 165 192 71 324 71 c 0
 335 71 385 71 454 97 c 1
 454 195 l 1
 310 195 l 1
 310 278 l 1
 588 278 l 1
 588 195 l 1
 541 195 l 1
 541 37 l 1x9d20
 497 18 435 -8 354 -15 c 1xada0
EndSplineSet
EndChar

StartChar: SF270000
Encoding: 379 9564 272
Width: 600
Flags: MW
HStem: 216 72<0 192 264 336 0 192>
VStem: 192 72<288 792> 336 72<288 792 216 792>
LayerCount: 2
Fore
SplineSet
264 288 m 1
 336 288 l 1
 336 792 l 1
 408 792 l 1
 408 216 l 1
 0 216 l 1
 0 288 l 1
 192 288 l 1
 192 792 l 1
 264 792 l 1
 264 288 l 1
EndSplineSet
EndChar

StartChar: Lquoteright
Encoding: 380 -1 273
Width: 600
Flags: MW
HStem: 0 82<48 144 231 467 48 144> 501 82<48 144 48 351 231 351 231 231>
VStem: 144 87<82 501 82 501> 473.5 85
LayerCount: 2
Fore
SplineSet
48 583 m 1
 351 583 l 1
 351 501 l 1
 231 501 l 1
 231 82 l 1
 467 82 l 1
 480 280 l 1
 565 280 l 1
 552 0 l 1
 48 0 l 1
 48 82 l 1
 144 82 l 1
 144 501 l 1
 48 501 l 1
 48 583 l 1
431 583 m 1
 575 583 l 1
 452 309 l 1
 344 309 l 1
 431 583 l 1
EndSplineSet
EndChar

StartChar: SF540000
Encoding: 381 9578 274
Width: 600
Flags: MW
HStem: 144 72<0 264 0 264 336 600> 288 72<0 264 0 264 336 600>
VStem: 264 72<-288 144 -288 144 216 288 360 792>
LayerCount: 2
Fore
SplineSet
336 360 m 1
 600 360 l 1
 600 288 l 1
 336 288 l 1
 336 216 l 1
 600 216 l 1
 600 144 l 1
 336 144 l 1
 336 -288 l 1
 264 -288 l 1
 264 144 l 1
 0 144 l 1
 0 216 l 1
 264 216 l 1
 264 288 l 1
 0 288 l 1
 0 360 l 1
 264 360 l 1
 264 792 l 1
 336 792 l 1
 336 360 l 1
EndSplineSet
EndChar

StartChar: greaterequal
Encoding: 382 8805 275
Width: 600
Flags: W
HStem: 18 88<55 544 55 544> 130 21G<69 69>
VStem: 32 548<373 532>
LayerCount: 2
Fore
SplineSet
69 610 m 1
 580 373 l 1
 69 130 l 1
 33 209 l 1xe0
 380 372 l 1
 32 532 l 1
 69 610 l 1
55 106 m 1xa0
 544 106 l 1
 544 18 l 1
 55 18 l 1
 55 106 l 1xa0
EndSplineSet
EndChar

StartChar: SF510000
Encoding: 383 9554 276
Width: 600
Flags: MW
HStem: 144 72<336 600 336 600> 288 72<336 600 336 336>
VStem: 264 72<-288 144 216 288>
LayerCount: 2
Fore
SplineSet
336 216 m 1
 600 216 l 1
 600 144 l 1
 336 144 l 1
 336 -288 l 1
 264 -288 l 1
 264 360 l 1
 600 360 l 1
 600 288 l 1
 336 288 l 1
 336 216 l 1
EndSplineSet
EndChar

StartChar: Eth
Encoding: 384 208 277
Width: 600
Flags: MW
HStem: 0 82<23 100 187 281 23 100> 259 84<23 100 23 100 187 333> 501 82<23 100 23 284 187 187 187 284 284 285>
VStem: 100 87<82 259 82 259 343 501> 469 92<258 320 239.5 332.5>
LayerCount: 2
Fore
SplineSet
23 583 m 1
 284 583 l 2
 369 583 439 577 498 503 c 0
 558 428 561 339 561 301 c 0
 561 178 518 102 476 61 c 0
 412 -1 319 0 281 0 c 2
 23 0 l 1
 23 82 l 1
 100 82 l 1
 100 259 l 1
 23 259 l 1
 23 343 l 1
 100 343 l 1
 100 501 l 1
 23 501 l 1
 23 583 l 1
285 501 m 2
 187 501 l 1
 187 343 l 1
 333 343 l 1
 333 259 l 1
 187 259 l 1
 187 82 l 1
 281 82 l 2
 313 82 371 82 412 123 c 0
 445 156 469 216 469 300 c 0
 469 365 453 412 430 445 c 0
 395 496 356 501 285 501 c 2
EndSplineSet
EndChar

StartChar: SF190000
Encoding: 385 9569 278
Width: 600
Flags: MW
HStem: 144 72<0 264 0 264> 288 72<0 264 0 264>
VStem: 264 72<-288 144 144 144 216 288 288 288 360 792>
LayerCount: 2
Fore
SplineSet
336 -288 m 1
 264 -288 l 1
 264 144 l 1
 0 144 l 1
 0 216 l 1
 264 216 l 1
 264 288 l 1
 0 288 l 1
 0 360 l 1
 264 360 l 1
 264 792 l 1
 336 792 l 1
 336 -288 l 1
EndSplineSet
EndChar

StartChar: overline
Encoding: 386 8254 279
Width: 600
Flags: MW
HStem: 718 87<45 555 45 555>
VStem: 45 510<718 805 718 805>
LayerCount: 2
Fore
SplineSet
555 805 m 1
 555 718 l 1
 45 718 l 1
 45 805 l 1
 555 805 l 1
EndSplineSet
EndChar

StartChar: heart
Encoding: 387 9829 280
Width: 600
Flags: MW
HStem: -11 21G
VStem: 51 498<419 477.5>
LayerCount: 2
Fore
SplineSet
185 203 m 2
 133 272 l 2
 68 357 51 394 51 444 c 0
 51 511 102 563 168 563 c 0
 232 563 275 525 300 448 c 1
 302 448 l 1
 311 483 319 499 336 518 c 0
 361 547 395 563 431 563 c 0
 496 563 549 512 549 448 c 0
 549 389 524 336 452 245 c 0
 406 187 396 174 378 148 c 0
 335 83 315 43 301 -11 c 1
 292 21 286 38 275 62 c 0
 258 97 223 153 185 203 c 2
EndSplineSet
EndChar

StartChar: SM580000
Encoding: 388 -1 281
Width: 600
Flags: MW
HStem: 67 430<240.5 359.5>
VStem: 85 430<222.5 341>
LayerCount: 2
Fore
SplineSet
300 497 m 0
 419 497 515 401 515 282 c 0
 515 163 419 67 300 67 c 0
 181 67 85 163 85 282 c 0
 85 400 181 497 300 497 c 0
EndSplineSet
EndChar

StartChar: threequarters
Encoding: 389 190 282
Width: 600
Flags: W
HStem: -79 55<424 502 559 612 424 502> 4 57<416 502 416 502 559 612> 221 83<500 502 500 500> 251 57<115 150 115 166> 430 56<95 151> 444 20G 585 58<117 143> 604 20G<620 620>
VStem: 181 60<530.5 552.5> 200 59<352.5 390> 502 57<-24 4 -24 4 61 221 221 221>
LayerCount: 2
Fore
SplineSet
559 304 m 1xf660
 559 61 l 1
 612 61 l 1
 612 4 l 1
 559 4 l 1xeaa0
 559 -24 l 1
 612 -24 l 1
 612 -79 l 1
 424 -79 l 1
 424 -24 l 1
 502 -24 l 1x9660
 502 4 l 1
 347 4 l 1
 347 56 l 1
 497 304 l 1
 559 304 l 1xf660
502 61 m 1
 502 221 l 1
 500 221 l 1
 416 61 l 1
 502 61 l 1
39 547 m 1
 9 595 l 1
 67 633 92 643 127 643 c 0
 192 643 241 598 241 540 c 0x96a0
 241 510 230 485 209 464 c 1x9660
 242 442 259 410 259 371 c 0
 259 302 204 251 128 251 c 0
 97 251 76 256 30 275 c 2
 3 286 l 1
 26 339 l 1
 76 315 101 308 129 308 c 0
 171 308 200 334 200 371 c 0
 200 409 174 430 128 430 c 2x9a60
 105 429 l 1
 95 429 l 1
 95 486 l 1
 104 486 l 2
 140 487 148 488 160 498 c 0
 174 508 181 522 181 539 c 0
 181 566 159 585 127 585 c 0
 107 585 91 579 62 561 c 2
 39 547 l 1
573 657 m 1
 620 624 l 1x9560
 99 -94 l 1
 53 -58 l 1
 573 657 l 1
EndSplineSet
EndChar

StartChar: SF230000
Encoding: 390 9571 283
Width: 600
Flags: MW
HStem: 144 72<0 192 0 264> 288 72<0 192 0 264 0 192>
VStem: 192 72<-288 144 144 144 360 792> 336 72<-288 792 -288 792>
LayerCount: 2
Fore
SplineSet
336 -288 m 1
 336 792 l 1
 408 792 l 1
 408 -288 l 1
 336 -288 l 1
192 144 m 1
 0 144 l 1
 0 216 l 1
 264 216 l 1
 264 -288 l 1
 192 -288 l 1
 192 144 l 1
264 288 m 1
 0 288 l 1
 0 360 l 1
 192 360 l 1
 192 792 l 1
 264 792 l 1
 264 288 l 1
EndSplineSet
EndChar

StartChar: SF110000
Encoding: 391 9474 284
Width: 600
Flags: MW
HStem: -288 1080<264 336 264 336>
VStem: 264 72<-288 792 -288 792>
LayerCount: 2
Fore
SplineSet
264 -288 m 1
 264 792 l 1
 336 792 l 1
 336 -288 l 1
 264 -288 l 1
EndSplineSet
EndChar

StartChar: fivesuperior
Encoding: 392 8309 285
Width: 600
Flags: MW
HStem: 238 58<271.5 310 269.5 328.5> 444 56<285.5 312.5> 572 58<239 408 239 239>
VStem: 183 56<491 572 491 630> 364 61<346 391>
LayerCount: 2
Fore
SplineSet
183 630 m 1
 408 630 l 1
 408 572 l 1
 239 572 l 1
 239 491 l 1
 255 497 276 500 295 500 c 0
 370 500 425 446 425 371 c 0
 425 293 369 238 288 238 c 0
 255 238 227 244 184 261 c 2
 158 271 l 1
 180 325 l 1
 226 304 254 296 285 296 c 0
 335 296 364 323 364 369 c 0
 364 413 334 444 291 444 c 0
 264 444 244 435 214 412 c 1
 183 430 l 1
 183 630 l 1
EndSplineSet
EndChar

StartChar: minussuperior
Encoding: 393 8315 286
Width: 600
Flags: MW
HStem: 405 67<133 467 133 467>
VStem: 133 334<405 472 405 472>
LayerCount: 2
Fore
SplineSet
467 472 m 1
 467 405 l 1
 133 405 l 1
 133 472 l 1
 467 472 l 1
EndSplineSet
EndChar

StartChar: ncedilla
Encoding: 394 326 287
Width: 600
Flags: W
HStem: -171 70<291.5 312.5 291.5 358.5> -18 21G<337 343.5> -18 24<272 343.5> 0 82<21 104 191 266 21 104 339 413 500 581 339 339> 371 82<21 104 21 191> 381 86<310 365.5>
VStem: 104 87<82 315 82 371 82 371> 261.5 10.5 329 9 413 87<82 286 286 290 82 309.5>
LayerCount: 2
Fore
SplineSet
339 0 m 1x9ac0
 337 -18 l 1xcac0
 350 -18 412 -40 412 -96 c 0
 412 -115 402 -171 315 -171 c 0
 262 -171 208 -157 186 -152 c 1
 197 -83 l 1
 206 -85 274 -101 309 -101 c 0
 316 -101 323 -101 328 -96 c 1
 325 -87 318 -86 257 -78 c 1
 266 0 l 1
 21 0 l 1
 21 82 l 1
 104 82 l 1
 104 371 l 1
 21 371 l 1
 21 453 l 1
 191 453 l 1x9bc0
 191 413 l 1
 224 436 271 467 336 467 c 0x96c0
 436 467 500 395 500 290 c 2
 500 82 l 1
 581 82 l 1
 581 0 l 1
 339 0 l 1x9ac0
272 6 m 1xabc0
 329 6 l 1xaac0
 329 82 l 1
 413 82 l 1
 413 286 l 2
 413 333 392 381 339 381 c 0
 281 381 232 344 191 315 c 1
 191 82 l 1
 272 82 l 1x97c0
 272 6 l 1xabc0
EndSplineSet
EndChar

StartChar: onequarter
Encoding: 395 188 288
Width: 600
Flags: W
HStem: -79 55<411 489 546 598 411 489> 4 57<402 489 402 489 546 598> 221 83<487 489 487 487> 259 57<12 87 145 211 12 87> 604 20G<604 604> 623 20G<109 145 145 145>
VStem: 87 58<316 571 571 571> 489 57<-24 4 -24 4 61 221 221 221>
LayerCount: 2
Fore
SplineSet
546 304 m 1xf7
 546 61 l 1
 598 61 l 1
 598 4 l 1
 546 4 l 1xe7
 546 -24 l 1
 598 -24 l 1
 598 -79 l 1
 411 -79 l 1
 411 -24 l 1
 489 -24 l 1x97
 489 4 l 1
 334 4 l 1
 334 56 l 1
 484 304 l 1
 546 304 l 1xf7
489 61 m 1
 489 221 l 1
 487 221 l 1
 402 61 l 1
 489 61 l 1
1 595 m 1
 109 643 l 1
 145 643 l 1
 145 316 l 1
 211 316 l 1
 211 259 l 1
 12 259 l 1
 12 316 l 1
 87 316 l 1x97
 87 571 l 1
 25 543 l 1
 1 595 l 1
556 657 m 1
 604 624 l 1x9b
 82 -94 l 1
 36 -58 l 1
 556 657 l 1
EndSplineSet
EndChar

StartChar: phi
Encoding: 396 966 289
Width: 600
Flags: W
HStem: -13 21G<321 321> -7 21G<234 234> 389 85<337.5 375> 445 20G<207 207>
VStem: 41 89<202 244.5> 234 87<-151 -13 -151 -7 -151 -7 81 335 335 340> 470 89<205.5 279.5>
LayerCount: 2
Fore
SplineSet
321 -13 m 1xee
 321 -151 l 1
 234 -151 l 1
 234 -7 l 1
 71 29 41 168 41 229 c 0
 41 260 47 393 193 459 c 2
 207 465 l 1
 207 369 l 1
 203 366 l 2x5e
 157 335 130 283 130 228 c 0
 130 176 164 107 234 81 c 1
 234 335 l 2
 234 381 240 407 256 429 c 0
 279 460 317 474 348 474 c 0
 446 474 559 380 559 235 c 0
 559 170 533 5 321 -13 c 1xee
321 340 m 2x6e
 321 72 l 1
 337 73 l 2
 379 77 402 96 432 130 c 0
 456 157 470 180 470 231 c 0
 470 328 397 389 353 389 c 0
 322 389 321 357 321 340 c 2x6e
EndSplineSet
EndChar

StartChar: highcomman
Encoding: 397 -1 290
Width: 600
Flags: W
HStem: 0 82<21 104 191 267 21 104 329 413 500 581> 371 82<23 104 23 191> 381 86<310 362.5> 533 139<39 90 -6 174>
VStem: 104 87<82 313 82 371 82 371> 413 87<82 283 283 287 82 310>
LayerCount: 2
Fore
SplineSet
23 453 m 1xdc
 191 453 l 1xdc
 191 411 l 1
 224 434 271 467 336 467 c 0
 436 467 500 392 500 287 c 2
 500 82 l 1
 581 82 l 1
 581 0 l 1
 329 0 l 1
 329 82 l 1
 413 82 l 1
 413 283 l 2
 413 337 387 381 338 381 c 0
 282 381 234 344 191 313 c 1xbc
 191 82 l 1
 267 82 l 1
 267 0 l 1
 21 0 l 1
 21 82 l 1
 104 82 l 1
 104 371 l 1
 23 371 l 1
 23 453 l 1xdc
39 672 m 1
 174 672 l 1
 90 533 l 1
 -6 533 l 1
 39 672 l 1
EndSplineSet
EndChar

StartChar: yuan
Encoding: 398 -1 291
Width: 600
Flags: W
HStem: 0 82<145 259 346 461 145 259> 195 82<124 259 124 259 346 479> 530 82<22 91 22 251 197 197 197 251 352 406 510 510 510 578>
VStem: 22 229<530 612 530 612> 259 87<82 195 82 195 277 307> 352 226<530 612 530 612>
LayerCount: 2
Fore
SplineSet
259 277 m 1
 259 307 l 1xe8
 91 530 l 1
 22 530 l 1
 22 612 l 1
 251 612 l 1
 251 530 l 1
 197 530 l 1
 302 391 l 1
 406 530 l 1
 352 530 l 1
 352 612 l 1
 578 612 l 1
 578 530 l 1
 510 530 l 1xf4
 346 307 l 1
 346 277 l 1
 479 277 l 1
 479 195 l 1
 346 195 l 1
 346 82 l 1
 461 82 l 1
 461 0 l 1
 145 0 l 1
 145 82 l 1
 259 82 l 1
 259 195 l 1
 124 195 l 1
 124 277 l 1
 259 277 l 1
EndSplineSet
EndChar

StartChar: oneeighth
Encoding: 399 8539 292
Width: 600
Flags: W
HStem: -88 56<454.5 491 454.5 508.5> 81 58<456.5 489.5 456.5 491.5> 247 57<455.5 490.5> 259 57<12 87 145 211 12 87> 604 20G<584 584> 623 20G<109 145 145 145>
VStem: 87 58<316 571 571 571> 346 60<8.5 40 8.5 42.5> 352 60<180 210 179.5 226> 533 60<180 210> 539 60<8.5 40>
LayerCount: 2
Fore
SplineSet
392 113 m 1xe720
 366 136 352 164 352 196 c 0
 352 256 405 304 473 304 c 0
 540 304 593 256 593 196 c 0xe6c0
 593 164 579 135 553 113 c 1
 585 87 599 59 599 25 c 0
 599 -38 544 -88 473 -88 c 0
 402 -88 346 -38 346 26 c 0
 346 59 363 91 392 113 c 1xe720
412 195 m 0xe6c0
 412 164 440 139 473 139 c 0
 506 139 533 164 533 195 c 0
 533 225 508 247 473 247 c 0
 438 247 412 225 412 195 c 0xe6c0
406 24 m 0xd720
 406 -7 436 -32 473 -32 c 0
 509 -32 539 -7 539 24 c 0
 539 56 510 81 473 81 c 0
 435 81 406 56 406 24 c 0xd720
1 595 m 1
 109 643 l 1
 145 643 l 1
 145 316 l 1
 211 316 l 1
 211 259 l 1
 12 259 l 1
 12 316 l 1
 87 316 l 1
 87 571 l 1
 25 543 l 1
 1 595 l 1
536 657 m 1
 584 624 l 1xeb20
 62 -94 l 1
 16 -58 l 1
 536 657 l 1
EndSplineSet
EndChar

StartChar: tcedilla
Encoding: 400 355 293
Width: 600
Flags: W
HStem: -171 70<318.5 339 318.5 384.5> -12 21G<364 364> -10 21G<292 292> 361 82<93 159 93 159 246 474> 563 20G<159 246 246 246>
VStem: 159 87<193 361 443 583> 288 76
LayerCount: 2
Fore
SplineSet
364 -12 m 1xfe
 364 -18 l 1xde
 376 -18 438 -40 438 -96 c 0
 438 -115 428 -171 341 -171 c 0
 289 -171 234 -157 213 -152 c 1
 224 -83 l 1
 232 -85 301 -101 336 -101 c 0
 342 -101 350 -101 355 -96 c 1
 351 -87 345 -86 284 -78 c 1
 292 -10 l 1xbe
 159 14 159 107 159 193 c 2
 159 361 l 1
 93 361 l 1
 93 443 l 1
 159 443 l 1
 159 583 l 1
 246 583 l 1
 246 443 l 1
 474 443 l 1
 474 361 l 1
 246 361 l 1
 246 193 l 2
 246 124 245 73 324 73 c 0
 383 73 421 89 520 129 c 1
 553 50 l 1
 499 25 437 -3 364 -12 c 1xfe
EndSplineSet
EndChar

StartChar: musicalnotedbl
Encoding: 401 9835 294
Width: 600
Flags: W
HStem: -20 21G<75 130> -20 152<117.5 130> 24 153<415 428.5> 330 21G<479 479> 459 20G<182 182>
VStem: 182 50<127 262 338 413> 479 50<171 330 330 330 405 481 481 481>
LayerCount: 2
Fore
SplineSet
479 171 m 1xbe
 479 330 l 1
 232 262 l 1
 232 116 l 2
 232 13 154 -20 106 -20 c 0
 44 -20 43 19 43 34 c 0
 43 83 88 132 147 132 c 0
 159 132 169 130 182 127 c 1x5e
 182 479 l 1
 529 569 l 1
 529 161 l 2
 529 59 453 24 404 24 c 0
 373 24 341 37 341 78 c 0
 341 127 385 177 445 177 c 0
 457 177 467 175 479 171 c 1xbe
232 413 m 1
 232 338 l 1
 479 405 l 1
 479 481 l 1
 232 413 l 1
EndSplineSet
EndChar

StartChar: SF220000
Encoding: 402 9557 295
Width: 600
Flags: MW
HStem: 144 72<0 264 0 264> 288 72<0 264 0 336>
VStem: 264 72<-288 144 144 144 216 288 288 288>
LayerCount: 2
Fore
SplineSet
0 216 m 1
 264 216 l 1
 264 288 l 1
 0 288 l 1
 0 360 l 1
 336 360 l 1
 336 -288 l 1
 264 -288 l 1
 264 144 l 1
 0 144 l 1
 0 216 l 1
EndSplineSet
EndChar

StartChar: SM600000
Encoding: 403 9650 296
Width: 600
Flags: MW
HStem: 446 20G<300 300>
VStem: 102 396<95 95>
LayerCount: 2
Fore
SplineSet
102 95 m 1
 300 466 l 1
 498 95 l 1
 102 95 l 1
EndSplineSet
EndChar

StartChar: multiply
Encoding: 404 215 297
Width: 600
Flags: MW
HStem: 439 20G<95 95 505 505>
VStem: 95 410<173 173 173 459>
LayerCount: 2
Fore
SplineSet
362 316 m 1
 505 173 l 1
 443 112 l 1
 300 255 l 1
 157 112 l 1
 95 173 l 1
 238 316 l 1
 95 459 l 1
 157 521 l 1
 300 378 l 1
 443 521 l 1
 505 459 l 1
 362 316 l 1
EndSplineSet
EndChar

StartChar: Phi
Encoding: 405 934 298
Width: 600
Flags: MW
HStem: 0 65<176 259 341 424 176 259> 113 77<259 259> 397 78<259 259> 516 67<176 259 176 424 341 341 341 424>
VStem: 40 84<242.5 303> 259 82<65 113 65 113 190 397 475 516> 476 84<259 325 231.5 345>
LayerCount: 2
Fore
SplineSet
259 516 m 1
 176 516 l 1
 176 583 l 1
 424 583 l 1
 424 516 l 1
 341 516 l 1
 341 475 l 1
 397 472 447 467 490 435 c 0
 529 406 560 357 560 293 c 0
 560 170 461 117 341 113 c 1
 341 65 l 1
 424 65 l 1
 424 0 l 1
 176 0 l 1
 176 65 l 1
 259 65 l 1
 259 113 l 1
 130 118 40 173 40 293 c 0
 40 313 40 466 259 475 c 1
 259 516 l 1
259 190 m 1
 259 397 l 1
 232 396 124 397 124 294 c 0
 124 191 226 191 259 190 c 1
341 397 m 1
 341 190 l 1
 429 193 476 223 476 295 c 0
 476 395 372 396 341 397 c 1
EndSplineSet
EndChar

StartChar: pi
Encoding: 406 960 299
Width: 600
Flags: MW
HStem: 0 82<33 113 196 258 33 113 342 404 487 568> 371 82<33 113 33 568 196 404 196 196 487 568 487 487>
VStem: 113 83<82 371 82 371> 404 83<82 371 82 371>
LayerCount: 2
Fore
SplineSet
568 453 m 1
 568 371 l 1
 487 371 l 1
 487 82 l 1
 568 82 l 1
 568 0 l 1
 342 0 l 1
 342 82 l 1
 404 82 l 1
 404 371 l 1
 196 371 l 1
 196 82 l 1
 258 82 l 1
 258 0 l 1
 33 0 l 1
 33 82 l 1
 113 82 l 1
 113 371 l 1
 33 371 l 1
 33 453 l 1
 568 453 l 1
EndSplineSet
EndChar

StartChar: SF360000
Encoding: 407 9566 300
Width: 600
Flags: MW
HStem: 144 72<336 600 336 600> 288 72<336 600 336 600>
VStem: 264 72<-288 144 216 288 360 792>
LayerCount: 2
Fore
SplineSet
264 -288 m 1
 264 792 l 1
 336 792 l 1
 336 360 l 1
 600 360 l 1
 600 288 l 1
 336 288 l 1
 336 216 l 1
 600 216 l 1
 600 144 l 1
 336 144 l 1
 336 -288 l 1
 264 -288 l 1
EndSplineSet
EndChar

StartChar: periodsuperior
Encoding: 408 -1 301
Width: 600
Flags: MW
HStem: 250 115<283.5 317>
VStem: 230 140<290 325.5>
LayerCount: 2
Fore
SplineSet
300 365 m 0
 334 365 370 344 370 308 c 0
 370 272 334 250 300 250 c 0
 267 250 230 271 230 307 c 0
 230 344 267 365 300 365 c 0
EndSplineSet
EndChar

StartChar: SF250000
Encoding: 409 9559 302
Width: 600
Flags: MW
HStem: 144 72<0 192 0 264> 288 72<0 336 0 408>
VStem: 192 72<-288 144 144 144> 336 72<-288 288 288 288>
LayerCount: 2
Fore
SplineSet
192 144 m 1
 0 144 l 1
 0 216 l 1
 264 216 l 1
 264 -288 l 1
 192 -288 l 1
 192 144 l 1
336 -288 m 1
 336 288 l 1
 0 288 l 1
 0 360 l 1
 408 360 l 1
 408 -288 l 1
 336 -288 l 1
EndSplineSet
EndChar

StartChar: SF200000
Encoding: 410 9570 303
Width: 600
Flags: MW
HStem: 216 72<0 192 0 192>
VStem: 192 72<-288 216 216 216 288 792 -288 792> 336 72<-288 792>
LayerCount: 2
Fore
SplineSet
264 792 m 1
 264 -288 l 1
 192 -288 l 1
 192 216 l 1
 0 216 l 1
 0 288 l 1
 192 288 l 1
 192 792 l 1
 264 792 l 1
408 -288 m 1
 336 -288 l 1
 336 792 l 1
 408 792 l 1
 408 -288 l 1
EndSplineSet
EndChar

StartChar: kcedilla
Encoding: 411 311 304
Width: 600
Flags: W
HStem: -171 70<269.5 290.5 269.5 336.5> -18 24<315 318 245 321.5> 0 82<42 122 42 209 42 122 334 371 482 573> 371 82<290 311 290 537 449 449 449 537> 552 96 628 20G<209 209>
VStem: 122 87<82 187 291 556 556 556> 290 247<371 453 371 453> 334 56
LayerCount: 2
Fore
SplineSet
24 632 m 1xb6
 209 648 l 1
 209 291 l 1
 311 369 l 1
 311 371 l 1
 290 371 l 1
 290 453 l 1
 537 453 l 1
 537 371 l 1
 449 371 l 1xb7
 311 263 l 1
 347 232 408 168 482 82 c 1
 573 82 l 1
 573 0 l 1
 334 0 l 1
 334 82 l 1
 371 82 l 1
 340 117 264 192 242 212 c 1
 209 187 l 1
 209 0 l 1
 42 0 l 1
 42 82 l 1
 122 82 l 1
 122 556 l 1
 32 548 l 1xba80
 24 632 l 1xb6
318 6 m 1xd680
 315 -18 l 1
 328 -18 390 -40 390 -96 c 0
 390 -115 380 -171 293 -171 c 0
 240 -171 186 -157 164 -152 c 1
 175 -83 l 1
 184 -85 252 -101 287 -101 c 0
 294 -101 301 -101 306 -96 c 1
 303 -87 296 -86 235 -78 c 1
 245 6 l 1
 318 6 l 1xd680
EndSplineSet
EndChar

StartChar: Ccedilla
Encoding: 412 199 305
Width: 600
Flags: W
HStem: -183 70<326.5 349 326.5 383> -14 86<297 297 370 370> 514 86<280 350 254 388> 573 20G<465 548 548 548>
VStem: 52 92<241.5 369 241.5 395.5> 363 82<-106 -95.5> 462 81
LayerCount: 2
Fore
SplineSet
370 -14 m 1xec
 370 -18 l 1xec
 398 -25 445 -43 445 -102 c 0
 445 -146 418 -183 348 -183 c 0
 300 -183 254 -173 219 -164 c 1
 230 -95 l 1
 246 -98 308 -113 345 -113 c 0
 353 -113 363 -111 363 -101 c 0
 363 -90 350 -87 334 -84 c 0
 329 -83 297 -79 290 -78 c 1xec
 297 -14 l 1
 158 -1 52 121 52 298 c 0
 52 493 194 600 314 600 c 0
 386 600 424 568 459 537 c 1xee
 465 593 l 1
 548 593 l 1
 546 568 543 536 543 496 c 0xde
 543 439 548 405 553 371 c 1
 470 360 l 1xee
 460 425 448 514 328 514 c 0
 232 514 144 439 144 299 c 0
 144 184 201 72 332 72 c 0
 435 72 509 138 553 178 c 1
 611 114 l 1
 547 53 483 4 370 -14 c 1xec
EndSplineSet
EndChar

StartChar: fiveeighths
Encoding: 413 8541 306
Width: 600
Flags: W
HStem: -88 56<454.5 491 454.5 508.5> 81 58<456.5 489.5 456.5 491.5> 247 57<455.5 490.5> 251 58<115.5 153.5 114 172> 452 56<129.5 156.5> 577 57<84 251 84 84> 604 20G<597 597>
VStem: 28 56<498 577 498 634> 208 60<357.5 401> 346 60<8.5 40 8.5 42.5> 352 60<180 210 180 226> 533 60<180 210> 539 60<8.5 40>
LayerCount: 2
Fore
SplineSet
346 26 m 0xedc8
 346 59 363 91 392 113 c 1
 366 135 352 164 352 196 c 0
 352 256 405 304 473 304 c 0
 540 304 593 256 593 196 c 0xedb0
 593 164 579 135 553 113 c 1
 585 87 599 59 599 26 c 0
 599 -38 544 -88 473 -88 c 0
 402 -88 346 -38 346 26 c 0xedc8
412 195 m 0xedb0
 412 165 440 139 473 139 c 0
 506 139 533 164 533 195 c 0
 533 225 508 247 473 247 c 0
 438 247 412 225 412 195 c 0xedb0
406 24 m 0xddc8
 406 -7 436 -32 473 -32 c 0
 509 -32 539 -7 539 24 c 0
 539 56 510 81 473 81 c 0
 435 81 406 56 406 24 c 0xddc8
28 634 m 1
 251 634 l 1
 251 577 l 1
 84 577 l 1
 84 498 l 1
 109 506 121 508 138 508 c 0
 214 508 268 455 268 381 c 0
 268 305 212 251 132 251 c 0
 99 251 73 258 29 274 c 2
 4 283 l 1
 25 337 l 1
 72 316 99 309 129 309 c 0
 178 309 208 335 208 380 c 0
 208 422 178 452 135 452 c 0
 108 452 89 444 59 421 c 1
 28 438 l 1
 28 634 l 1
549 657 m 1
 597 624 l 1xebc8
 76 -94 l 1
 30 -58 l 1
 549 657 l 1
EndSplineSet
EndChar

StartChar: SF570000
Encoding: 414 9604 307
Width: 600
Flags: MW
HStem: -288 540<0 600 0 600>
VStem: 0 600<-288 252 -288 252>
LayerCount: 2
Fore
SplineSet
0 -288 m 1
 0 252 l 1
 600 252 l 1
 600 -288 l 1
 0 -288 l 1
EndSplineSet
EndChar

StartChar: minus
Encoding: 415 8722 308
Width: 600
Flags: MW
HStem: 269 88<54 546 54 546>
VStem: 54 492<269 357 269 357>
LayerCount: 2
Fore
SplineSet
546 357 m 1
 546 269 l 1
 54 269 l 1
 54 357 l 1
 546 357 l 1
EndSplineSet
EndChar

StartChar: SF590000
Encoding: 416 9616 309
Width: 600
Flags: MW
HStem: -288 1080<300 600 300 600>
VStem: 300 300<-288 792 -288 792>
LayerCount: 2
Fore
SplineSet
300 -288 m 1
 300 792 l 1
 600 792 l 1
 600 -288 l 1
 300 -288 l 1
EndSplineSet
EndChar

StartChar: ff
Encoding: 417 64256 310
Width: 600
Flags: W
HStem: 0 82<4 105 192 329 416 557 4 105> 359 82<4 105 4 105 192 329 416 557> 557 86<231 285.5 469.5 510> 613 20G<592 592>
VStem: 105 87<82 359 82 359 441 477> 329 87<82 359 82 359 441 477>
LayerCount: 2
Fore
SplineSet
592 633 m 2xfc
 602 631 l 1xdc
 577 544 l 1
 576 545 569 546 568 547 c 0
 549 551 528 557 492 557 c 0
 417 557 416 534 416 477 c 2
 416 441 l 1
 557 441 l 1
 557 359 l 1
 416 359 l 1
 416 82 l 1
 557 82 l 1
 557 0 l 1
 4 0 l 1
 4 82 l 1
 105 82 l 1
 105 359 l 1
 4 359 l 1
 4 441 l 1
 105 441 l 1
 105 478 l 2
 105 542 109 643 272 643 c 0
 336 643 371 631 394 623 c 1
 421 634 441 643 498 643 c 0xec
 545 643 569 638 592 633 c 2xfc
329 441 m 1
 329 478 l 2
 329 491 329 523 336 548 c 1
 320 552 303 557 268 557 c 0
 194 557 192 536 192 477 c 2xec
 192 441 l 1
 329 441 l 1
192 359 m 1
 192 82 l 1
 329 82 l 1
 329 359 l 1
 192 359 l 1
EndSplineSet
Ligature2: "'liga' Standard Ligatures in Latin lookup 0 subtable" f f
EndChar

StartChar: ninesuperior
Encoding: 418 8313 311
Width: 600
Flags: MW
HStem: 241 58<202 230.5> 388 59<262.5 289.5> 584 59<262.5 297>
VStem: 161 61<497 536 497 552> 349 62<502 519.5 425.5 523>
LayerCount: 2
Fore
SplineSet
156 243 m 1
 160 301 l 1
 202 299 l 1
 290 299 323 324 343 408 c 1
 324 395 301 388 278 388 c 0
 213 388 161 446 161 517 c 0
 161 587 213 643 279 643 c 0
 358 643 411 572 411 467 c 0
 411 384 380 311 331 275 c 0
 298 251 260 241 201 241 c 2
 156 243 l 1
348 498 m 1
 349 502 l 1
 349 544 315 584 279 584 c 0
 246 584 222 556 222 516 c 0
 222 478 247 447 278 447 c 0
 309 447 331 463 348 498 c 1
EndSplineSet
EndChar

StartChar: Ncedilla
Encoding: 419 325 312
Width: 600
Flags: W
HStem: -171 70<311.5 332 311.5 378.5> -18 24<357 360 287 363.5> -12 162<430 447 430 527 420 447> 0 82<5 83 163 264 5 83> 501 82<5 83 5 196 347 447 527 527 527 594>
VStem: 83 80<82 428 82 501 82 501> 282 150 447 80<150 501 -12 501>
LayerCount: 2
Fore
SplineSet
5 583 m 1x9d
 196 583 l 1
 430 150 l 1
 447 150 l 1
 447 501 l 1
 347 501 l 1
 347 583 l 1
 594 583 l 1
 594 501 l 1
 527 501 l 1
 527 -12 l 1
 420 -12 l 1xad
 181 428 l 1
 163 428 l 1
 163 82 l 1
 264 82 l 1
 264 0 l 1
 5 0 l 1
 5 82 l 1
 83 82 l 1
 83 501 l 1
 5 501 l 1
 5 583 l 1x9d
360 6 m 1xcf
 357 -18 l 1
 370 -18 432 -40 432 -96 c 0
 432 -115 422 -171 335 -171 c 0
 282 -171 228 -157 206 -152 c 1
 217 -83 l 1
 225 -85 294 -101 329 -101 c 0
 335 -101 343 -101 348 -96 c 1
 345 -87 338 -86 277 -78 c 1
 287 6 l 1
 360 6 l 1xcf
EndSplineSet
EndChar

StartChar: seveneighths
Encoding: 420 8542 313
Width: 600
Flags: W
HStem: -88 56<454.5 491 454.5 508.5> 81 58<456.5 489.5 456.5 491.5> 247 57<455.5 490.5> 577 57<59 193 59 59> 604 20G<564 564>
VStem: 1 58<525 577 525 634 525 634> 346 60<9 40 9 42.5> 352 60<180 210 179.5 226> 533 60<180 210> 539 60<9 40>
LayerCount: 2
Fore
SplineSet
346 26 m 0xf640
 346 59 363 91 392 113 c 1
 366 135 352 164 352 196 c 0
 352 256 405 304 473 304 c 0
 540 304 593 256 593 196 c 0xf580
 593 164 579 135 553 113 c 1
 585 87 599 59 599 26 c 0
 599 -38 544 -88 473 -88 c 0
 402 -88 346 -38 346 26 c 0xf640
412 195 m 0xf580
 412 164 440 139 473 139 c 0
 506 139 533 164 533 195 c 0
 533 225 508 247 473 247 c 0
 438 247 412 225 412 195 c 0xf580
406 24 m 0xf640
 406 -6 436 -32 473 -32 c 0
 509 -32 539 -6 539 24 c 0
 539 56 510 81 473 81 c 0
 435 81 406 56 406 24 c 0xf640
1 634 m 1
 258 634 l 1
 258 590 l 1
 141 259 l 1
 77 259 l 1
 193 577 l 1
 59 577 l 1
 59 525 l 1
 1 525 l 1
 1 634 l 1
516 657 m 1
 564 624 l 1xee40
 42 -94 l 1
 -4 -58 l 1
 516 657 l 1
EndSplineSet
EndChar

StartChar: equivalence
Encoding: 421 8801 314
Width: 600
Flags: MW
HStem: 94 88<54 546 54 546> 269 88<54 546 54 546> 443 88<54 546 54 546>
VStem: 54 492<94 182 94 182 269 357 94 357 443 531 94 531>
LayerCount: 2
Fore
SplineSet
54 531 m 1
 546 531 l 1
 546 443 l 1
 54 443 l 1
 54 531 l 1
54 357 m 1
 546 357 l 1
 546 269 l 1
 54 269 l 1
 54 357 l 1
54 182 m 1
 546 182 l 1
 546 94 l 1
 54 94 l 1
 54 182 l 1
EndSplineSet
EndChar

StartChar: iogonek
Encoding: 422 303 315
Width: 600
Flags: W
HStem: -144 66<287 356.5> 0 82<88 258 88 275 88 258 408 408 408 512> 371 82<115 258 115 345> 540 132<239 345 239 345>
VStem: 223 90<-63 -56> 258 87<82 371 371 371>
LayerCount: 2
Fore
SplineSet
420 -49 m 1xf4
 404 -115 l 1
 381 -130 359 -144 313 -144 c 0
 261 -144 223 -112 223 -72 c 0
 223 -40 246 -17 275 -2 c 1
 275 0 l 1xf8
 88 0 l 1
 88 82 l 1
 258 82 l 1
 258 371 l 1
 115 371 l 1
 115 453 l 1
 345 453 l 1
 345 82 l 1xf4
 512 82 l 1
 512 0 l 1
 408 0 l 1
 372 -8 313 -31 313 -55 c 0
 313 -71 330 -78 345 -78 c 0xf8
 368 -78 381 -71 420 -49 c 1xf4
239 540 m 1xf4
 239 672 l 1
 345 672 l 1
 345 540 l 1
 239 540 l 1xf4
EndSplineSet
EndChar

StartChar: SF210000
Encoding: 423 9558 316
Width: 600
Flags: MW
HStem: 216 72<0 192 0 408 264 336 264 264>
VStem: 192 72<-288 216 -288 216> 336 72<-288 216 216 216>
LayerCount: 2
Fore
SplineSet
264 216 m 1
 264 -288 l 1
 192 -288 l 1
 192 216 l 1
 0 216 l 1
 0 288 l 1
 408 288 l 1
 408 -288 l 1
 336 -288 l 1
 336 216 l 1
 264 216 l 1
EndSplineSet
EndChar

StartChar: ohm
Encoding: 424 8486 317
Width: 600
Flags: W
HStem: 0 76<22 196 93 196 93 272 405 507> 518 81<259.5 341>
VStem: 19 84<276.5 391 250.5 409.5> 22 71<76 116 76 116 76 116> 196 76<76 96 96 96> 329 76<76 96 76 146 76 146> 497 84<316 390.5> 507 71<76 116 0 116>
LayerCount: 2
Fore
SplineSet
22 0 m 1xfe
 22 116 l 1
 93 116 l 1
 93 76 l 1xde
 196 76 l 1
 196 96 l 1
 73 126 19 225 19 328 c 0
 19 491 151 599 300 599 c 0
 452 599 581 488 581 329 c 0xee
 581 303 580 143 405 96 c 1
 405 76 l 1
 507 76 l 1
 507 116 l 1
 578 116 l 1
 578 0 l 1xed
 329 0 l 1
 329 146 l 1
 372 154 497 179 497 324 c 0
 497 457 382 518 300 518 c 0
 219 518 103 458 103 324 c 0xee
 103 177 231 153 272 146 c 1
 272 0 l 1
 22 0 l 1xfe
EndSplineSet
EndChar

StartChar: Hbar
Encoding: 425 294 318
Width: 600
Flags: MW
HStem: 0 82<28 101 188 260 28 101 340 412 499 572> 260 83<188 412 188 412> 382 84<27 101 27 101 188 412 499 573> 501 82<28 101 28 260 188 260 188 188 28 340 340 412 499 499 499 572>
VStem: 101 87<82 260 82 343 343 382 466 501> 412 87<82 260 260 260 343 382 82 382 466 501>
LayerCount: 2
Fore
SplineSet
28 583 m 1
 260 583 l 1
 260 501 l 1
 188 501 l 1
 188 466 l 1
 412 466 l 1
 412 501 l 1
 340 501 l 1
 340 583 l 1
 572 583 l 1
 572 501 l 1
 499 501 l 1
 499 466 l 1
 573 466 l 1
 573 382 l 1
 499 382 l 1
 499 82 l 1
 572 82 l 1
 572 0 l 1
 340 0 l 1
 340 82 l 1
 412 82 l 1
 412 260 l 1
 188 260 l 1
 188 82 l 1
 260 82 l 1
 260 0 l 1
 28 0 l 1
 28 82 l 1
 101 82 l 1
 101 382 l 1
 27 382 l 1
 27 466 l 1
 101 466 l 1
 101 501 l 1
 28 501 l 1
 28 583 l 1
412 382 m 1
 188 382 l 1
 188 343 l 1
 412 343 l 1
 412 382 l 1
EndSplineSet
EndChar

StartChar: SF030000
Encoding: 426 9488 319
Width: 600
Flags: MW
HStem: 216 72<0 336 0 264>
VStem: 264 72<-288 216 216 216>
LayerCount: 2
Fore
SplineSet
0 216 m 1
 0 288 l 1
 336 288 l 1
 336 -288 l 1
 264 -288 l 1
 264 216 l 1
 0 216 l 1
EndSplineSet
EndChar

StartChar: eogonek
Encoding: 427 281 320
Width: 600
Flags: W
HStem: -144 66<299 369> -11 21G -11 86 196 82<160 456 160 545 154 456> 383 86<255.5 325>
VStem: 61 515<67 290.5> 235 91<-63 -58.5>
LayerCount: 2
Fore
SplineSet
432 -49 m 1xdc
 417 -115 l 1
 394 -130 371 -144 325 -144 c 0
 273 -144 235 -112 235 -72 c 0
 235 -45 252 -26 271 -11 c 1
 126 9 61 119 61 226 c 0
 61 355 156 469 310 469 c 0
 468 469 549 355 549 257 c 0
 549 234 546 205 545 196 c 1
 154 196 l 1
 163 160 185 75 315 75 c 0
 390 75 473 111 536 144 c 1
 576 67 l 1
 514 32 504 28 409 -2 c 0
 382 -12 326 -30 326 -55 c 0
 326 -71 343 -78 357 -78 c 0xba
 381 -78 393 -71 432 -49 c 1xdc
160 278 m 1
 456 278 l 1
 429 381 339 383 311 383 c 0
 200 383 170 305 160 278 c 1
EndSplineSet
EndChar

StartChar: micro
Encoding: 428 181 321
Width: 600
Flags: W
HStem: -15 81<283 319.5 283 326.5> 0 82<494 575 494 575> 371 82<26 107 26 189 331 412>
VStem: 107 82<-153 49 181 207 207 371 371 371> 412 82<0 453 49 453 207 371 371 371>
LayerCount: 2
Fore
SplineSet
26 453 m 1x78
 189 453 l 1
 189 207 l 2
 189 155 193 134 212 109 c 0
 233 81 267 66 299 66 c 0xb8
 340 66 412 89 412 207 c 2
 412 371 l 1
 331 371 l 1
 331 453 l 1
 494 453 l 1
 494 82 l 1
 575 82 l 1
 575 0 l 1
 412 0 l 1x78
 412 49 l 1
 410 49 l 1
 385 7 351 -15 302 -15 c 0
 236 -15 207 24 191 49 c 1
 189 49 l 1xb8
 189 -153 l 1
 107 -153 l 1
 107 371 l 1
 26 371 l 1
 26 453 l 1x78
EndSplineSet
EndChar

StartChar: epsilon
Encoding: 429 949 322
Width: 600
Flags: W
HStem: -15 81<274.5 328 274.5 335> 197 77<315.5 356.5> 241 21G 392 81<266 341.5 251.5 363>
VStem: 101 84<108.5 136.5 108.5 146.5> 124 85<338.5 349 326 384> 455 64<351 476>
LayerCount: 2
Fore
SplineSet
455 476 m 1xba
 528 471 l 1
 523 443 519 426 519 370 c 0
 519 332 521 319 523 297 c 1
 455 287 l 1
 455 287 453 291 453 292 c 0
 437 341 419 392 307 392 c 0
 225 392 209 356 209 342 c 0xd6
 209 310 262 274 369 274 c 2
 404 275 l 1
 404 195 l 1
 391 196 369 197 344 197 c 0
 208 197 185 145 185 128 c 0
 185 89 244 66 305 66 c 0
 351 66 385 77 461 109 c 0
 462 109 467 111 468 112 c 1
 492 34 l 2
 491 33 487 32 486 31 c 0
 439 11 377 -15 293 -15 c 0
 172 -15 101 48 101 118 c 0xda
 101 175 151 223 205 241 c 1
 127 274 124 331 124 346 c 0xb6
 124 422 202 473 301 473 c 0
 382 473 423 440 455 416 c 1
 455 476 l 1xba
EndSplineSet
EndChar

StartChar: Pts
Encoding: 430 8359 323
Width: 600
Flags: W
HStem: -14 55<497.5 537.5> -14 67<274 299 274 305> -13 82<408 463> -6 21G<408 408> 0 74<7 46 127 169 7 46> 143 64<162 195 162 195 260 360> 171 54<491 493.5 477.5 499> 300 71<127 169 127 180> 509 74<127 203 127 127> 515 68<7 46 7 209>
VStem: 46 81<74 300 74 371 371 509> 195 65<102 143 88 143 207 271> 341 80<410.5 474> 406 57<144 160> 410 53<-13 32> 532 51<213 216 143 224 143 224> 539 57<52.5 67.5 37.5 71.5>
LayerCount: 2
Fore
SplineSet
7 583 m 1x0db9
 209 583 l 2x45b9
 265 583 421 583 421 439 c 0
 421 382 390 340 356 323 c 0
 311 302 278 300 169 300 c 2
 127 300 l 1
 127 74 l 1
 169 74 l 1
 169 0 l 1
 7 0 l 1
 7 74 l 1
 46 74 l 1
 46 515 l 1
 7 515 l 1x0d79
 7 583 l 1x0db9
195 271 m 1
 260 271 l 1
 260 207 l 1
 360 207 l 1
 360 143 l 1
 260 143 l 1
 260 102 l 2
 260 74 260 53 288 53 c 0x45b9
 310 53 339 65 360 74 c 1x0db9
 382 12 l 1
 363 3 325 -14 285 -14 c 0
 195 -14 195 54 195 102 c 2
 195 143 l 1
 162 143 l 1
 162 207 l 1
 195 207 l 1
 195 271 l 1
532 213 m 1x83b5
 532 224 l 1
 583 216 l 1x0bb9
 581 183 581 174 583 143 c 1
 540 143 l 1x0db9
 537 171 504 171 494 171 c 0
 488 171 463 171 463 149 c 0
 463 139 467 131 496 128 c 0
 500 127 518 125 522 125 c 0
 587 117 596 76 596 59 c 0
 596 16 558 -14 517 -14 c 0x43b480
 494 -14 479 -7 463 0 c 1x0db3
 463 -13 l 1x45b3
 408 -6 l 1
 410 2 410 8 410 23 c 0x15b3
 410 41 409 56 408 69 c 1
 454 69 l 1x25b3
 462 42 494 41 501 41 c 0
 504 41 539 41 539 64 c 0x85b880
 539 79 527 82 516 83 c 0
 459 89 406 95 406 156 c 0
 406 218 471 225 484 225 c 0
 503 225 520 218 532 213 c 1x83b5
203 509 m 2
 127 509 l 1
 127 371 l 1
 180 371 l 2
 276 371 341 375 341 439 c 0
 341 509 249 509 203 509 c 2
EndSplineSet
EndChar

StartChar: SF100000
Encoding: 431 9472 324
Width: 600
Flags: MW
HStem: 216 72<0 600 0 600>
VStem: 0 600<216 288 216 288>
LayerCount: 2
Fore
SplineSet
0 216 m 1
 0 288 l 1
 600 288 l 1
 600 216 l 1
 0 216 l 1
EndSplineSet
EndChar

StartChar: SF050000
Encoding: 432 9532 325
Width: 600
Flags: MW
HStem: 216 72<0 264 0 264 336 600>
VStem: 264 72<-288 216 -288 216 288 792>
LayerCount: 2
Fore
SplineSet
336 288 m 1
 600 288 l 1
 600 216 l 1
 336 216 l 1
 336 -288 l 1
 264 -288 l 1
 264 216 l 1
 0 216 l 1
 0 288 l 1
 264 288 l 1
 264 792 l 1
 336 792 l 1
 336 288 l 1
EndSplineSet
EndChar

StartChar: infinity
Encoding: 433 8734 326
Width: 600
Flags: W
HStem: 183 89<152.5 173 418 451> 247 21G 353 88<165.5 182>
VStem: 41 87<300.5 332 300.5 356> 472 87<307 327.5>
LayerCount: 2
Fore
SplineSet
298 377 m 1x78
 321 400 361 442 430 442 c 0
 499 442 559 394 559 313 c 0
 559 247 516 183 433 183 c 0xb8
 368 183 325 224 301 247 c 1x78
 273 216 243 200 219 191 c 0
 195 183 177 183 169 183 c 0xb8
 107 183 41 226 41 311 c 0
 41 401 114 441 168 441 c 0
 219 441 267 417 298 377 c 1x78
358 314 m 1
 375 298 l 2
 381 292 401 272 435 272 c 0xb8
 467 272 472 301 472 313 c 0
 472 342 450 354 431 354 c 0
 396 354 372 328 358 314 c 1
242 313 m 1
 218 337 196 353 168 353 c 0
 163 353 128 352 128 312 c 0
 128 289 140 272 165 272 c 0
 196 272 223 293 242 313 c 1
EndSplineSet
EndChar

StartChar: lessequal
Encoding: 434 8804 327
Width: 600
Flags: W
HStem: 18 88<41 530 41 530> 130 21G<516 516>
VStem: 516 14
LayerCount: 2
Fore
SplineSet
516 610 m 1
 553 532 l 1
 204 372 l 1
 552 209 l 1
 516 130 l 1xe0
 5 373 l 1
 516 610 l 1
530 106 m 1xa0
 530 18 l 1
 41 18 l 1
 41 106 l 1
 530 106 l 1xa0
EndSplineSet
EndChar

StartChar: liter
Encoding: 435 -1 328
Width: 600
Flags: MW
HStem: -12 55<268.5 282.5 268.5 290> 148 21G<151 160> 572 49<392.5 405.5>
VStem: 186 76<51 69.5 51 79> 418 45<525 549>
LayerCount: 2
Fore
SplineSet
296 243 m 1
 291 221 262 85 262 54 c 0
 262 48 265 43 272 43 c 0
 293 43 309 73 312 78 c 0
 325 102 329 109 343 109 c 0
 360 109 362 94 362 90 c 0
 362 70 323 -12 257 -12 c 0
 226 -12 186 8 186 63 c 0
 186 95 191 122 199 173 c 1
 169 150 165 148 155 148 c 0
 147 148 136 157 136 167 c 0
 136 177 140 180 171 206 c 0
 176 210 193 225 212 243 c 1
 262 475 317 621 404 621 c 0
 449 621 463 580 463 544 c 0
 463 506 451 460 432 419 c 0
 404 362 400 358 296 243 c 1
313 323 m 1
 330 344 l 2
 367 384 418 473 418 541 c 0
 418 557 412 572 399 572 c 0
 386 572 378 558 375 555 c 0
 355 524 337 447 311 325 c 1
 313 323 l 1
EndSplineSet
EndChar

StartChar: logicalnot
Encoding: 436 172 329
Width: 600
Flags: MW
HStem: 374 88<77 443 77 531>
VStem: 443 88<163 374 374 374>
LayerCount: 2
Fore
SplineSet
77 462 m 1
 531 462 l 1
 531 163 l 1
 443 163 l 1
 443 374 l 1
 77 374 l 1
 77 462 l 1
EndSplineSet
EndChar

StartChar: SF140000
Encoding: 437 9617 330
Width: 600
Flags: MW
HStem: -167 100<0 100 0 100 200 300 400 500> 33 100<0 100 0 100 200 300 400 500> 233 100<0 100 0 100 200 300 400 500> 433 100<0 100 0 100 200 300 400 500> 633 100<0 100 0 100 200 300 400 500>
VStem: 0 100<-167 -67 -167 -67 33 133 233 333 433 533 633 733> 200 100<-167 -67 -167 -67 33 133 233 333 433 533 633 733> 400 100<-167 -67 -167 -67 33 133 233 333 433 533 633 733>
LayerCount: 2
Fore
SplineSet
500 533 m 1
 500 433 l 1
 400 433 l 1
 400 533 l 1
 500 533 l 1
300 533 m 1
 300 433 l 1
 200 433 l 1
 200 533 l 1
 300 533 l 1
500 333 m 1
 500 233 l 1
 400 233 l 1
 400 333 l 1
 500 333 l 1
300 333 m 1
 300 233 l 1
 200 233 l 1
 200 333 l 1
 300 333 l 1
500 133 m 1
 500 33 l 1
 400 33 l 1
 400 133 l 1
 500 133 l 1
300 133 m 1
 300 33 l 1
 200 33 l 1
 200 133 l 1
 300 133 l 1
500 -67 m 1
 500 -167 l 1
 400 -167 l 1
 400 -67 l 1
 500 -67 l 1
300 -67 m 1
 300 -167 l 1
 200 -167 l 1
 200 -67 l 1
 300 -67 l 1
100 533 m 1
 100 433 l 1
 0 433 l 1
 0 533 l 1
 100 533 l 1
100 333 m 1
 100 233 l 1
 0 233 l 1
 0 333 l 1
 100 333 l 1
100 133 m 1
 100 33 l 1
 0 33 l 1
 0 133 l 1
 100 133 l 1
100 -67 m 1
 100 -167 l 1
 0 -167 l 1
 0 -67 l 1
 100 -67 l 1
100 733 m 1
 100 633 l 1
 0 633 l 1
 0 733 l 1
 100 733 l 1
300 733 m 1
 300 633 l 1
 200 633 l 1
 200 733 l 1
 300 733 l 1
500 733 m 1
 500 633 l 1
 400 633 l 1
 400 733 l 1
 500 733 l 1
EndSplineSet
EndChar

StartChar: nsuperior
Encoding: 438 8319 331
Width: 600
Flags: W
HStem: 260 73<100 156 231 287 100 156 315 371 447 500> 516 74<100 156 100 231> 524 75<305.5 350.5>
VStem: 156 75<333 483 333 516 333 516> 371 76<333 473 333 488>
LayerCount: 2
Fore
SplineSet
100 590 m 1xd8
 231 590 l 1xd8
 231 566 l 1
 243 575 276 599 329 599 c 0
 447 599 447 501 447 473 c 2
 447 333 l 1
 500 333 l 1
 500 260 l 1
 315 260 l 1
 315 333 l 1
 371 333 l 1
 371 473 l 2
 371 503 371 524 330 524 c 0
 281 524 251 499 231 483 c 1xb8
 231 333 l 1
 287 333 l 1
 287 260 l 1
 100 260 l 1
 100 333 l 1
 156 333 l 1
 156 516 l 1
 100 516 l 1
 100 590 l 1xd8
EndSplineSet
EndChar

StartChar: intersection
Encoding: 439 8745 332
Width: 600
Flags: MW
HStem: 0 21G<69 157 69 69 443 443 443 531> 513 86<278 320.5>
VStem: 69 88<0 261 261 264> 443 88<0 261 0 264 0 312>
LayerCount: 2
Fore
SplineSet
157 0 m 1
 69 0 l 1
 69 261 l 2
 69 384 69 439 105 494 c 0
 151 564 227 599 300 599 c 0
 391 599 460 548 496 493 c 0
 531 440 531 374 531 261 c 2
 531 0 l 1
 443 0 l 1
 443 264 l 2
 443 360 443 413 419 450 c 0
 390 493 341 513 300 513 c 0
 256 513 208 491 181 449 c 0
 157 413 157 352 157 264 c 2
 157 0 l 1
EndSplineSet
EndChar

StartChar: SF160000
Encoding: 440 9619 333
Width: 600
Flags: MW
HStem: -267 100<0 100 200 300 400 500 0 100> -67 100<0 100 0 100 200 300 400 500> 133 100<0 100 0 100 200 300 400 500> 333 100<0 100 0 100 200 300 400 500> 533 100<0 100 0 100 200 300 400 500>
VStem: 100 100<-167 -67 -167 -67 33 133 233 333 433 533 633 733> 300 100<-167 -67 -167 -67 33 133 233 333 433 533 633 733> 500 100<-167 -67 -67 -67 33 133 133 133 233 333 333 333 433 533 533 533 633 733>
LayerCount: 2
Fore
SplineSet
600 -267 m 1
 0 -267 l 1
 0 -167 l 1
 100 -167 l 1
 100 -67 l 1
 0 -67 l 1
 0 33 l 1
 100 33 l 1
 100 133 l 1
 0 133 l 1
 0 233 l 1
 100 233 l 1
 100 333 l 1
 0 333 l 1
 0 433 l 1
 100 433 l 1
 100 533 l 1
 0 533 l 1
 0 633 l 1
 100 633 l 1
 100 733 l 1
 200 733 l 1
 200 633 l 1
 300 633 l 1
 300 733 l 1
 400 733 l 1
 400 633 l 1
 500 633 l 1
 500 733 l 1
 600 733 l 1
 600 -267 l 1
500 233 m 1
 500 333 l 1
 400 333 l 1
 400 233 l 1
 500 233 l 1
300 233 m 1
 300 333 l 1
 200 333 l 1
 200 233 l 1
 300 233 l 1
500 33 m 1
 500 133 l 1
 400 133 l 1
 400 33 l 1
 500 33 l 1
300 33 m 1
 300 133 l 1
 200 133 l 1
 200 33 l 1
 300 33 l 1
500 433 m 1
 500 533 l 1
 400 533 l 1
 400 433 l 1
 500 433 l 1
300 433 m 1
 300 533 l 1
 200 533 l 1
 200 433 l 1
 300 433 l 1
500 -167 m 1
 500 -67 l 1
 400 -67 l 1
 400 -167 l 1
 500 -167 l 1
300 -167 m 1
 300 -67 l 1
 200 -67 l 1
 200 -167 l 1
 300 -167 l 1
EndSplineSet
EndChar

StartChar: SF260000
Encoding: 441 9565 334
Width: 600
Flags: MW
HStem: 144 72<0 336 0 408 0 336> 288 72<0 192 0 264 0 192>
VStem: 192 72<360 792> 336 72<216 792 144 792>
LayerCount: 2
Fore
SplineSet
264 288 m 1
 0 288 l 1
 0 360 l 1
 192 360 l 1
 192 792 l 1
 264 792 l 1
 264 288 l 1
336 216 m 1
 336 792 l 1
 408 792 l 1
 408 144 l 1
 0 144 l 1
 0 216 l 1
 336 216 l 1
EndSplineSet
EndChar

StartChar: notequal
Encoding: 442 8800 335
Width: 600
Flags: MW
HStem: 221 82<79 198 79 239 347 521 79 305> 334 82<79 254 79 296 404 521 79 362>
VStem: 79 442<221 303 221 303 334 416 221 416>
LayerCount: 2
Fore
SplineSet
362 334 m 1
 347 303 l 1
 521 303 l 1
 521 221 l 1
 305 221 l 1
 227 64 l 1
 142 109 l 1
 198 221 l 1
 79 221 l 1
 79 303 l 1
 239 303 l 1
 254 334 l 1
 79 334 l 1
 79 416 l 1
 296 416 l 1
 372 567 l 1
 458 523 l 1
 404 416 l 1
 521 416 l 1
 521 334 l 1
 362 334 l 1
EndSplineSet
EndChar

StartChar: filledbox
Encoding: 443 9632 336
Width: 600
Flags: MW
HStem: 141 198<201 399 201 399>
VStem: 201 198<141 339 141 339>
LayerCount: 2
Fore
SplineSet
201 141 m 1
 201 339 l 1
 399 339 l 1
 399 141 l 1
 201 141 l 1
EndSplineSet
EndChar

StartChar: lcedilla
Encoding: 444 316 337
Width: 600
Flags: W
HStem: -171 70<282 302.5 282 348.5> -18 21G<327 333.5> 0 82<88 256 88 257 88 256 343 511 88 329> 553 95
VStem: 252.5 75.5 256 87<82 558 558 558>
LayerCount: 2
Fore
SplineSet
329 0 m 1xb4
 327 -18 l 1
 340 -18 402 -40 402 -96 c 0
 402 -115 392 -171 305 -171 c 0xd4
 253 -171 198 -157 176 -152 c 1
 188 -83 l 1
 196 -85 265 -101 299 -101 c 0
 306 -101 313 -101 318 -96 c 1
 315 -87 308 -86 248 -78 c 1
 257 0 l 1xb8
 88 0 l 1
 88 82 l 1
 256 82 l 1
 256 558 l 1
 100 548 l 1
 92 631 l 1
 343 648 l 1
 343 82 l 1
 511 82 l 1
 511 0 l 1
 329 0 l 1xb4
EndSplineSet
EndChar

StartChar: parenrightsuperior
Encoding: 445 8318 338
Width: 600
Flags: MW
HStem: 213 462<163 244 163 244>
VStem: 248 83<407 467.5 407 485.5>
LayerCount: 2
Fore
SplineSet
244 213 m 1
 163 213 l 1
 171 227 l 2
 205 285 248 360 248 444 c 0
 248 527 207 600 171 661 c 2
 163 675 l 1
 244 675 l 1
 244 675 246 672 246 671 c 0
 313 578 331 491 331 444 c 0
 331 370 292 281 254 227 c 1
 246 217 l 2
 246 216 244 213 244 213 c 1
EndSplineSet
EndChar

